<svg width="14" height="9" viewBox="0 0 14 9" fill="none" xmlns="http://www.w3.org/2000/svg">
<path d="M7.12562 8.99324C7.40092 8.96145 7.66124 8.82865 7.87087 8.61305L13.4981 2.85018C13.6382 2.71597 13.7543 2.54947 13.8396 2.36057C13.9248 2.17167 13.9774 1.96423 13.9941 1.75058C14.0109 1.53693 13.9916 1.32143 13.9373 1.11688C13.883 0.912336 13.7948 0.722921 13.678 0.559897C13.5612 0.396872 13.4182 0.263565 13.2574 0.167898C13.0967 0.0722306 12.9214 0.016157 12.7422 0.00300831C12.5629 -0.0101404 12.3832 0.0199046 12.2139 0.0913581C12.0445 0.162812 11.8889 0.274214 11.7563 0.418946L6.99999 5.2914L2.24367 0.418946C2.11106 0.274214 1.95546 0.162812 1.7861 0.0913581C1.61675 0.0199046 1.4371 -0.0101404 1.25783 0.00300831C1.07856 0.016157 0.903334 0.0722306 0.742564 0.167898C0.581796 0.263565 0.438769 0.396872 0.321977 0.559897C0.205185 0.722921 0.117023 0.912336 0.0627155 1.11688C0.0084095 1.32143 -0.0109196 1.53693 0.0058651 1.75058C0.0226507 1.96423 0.0752039 2.17167 0.160421 2.36057C0.245639 2.54947 0.361772 2.71597 0.501916 2.85018L6.12912 8.61305C6.26539 8.75303 6.42383 8.85882 6.59502 8.92413C6.76622 8.98945 6.94667 9.01295 7.12562 8.99324Z" fill="white"/>
</svg>
