<svg class="faq__arrow" width="17.979" height="10.265" viewBox="0 0 17.979 10.265">
	<path d="M1.27525556.00000867c.18118557-2e-7.34843132.03135818.50174226.09407609.15331095.0627179.29268248.15679347.41811879.2822295L8.98954933 7.1707317l3.5115025-3.5115104L15.78396678.376299c.11149868-.1254363.24738571-.21951216.4076652-.28223043.16027947-.06271826.33100943-.09407702.512195-.09407723.3484338-3.9e-7.64808252.12543356.89895513.37630561.25087262.25087206.37630724.55052049.37630763.89895429 2e-7.18118557-.03484246.34843132-.10452905.50174227-.06968659.15331095-.16027786.29268248-.27177653.41811878L9.88850708 9.88850073c-.11149867.1254363-.24390142.21951216-.39721222.28223041-.1533108.06271826-.32055648.09407702-.50174206.09407722-.18118557 2e-7-.34843132-.03135818-.50174226-.09407609s-.29268248-.15679347-.41811879-.2822295L.37630332 2.19513164C.25086702 2.0696956.15679114 1.93032428.0940729 1.77701348c-.06271826-.1533108-.09407702-.32055648-.09407722-.50174206-4e-7-.3484338.12543355-.6480825.3763056-.89895512.25087206-.25087262.5505205-.37630724.89895429-.37630763z" />
</svg>
