<?xml version="1.0" encoding="UTF-8"?>
<svg width="362px" height="363px" viewBox="0 0 362 363" version="1.1" xmlns="http://www.w3.org/2000/svg" xmlns:xlink="http://www.w3.org/1999/xlink">
    <g stroke="none" stroke-width="1" fill="none" fill-rule="evenodd">
        <g>
            <g>
                <polygon points="0 -6.5297978e-15 362 -6.5297978e-15 362 363 0 363"></polygon>
                <path d="M-0.00118907236,363.000596 L188.752157,363.000596 C302.148043,363.000596 362,315.431588 362,182.752271 L362,-6.5297978e-15 L173.252599,-6.5297978e-15 C59.8567135,-6.5297978e-15 -0.00118907236,56.1301178 -0.00118907236,188.809435 L-0.00118907236,363.000596 Z" id="Fill-1" fill="#FFF1C8" mask="url(#mask-2)"></path>
            </g>
            <polygon fill="#FFF9E8" points="172.837728 52 172.837728 158.12658 245 158.12658 245 208.439366 173.205056 208.439366 173.205056 312 114 312 114 52"></polygon>
            <path d="M173,115 L226.888418,115 C254.5594,115 277,92.9932139 277,65.8441093 L277,53 L223.111582,53 C195.4406,53 173,75.0067861 173,102.155891 L173,115 Z" fill="#FFF9E8"></path>
        </g>
    </g>
</svg>