<svg width="35" height="35" xmlns="http://www.w3.org/2000/svg" xmlns:xlink="http://www.w3.org/1999/xlink" version="1.1">
 <title>freshbooks-logo</title>
 <defs>
  <polygon id="path-1" points="0 0.0654992614 35.5763241 0.0654992614 35.5763241 35.6418817 0 35.6418817"/>
 </defs>
 <g>
  <title>Layer 1</title>
  <g id="Final" fill="none" fill-rule="evenodd">
   <g id="Solutions">
    <g id="freshbooks-logo">
     <g id="Group-3">
      <mask id="mask-2" fill="white">
       <use xlink:href="#path-1" id="svg_1"/>
      </mask>
      <g id="Clip-2"/>
      <path d="m-0.00012,35.57644l18.55014,0c11.14422,0 17.0263,-4.66207 17.0263,-17.66552l0,-17.91092l-18.54955,0c-11.14422,0 -17.02689,5.50112 -17.02689,18.50456l0,17.07188z" id="Fill-1" fill="#3E94F7" mask="url(#mask-2)"/>
     </g>
     <polygon id="Fill-4" fill="#062942" points="46.90564727783203,18.805125504732132 51.807289123535156,18.805125504732132 51.807289123535156,15.7177155315876 46.90564727783203,15.7177155315876 46.90564727783203,12.466123849153519 52.443580627441406,12.466123849153519 52.443580627441406,9.16837528347969 43.32685089111328,9.16837528347969 43.32685089111328,25.72899940609932 46.90564727783203,25.72899940609932 "/>
     <path d="m54.12827,13.1442l0,12.29411l3.21011,0l0,-6.73106c0,-0.38154 0,-1.54195 0.47211,-2.09293c0.79289,-0.89456 1.85338,-0.83379 1.97082,-0.82444l0.13497,0.0111l0,-3.04826l-0.11277,-0.01052c-0.94714,-0.08705 -1.84812,0.27462 -2.21564,0.66084c-0.06719,0.06719 -0.13029,0.12738 -0.18931,0.18405c-0.11569,0.10985 -0.22203,0.21093 -0.32194,0.32954l0,-0.77243l-2.94835,0z" id="Fill-6" fill="#062942"/>
     <path d="m86.46469,25.43802l0,-6.75092c0,-1.83468 0.85073,-2.89751 2.33484,-2.9168c0.59013,-0.0146 1.11366,0.19107 1.50864,0.57962c0.51126,0.50366 0.78179,1.29772 0.78179,2.29686l0,6.79124l3.14992,0l0,-7.65716c0,-2.69184 -1.82708,-4.79413 -4.34422,-4.99863c-1.39821,-0.12738 -2.5481,0.22963 -3.42162,1.06341l-0.02921,0.02863l0,-4.7988l-3.14993,0l0.02045,16.36255l3.14934,0z" id="Fill-8" fill="#062942"/>
     <path d="m99.15992,22.28862l0,-3.90016l1.72834,0c1.09205,0 2.39502,0.47036 2.4739,1.79787c0.03973,0.56618 -0.09057,1.00148 -0.39791,1.33102c-0.47736,0.51184 -1.38535,0.77127 -2.70001,0.77127l-1.10432,0zm-0.01986,-7.00918l0,-3.05469l1.40581,0c0.54397,0 1.81481,0.13381 1.86973,1.37017c0.01286,0.4464 -0.11393,0.811 -0.37745,1.08211c-0.48379,0.49782 -1.31933,0.60241 -1.93576,0.60241l-0.96233,0zm1.36607,10.15852c3.3965,0 5.50054,-1.44788 6.08366,-4.18704c0.3611,-1.7003 -0.63396,-4.14732 -2.45812,-4.75674l-0.09758,-0.03388l0.10401,-0.06486c1.28077,-0.81918 1.70029,-2.48558 1.44437,-3.63547c-0.49782,-2.37632 -2.38742,-3.68456 -5.31823,-3.68456l-4.35474,0l0.02045,16.36255l4.57618,0z" id="Fill-10" fill="#062942"/>
     <path d="m113.82147,22.79216c-0.88871,0.02863 -1.74061,-0.31142 -2.40436,-0.95473c-0.68129,-0.66084 -1.07277,-1.57467 -1.07277,-2.50603c0,-1.8715 1.4508,-3.38248 3.30243,-3.44091c0.02337,0 0.04674,-0.00058 0.0707,-0.00058c1.83585,0 3.34858,1.48527 3.38715,3.34508c0.05901,1.87032 -1.44496,3.49991 -3.28315,3.55717m4.40324,1.20073c1.26382,-1.23578 1.98893,-2.93491 1.98893,-4.66149c0,-1.73068 -0.72102,-3.43214 -1.97783,-4.66792c-1.25097,-1.22994 -2.8829,-1.88961 -4.59372,-1.86156c-3.50108,0.0409 -6.36587,2.95185 -6.38643,6.48857c-0.02034,3.52154 2.80705,6.46871 6.30522,6.57038c0.0485,0.00117 0.09699,0.00175 0.14607,0.00175c1.6816,0 3.28081,-0.66025 4.51776,-1.86973" id="Fill-12" fill="#062942"/>
     <path d="m129.94376,21.69206c-0.6252,0.68187 -1.46424,1.07217 -2.36172,1.10022c-0.88871,0.02863 -1.7406,-0.31143 -2.40436,-0.95473c-0.68187,-0.66084 -1.07276,-1.57467 -1.07276,-2.50604c0,-1.87149 1.4508,-3.38305 3.30184,-3.4409c0.02395,0 0.04732,-0.00058 0.07128,-0.00058c1.83585,0 3.34858,1.48527 3.38715,3.34449c0.02863,0.90624 -0.29916,1.77917 -0.92143,2.45754m2.04152,2.30094c1.26382,-1.23578 1.98893,-2.9349 1.98893,-4.66149c0,-1.73067 -0.72043,-3.43214 -1.97725,-4.66792c-1.25155,-1.22993 -2.87939,-1.8896 -4.59429,-1.86155c-3.50109,0.0409 -6.36588,2.95126 -6.38644,6.48857c-0.02034,3.52154 2.80706,6.46871 6.30522,6.57038c0.0485,0.00117 0.09699,0.00175 0.14607,0.00175c1.6816,0 3.28081,-0.66083 4.51776,-1.86974" id="Fill-14" fill="#062942"/>
     <polygon id="Fill-16" fill="#062942" points="137.89329528808594,19.866957932710648 138.17025756835938,19.626815110445023 138.4168243408203,19.626815110445023 141.98159790039062,25.49895790219307 145.40321350097656,25.49895790219307 140.5407257080078,17.457919389009476 145.34654235839844,13.121878892183304 141.04498291015625,13.121878892183304 137.92543029785156,15.926486283540726 137.89329528808594,15.926486283540726 137.89329528808594,9.014884263277054 134.87484741210938,9.014884263277054 134.87484741210938,25.49895790219307 137.89329528808594,25.49895790219307 "/>
     <path d="m154.41728,21.7662c0,-2.61705 -2.12916,-3.29074 -3.83997,-3.83179l-0.03798,0.11861l0.03798,-0.11861c-1.07861,-0.34123 -2.00997,-0.63571 -2.00997,-1.32693c0,-0.47562 0.39732,-0.77127 1.03712,-0.77127c0.39907,0 0.81626,0.149 1.03888,0.37103l0.13088,0.1303l2.1017,-2.07132l-0.13731,-0.13264c-0.81509,-0.78704 -1.81423,-1.16917 -3.05469,-1.16917c-2.51947,0 -4.14789,1.46132 -4.14789,3.72312c0,2.69709 2.07775,3.24399 3.74882,3.68338c1.17385,0.30909 2.10171,0.55274 2.10171,1.39529c0,0.71985 -0.67837,1.22293 -1.64946,1.22293c-0.95299,0 -1.56825,-0.50074 -1.56825,-1.2761l0,-0.18639l-3.11136,0l0,0.18639c0,2.4032 1.96849,4.1479 4.67961,4.1479c2.71229,0 4.68018,-1.72191 4.68018,-4.09473" id="Fill-18" fill="#062942"/>
     <path d="m63.85015,17.24079l0.08823,-0.16535c0.55566,-0.95065 1.57116,-1.47476 2.86012,-1.47476c1.3614,0 2.4067,0.62403 2.7713,1.64011l-5.71965,0zm8.0574,6.4173l0.08999,-0.09349l-2.24369,-1.97842l-0.08239,0.09758c-0.73095,0.87177 -1.70613,1.33219 -2.81921,1.33219c-1.67341,0 -2.90803,-1.07744 -3.22413,-2.81337l-0.0485,-0.25709l9.22599,0l0,-0.58313c0,-4.02169 -2.25011,-6.52012 -5.87273,-6.52012c-3.69974,0 -6.38457,2.62873 -6.38457,6.25018c0,3.82478 2.70995,6.70885 6.30394,6.70885c1.93401,0 3.72954,-0.76075 5.0553,-2.14318l0,0z" id="Fill-20" fill="#062942"/>
     <path d="m82.54485,21.76626c0,-2.61763 -2.12975,-3.29074 -3.84056,-3.83179c-1.07802,-0.34123 -2.00939,-0.63571 -2.00939,-1.32693c0,-0.47562 0.39732,-0.77127 1.03654,-0.77127c0.39965,0 0.81684,0.149 1.03887,0.37103l0.1303,0.13029l2.10229,-2.07131l-0.13673,-0.13264c-0.81509,-0.78704 -1.81423,-1.16917 -3.05468,-1.16917c-2.51948,0 -4.1479,1.46132 -4.1479,3.72312c0,2.69709 2.07833,3.24399 3.74882,3.68338c1.17326,0.30909 2.10054,0.55274 2.10054,1.39529c0,0.71985 -0.67778,1.22293 -1.64829,1.22293c-0.95298,0 -1.56883,-0.50074 -1.56883,-1.2761l0,-0.18639l-3.11078,0l0,0.18639c0,2.4032 1.9679,4.1479 4.67961,4.1479c2.71229,0 4.68019,-1.72191 4.68019,-4.09473l0,0z" id="Fill-22" fill="#062942"/>
     <polygon id="Fill-24" fill="#FFFFFF" points="16.966064453125,5.029417783021927 16.966064453125,15.445029526948929 24.082748413085938,15.445029526948929 24.082748413085938,20.382891923189163 17.002288818359375,20.382891923189163 17.002288818359375,30.54666832089424 11.163444519042969,30.54666832089424 11.163444519042969,5.029417783021927 "/>
     <path d="m16.95578,11.22871l5.28551,0c2.71405,0 4.91508,-2.20045 4.91508,-4.91507l0,-1.28428l-5.28552,0c-2.71404,0 -4.91507,2.20045 -4.91507,4.91507l0,1.28428z" id="Fill-26" fill="#FFFFFF"/>
    </g>
   </g>
  </g>
 </g>
</svg>