<svg width="8" height="8" viewBox="0 0 8 8" fill="none" xmlns="http://www.w3.org/2000/svg">
<path fill-rule="evenodd" clip-rule="evenodd" d="M7.99992 3.9999C7.99992 4.13251 7.94724 4.25969 7.85347 4.35345C7.7597 4.44722 7.63253 4.4999 7.49992 4.4999H1.70692L3.85392 6.6459C3.90041 6.69239 3.93728 6.74758 3.96244 6.80832C3.9876 6.86906 4.00055 6.93416 4.00055 6.9999C4.00055 7.06564 3.9876 7.13074 3.96244 7.19148C3.93728 7.25222 3.90041 7.30741 3.85392 7.3539C3.80743 7.40039 3.75224 7.43726 3.6915 7.46242C3.63076 7.48758 3.56566 7.50053 3.49992 7.50053C3.43417 7.50053 3.36907 7.48758 3.30833 7.46242C3.24759 7.43726 3.19241 7.40039 3.14592 7.3539L0.145917 4.3539C0.0993539 4.30745 0.062411 4.25228 0.0372045 4.19153C0.0119981 4.13079 -0.000976563 4.06567 -0.000976562 3.9999C-0.000976563 3.93413 0.0119981 3.86901 0.0372045 3.80827C0.062411 3.74752 0.0993539 3.69234 0.145917 3.6459L3.14592 0.645899C3.2398 0.552013 3.36714 0.499268 3.49992 0.499268C3.63269 0.499268 3.76003 0.552013 3.85392 0.645899C3.9478 0.739786 4.00055 0.867124 4.00055 0.999899C4.00055 1.13268 3.9478 1.26001 3.85392 1.3539L1.70692 3.4999H7.49992C7.63253 3.4999 7.7597 3.55258 7.85347 3.64635C7.94724 3.74011 7.99992 3.86729 7.99992 3.9999Z" fill="#0075DD"/>
</svg>
