<?xml version="1.0" encoding="UTF-8"?>
<svg width="164px" height="24px" viewBox="0 0 164 24" version="1.1" xmlns="http://www.w3.org/2000/svg" xmlns:xlink="http://www.w3.org/1999/xlink">
    <title>most-pop</title>
    <g id="Page-1" stroke="none" stroke-width="1" fill="none" fill-rule="evenodd">
        <g id="pricing-page-monthly" transform="translate(-569.000000, -540.000000)">
            <g id="Group-7" transform="translate(202.000000, 509.000000)">
                <g id="most-pop" transform="translate(367.000000, 31.000000)">
                    <rect id="Rectangle" fill="#2672B9" x="0" y="0" width="164" height="24" rx="8"></rect>
                    <path d="M38.691,17 L38.691,9.408 L41.096,17 L41.915,17 L44.32,9.408 L44.32,17 L45.919,17 L45.919,8.329 L43.462,8.329 L41.668,13.919 L39.861,8.329 L37.417,8.329 L37.417,17 L38.691,17 Z M51.028,17.13 C53.238,17.13 54.746,15.349 54.746,12.736 C54.746,9.98 53.316,8.199 51.093,8.199 C48.909,8.199 47.375,10.032 47.375,12.632 C47.375,13.88 47.713,14.998 48.337,15.843 C48.948,16.675 49.897,17.13 51.028,17.13 Z M51.041,15.869 C49.767,15.869 49.065,14.751 49.065,12.684 C49.065,11.761 49.221,10.929 49.52,10.357 C49.806,9.785 50.378,9.46 51.08,9.46 C52.393,9.46 53.056,10.578 53.056,12.762 C53.056,13.633 52.926,14.348 52.666,14.868 C52.367,15.466 51.73,15.869 51.041,15.869 Z M58.815,17.13 C60.908,17.13 62.273,16.064 62.273,14.413 C62.273,13.88 62.13,13.412 61.857,13.009 C61.519,12.502 60.96,12.19 60.024,11.943 L58.542,11.579 C57.723,11.371 57.333,11.033 57.333,10.526 C57.333,9.876 57.918,9.46 58.815,9.46 C59.686,9.46 60.206,9.772 60.44,10.435 L61.922,10.071 C61.766,9.538 61.571,9.265 61.194,8.953 C60.57,8.459 59.738,8.199 58.802,8.199 C56.956,8.199 55.734,9.239 55.734,10.786 C55.734,11.345 55.903,11.852 56.241,12.281 C56.553,12.697 56.995,12.931 57.879,13.165 L59.543,13.594 C60.271,13.789 60.622,14.127 60.622,14.647 C60.622,15.401 59.959,15.869 58.906,15.869 C58.23,15.869 57.645,15.713 57.281,15.414 C57.034,15.219 56.917,15.024 56.787,14.582 L55.279,14.907 C55.5,15.609 55.721,15.96 56.15,16.311 C56.839,16.857 57.736,17.13 58.815,17.13 Z M66.641,17 L66.641,9.668 L68.942,9.668 L68.942,8.329 L62.663,8.329 L62.663,9.668 L64.964,9.668 L64.964,17 L66.641,17 Z M74.701,17 L74.701,13.568 L76.872,13.568 C78.51,13.568 79.68,12.476 79.68,10.929 C79.68,10.006 79.264,9.239 78.51,8.758 C77.99,8.446 77.522,8.329 76.69,8.329 L73.141,8.329 L73.141,17 L74.701,17 Z M76.547,12.229 L74.701,12.229 L74.701,9.629 L76.404,9.629 C77.002,9.629 77.405,9.746 77.652,9.98 C77.886,10.188 78.042,10.591 78.042,10.942 C78.042,11.735 77.47,12.229 76.547,12.229 Z M84.126,17.13 C86.336,17.13 87.844,15.349 87.844,12.736 C87.844,9.98 86.414,8.199 84.191,8.199 C82.007,8.199 80.473,10.032 80.473,12.632 C80.473,13.88 80.811,14.998 81.435,15.843 C82.046,16.675 82.995,17.13 84.126,17.13 Z M84.139,15.869 C82.865,15.869 82.163,14.751 82.163,12.684 C82.163,11.761 82.319,10.929 82.618,10.357 C82.904,9.785 83.476,9.46 84.178,9.46 C85.491,9.46 86.154,10.578 86.154,12.762 C86.154,13.633 86.024,14.348 85.764,14.868 C85.465,15.466 84.828,15.869 84.139,15.869 Z M90.847,17 L90.847,13.568 L93.018,13.568 C94.656,13.568 95.826,12.476 95.826,10.929 C95.826,10.006 95.41,9.239 94.656,8.758 C94.136,8.446 93.668,8.329 92.836,8.329 L89.287,8.329 L89.287,17 L90.847,17 Z M92.693,12.229 L90.847,12.229 L90.847,9.629 L92.55,9.629 C93.148,9.629 93.551,9.746 93.798,9.98 C94.032,10.188 94.188,10.591 94.188,10.942 C94.188,11.735 93.616,12.229 92.693,12.229 Z M99.999,17.13 C100.974,17.13 101.754,16.844 102.3,16.298 C102.872,15.726 103.028,15.206 103.028,13.906 L103.028,8.329 L101.793,8.329 L101.793,13.906 C101.793,14.491 101.676,14.972 101.481,15.232 C101.234,15.557 100.727,15.765 100.194,15.765 C99.7,15.765 99.232,15.583 98.972,15.31 C98.712,15.037 98.595,14.582 98.595,13.906 L98.595,8.329 L96.996,8.329 L96.996,14.01 C96.996,15.154 97.178,15.765 97.685,16.285 C98.205,16.831 99.011,17.13 99.999,17.13 Z M110.139,17 L110.139,15.583 L106.46,15.583 L106.46,8.329 L104.809,8.329 L104.809,17 L110.139,17 Z M111.699,17 L112.388,14.933 L115.716,14.933 L116.405,17 L118.082,17 L115.17,8.329 L113.246,8.329 L110.373,17 L111.699,17 Z M115.3,13.685 L112.778,13.685 L114.039,9.811 L115.3,13.685 Z M120.682,17 L120.682,13.438 L122.879,13.438 L124.231,17 L125.882,17 L124.361,13.178 C125.44,12.71 125.921,11.995 125.921,10.877 C125.921,10.084 125.648,9.447 125.141,9.005 C124.582,8.524 123.919,8.329 122.879,8.329 L119.122,8.329 L119.122,17 L120.682,17 Z M122.632,12.19 L120.682,12.19 L120.682,9.577 L122.762,9.577 C123.711,9.577 124.296,10.071 124.296,10.851 C124.296,11.709 123.698,12.19 122.632,12.19 Z" id="MOSTPOPULAR" fill="#FBFDFE" fill-rule="nonzero"></path>
                </g>
            </g>
        </g>
    </g>
</svg>