<?xml version="1.0" encoding="UTF-8"?>
<svg width="154px" height="24px" viewBox="0 0 154 24" version="1.1" xmlns="http://www.w3.org/2000/svg" xmlns:xlink="http://www.w3.org/1999/xlink">
    <title>plus-populaire</title>
    <g id="Page-1" stroke="none" stroke-width="1" fill="none" fill-rule="evenodd">
        <g id="pricing-page-yearly" transform="translate(-574.000000, -540.000000)">
            <g id="Group-7" transform="translate(202.000000, 509.000000)">
                <g id="plus-populaire" transform="translate(372.000000, 31.000000)">
                    <rect id="Rectangle" fill="#2672B9" x="0" y="0" width="154" height="24" rx="8"></rect>
                    <path d="M31.2785,16 L31.2785,12.568 L33.4495,12.568 C35.0875,12.568 36.2575,11.476 36.2575,9.929 C36.2575,9.006 35.8415,8.239 35.0875,7.758 C34.5675,7.446 34.0995,7.329 33.2675,7.329 L29.7185,7.329 L29.7185,16 L31.2785,16 Z M33.1245,11.229 L31.2785,11.229 L31.2785,8.629 L32.9815,8.629 C33.5795,8.629 33.9825,8.746 34.2295,8.98 C34.4635,9.188 34.6195,9.591 34.6195,9.942 C34.6195,10.735 34.0475,11.229 33.1245,11.229 Z M42.8355,16 L42.8355,14.583 L39.1565,14.583 L39.1565,7.329 L37.5055,7.329 L37.5055,16 L42.8355,16 Z M46.9045,16.13 C47.8795,16.13 48.6595,15.844 49.2055,15.298 C49.7775,14.726 49.9335,14.206 49.9335,12.906 L49.9335,7.329 L48.6985,7.329 L48.6985,12.906 C48.6985,13.491 48.5815,13.972 48.3865,14.232 C48.1395,14.557 47.6325,14.765 47.0995,14.765 C46.6055,14.765 46.1375,14.583 45.8775,14.31 C45.6175,14.037 45.5005,13.582 45.5005,12.906 L45.5005,7.329 L43.9015,7.329 L43.9015,13.01 C43.9015,14.154 44.0835,14.765 44.5905,15.285 C45.1105,15.831 45.9165,16.13 46.9045,16.13 Z M54.3405,16.13 C56.4335,16.13 57.7985,15.064 57.7985,13.413 C57.7985,12.88 57.6555,12.412 57.3825,12.009 C57.0445,11.502 56.4855,11.19 55.5495,10.943 L54.0675,10.579 C53.2485,10.371 52.8585,10.033 52.8585,9.526 C52.8585,8.876 53.4435,8.46 54.3405,8.46 C55.2115,8.46 55.7315,8.772 55.9655,9.435 L57.4475,9.071 C57.2915,8.538 57.0965,8.265 56.7195,7.953 C56.0955,7.459 55.2635,7.199 54.3275,7.199 C52.4815,7.199 51.2595,8.239 51.2595,9.786 C51.2595,10.345 51.4285,10.852 51.7665,11.281 C52.0785,11.697 52.5205,11.931 53.4045,12.165 L55.0685,12.594 C55.7965,12.789 56.1475,13.127 56.1475,13.647 C56.1475,14.401 55.4845,14.869 54.4315,14.869 C53.7555,14.869 53.1705,14.713 52.8065,14.414 C52.5595,14.219 52.4425,14.024 52.3125,13.582 L50.8045,13.907 C51.0255,14.609 51.2465,14.96 51.6755,15.311 C52.3645,15.857 53.2615,16.13 54.3405,16.13 Z M63.9475,16 L63.9475,12.568 L66.1185,12.568 C67.7565,12.568 68.9265,11.476 68.9265,9.929 C68.9265,9.006 68.5105,8.239 67.7565,7.758 C67.2365,7.446 66.7685,7.329 65.9365,7.329 L62.3875,7.329 L62.3875,16 L63.9475,16 Z M65.7935,11.229 L63.9475,11.229 L63.9475,8.629 L65.6505,8.629 C66.2485,8.629 66.6515,8.746 66.8985,8.98 C67.1325,9.188 67.2885,9.591 67.2885,9.942 C67.2885,10.735 66.7165,11.229 65.7935,11.229 Z M73.3725,16.13 C75.5825,16.13 77.0905,14.349 77.0905,11.736 C77.0905,8.98 75.6605,7.199 73.4375,7.199 C71.2535,7.199 69.7195,9.032 69.7195,11.632 C69.7195,12.88 70.0575,13.998 70.6815,14.843 C71.2925,15.675 72.2415,16.13 73.3725,16.13 Z M73.3855,14.869 C72.1115,14.869 71.4095,13.751 71.4095,11.684 C71.4095,10.761 71.5655,9.929 71.8645,9.357 C72.1505,8.785 72.7225,8.46 73.4245,8.46 C74.7375,8.46 75.4005,9.578 75.4005,11.762 C75.4005,12.633 75.2705,13.348 75.0105,13.868 C74.7115,14.466 74.0745,14.869 73.3855,14.869 Z M80.0935,16 L80.0935,12.568 L82.2645,12.568 C83.9025,12.568 85.0725,11.476 85.0725,9.929 C85.0725,9.006 84.6565,8.239 83.9025,7.758 C83.3825,7.446 82.9145,7.329 82.0825,7.329 L78.5335,7.329 L78.5335,16 L80.0935,16 Z M81.9395,11.229 L80.0935,11.229 L80.0935,8.629 L81.7965,8.629 C82.3945,8.629 82.7975,8.746 83.0445,8.98 C83.2785,9.188 83.4345,9.591 83.4345,9.942 C83.4345,10.735 82.8625,11.229 81.9395,11.229 Z M89.2455,16.13 C90.2205,16.13 91.0005,15.844 91.5465,15.298 C92.1185,14.726 92.2745,14.206 92.2745,12.906 L92.2745,7.329 L91.0395,7.329 L91.0395,12.906 C91.0395,13.491 90.9225,13.972 90.7275,14.232 C90.4805,14.557 89.9735,14.765 89.4405,14.765 C88.9465,14.765 88.4785,14.583 88.2185,14.31 C87.9585,14.037 87.8415,13.582 87.8415,12.906 L87.8415,7.329 L86.2425,7.329 L86.2425,13.01 C86.2425,14.154 86.4245,14.765 86.9315,15.285 C87.4515,15.831 88.2575,16.13 89.2455,16.13 Z M99.3855,16 L99.3855,14.583 L95.7065,14.583 L95.7065,7.329 L94.0555,7.329 L94.0555,16 L99.3855,16 Z M100.9455,16 L101.6345,13.933 L104.9625,13.933 L105.6515,16 L107.3285,16 L104.4165,7.329 L102.4925,7.329 L99.6195,16 L100.9455,16 Z M104.5465,12.685 L102.0245,12.685 L103.2855,8.811 L104.5465,12.685 Z M109.9285,16 L109.9285,7.329 L108.3685,7.329 L108.3685,16 L109.9285,16 Z M113.3995,16 L113.3995,12.438 L115.5965,12.438 L116.9485,16 L118.5995,16 L117.0785,12.178 C118.1575,11.71 118.6385,10.995 118.6385,9.877 C118.6385,9.084 118.3655,8.447 117.8585,8.005 C117.2995,7.524 116.6365,7.329 115.5965,7.329 L111.8395,7.329 L111.8395,16 L113.3995,16 Z M115.3495,11.19 L113.3995,11.19 L113.3995,8.577 L115.4795,8.577 C116.4285,8.577 117.0135,9.071 117.0135,9.851 C117.0135,10.709 116.4155,11.19 115.3495,11.19 Z M125.8275,16 L125.8275,14.661 L121.7585,14.661 L121.7585,12.23 L124.9825,12.23 L124.9825,10.969 L121.7585,10.969 L121.7585,8.616 L125.7755,8.616 L125.7755,7.329 L120.1985,7.329 L120.1985,16 L125.8275,16 Z" id="PLUSPOPULAIRE" fill="#FBFDFE" fill-rule="nonzero"></path>
                </g>
            </g>
        </g>
    </g>
</svg>