<svg width="1600" height="457" viewBox="0 0 1600 457" fill="none" xmlns="http://www.w3.org/2000/svg">
<path d="M0 0H1449C1531.84 0 1599 67.1573 1599 150V407H150C67.1573 407 0 339.843 0 257V0Z" fill="#0041B2"/>
<mask id="mask0_323_119" style="mask-type:alpha" maskUnits="userSpaceOnUse" x="0" y="0" width="1600" height="407">
<path d="M1600 407H140C62.6801 407 0 344.32 0 267V0H1600V407Z" fill="white"/>
</mask>
<g mask="url(#mask0_323_119)">
<path d="M1063 0H1600V355H1063V0Z" fill="#FFEFC3"/>
<path d="M136 0H1293.57C1387.7 0 1464 76.3041 1464 170.43V377H336C225.543 377 136 287.457 136 177V0Z" fill="#0075DD"/>
</g>
<path d="M1464 211H1600V457H1544C1499.82 457 1464 421.183 1464 377V211Z" fill="#002669"/>
<path d="M1381 424H1472.17C1501.9 424 1526 399.899 1526 370.17V279H1434.83C1405.1 279 1381 303.1 1381 332.828V424Z" fill="#FFC414"/>
<path d="M60 0H168.149C212.802 0 249 36.1984 249 80.8513V188.992H140.851C96.1984 188.992 60 152.794 60 108.141V0Z" fill="#2F9EFF"/>
<path d="M1285.01 280H1339.08C1362.24 280 1381.01 298.773 1381.01 321.93V376H1326.94C1303.78 376 1285.01 357.227 1285.01 334.07V280Z" fill="#2F9EFF"/>
</svg>
