<svg width="375" height="396" viewBox="0 0 375 396" fill="none" xmlns="http://www.w3.org/2000/svg">
<path d="M0 0H330V388H110C49.2487 388 0 338.751 0 278V0Z" fill="#0041B2"/>
<path d="M40 100H375V324H140C84.7715 324 40 279.228 40 224V100Z" fill="#002D79"/>
<path d="M40 0H375V184H140C84.7715 184 40 139.228 40 84V0Z" fill="#FFEFC3"/>
<path d="M20 0H355V368H120C64.7715 368 20 323.228 20 268V0Z" fill="#0075DD"/>
<path d="M282.34 396H340.597C359.594 396 374.994 380.6 374.994 361.603V303.346H316.736C297.739 303.346 282.34 318.745 282.34 337.742V396Z" fill="#FFC414"/>
<path d="M235 320.847H261.668C273.088 320.847 282.346 330.105 282.346 341.525V368.191H255.678C244.258 368.191 235 358.933 235 347.513V320.847Z" fill="#2F9EFF"/>
<path d="M0 0H53.7882C75.9966 0 94 18.0034 94 40.2118V93.996H40.2118C18.0034 93.996 0 75.9926 0 53.7843V0Z" fill="#2F9EFF"/>
</svg>
