<svg width="142" height="142" viewBox="0 0 142 142" fill="none" xmlns="http://www.w3.org/2000/svg">
<path fill-rule="evenodd" clip-rule="evenodd" d="M71.403 141.906C110.341 141.906 141.906 110.341 141.906 71.403C141.906 32.4649 110.341 0.899414 71.403 0.899414C32.4649 0.899414 0.899414 32.4649 0.899414 71.403C0.899414 110.341 32.4649 141.906 71.403 141.906ZM71.403 131.134C104.392 131.134 131.134 104.392 131.134 71.403C131.134 38.4144 104.392 11.6719 71.403 11.6719C38.4144 11.6719 11.6719 38.4144 11.6719 71.403C11.6719 104.392 38.4144 131.134 71.403 131.134Z" fill="#002057"/>
<path fill-rule="evenodd" clip-rule="evenodd" d="M71.4777 131.136C71.4531 131.136 71.4284 131.136 71.4037 131.136C46.5932 131.136 25.3158 116.01 16.2909 94.4756L6.12207 98.0808C16.6398 123.793 41.9065 141.908 71.4041 141.908C71.4287 141.908 71.4532 141.908 71.4777 141.908V131.136Z" fill="#0075DD"/>
</svg>
