<svg width="2229" height="2229" viewBox="0 0 2229 2229" fill="none" xmlns="http://www.w3.org/2000/svg">
<g opacity="0.4">
<path fill-rule="evenodd" clip-rule="evenodd" d="M1552.74 1803.33L816.945 2228.15L425.378 1549.93C127.127 1033.35 234.29 680.086 676.331 424.873L1412.11 0.0723877L1822.92 711.618C2121.17 1228.2 1994.79 1548.12 1552.74 1803.33ZM780.344 630.017L887.428 815.492C832.262 710.343 870.136 579.109 974.63 518.779L1183.3 398.306L1212.36 448.641C1273.78 555.036 1236.68 691.447 1129.54 753.309L921.029 873.69L1018.93 1043.25L1301.49 880.118L1414.59 1076.03L1133.47 1238.33L1366.29 1641.58L1134.46 1775.42L549.959 763.03L780.344 630.017Z" fill="#002057"/>
</g>
</svg>
