<svg width="1701" height="1701" viewBox="0 0 1701 1701" fill="none" xmlns="http://www.w3.org/2000/svg">
<path fill-rule="evenodd" clip-rule="evenodd" d="M482.614 1330.07L0.996618 925.942L373.492 482.019C657.218 143.888 929.98 128.998 1219.32 371.781L1700.92 775.893L1310.12 1241.63C1026.39 1579.77 771.951 1572.85 482.614 1330.07ZM1106.04 504.399L1004.19 625.787C1063.34 560.828 1164.17 553.955 1232.56 611.342L1369.14 725.948L1341.5 758.895C1283.06 828.536 1178.82 837.261 1108.69 778.413L972.21 663.895L879.08 774.882L1064.03 930.073L956.43 1058.3L772.422 903.904L550.948 1167.85L399.208 1040.52L955.244 377.864L1106.04 504.399Z" fill="#0075DD"/>
</svg>
