<svg width="14" height="19" viewBox="0 0 14 19" fill="none" xmlns="http://www.w3.org/2000/svg">
<path d="M7.19201 1.6C7.8977 1.60366 8.59751 1.72869 9.26081 1.96961C10.2761 2.34023 11.156 3.00852 11.7854 3.88715C12.4148 4.76578 12.7645 5.81386 12.7888 6.8944C12.9328 11.0416 10.0912 15.088 8.38722 17.128C8.24284 17.3021 8.06157 17.442 7.85652 17.5374C7.65148 17.6329 7.42779 17.6816 7.20161 17.68C6.96794 17.679 6.73731 17.6269 6.52588 17.5274C6.31445 17.4279 6.12733 17.2834 5.97761 17.104C4.33601 15.1312 1.5904 11.2288 1.5904 7.20161C1.59167 5.71636 2.18225 4.2923 3.23248 3.24208C4.28271 2.19185 5.70676 1.60127 7.19201 1.6ZM7.19201 1C5.54891 1.00254 3.97397 1.65705 2.81301 2.81981C1.65206 3.98256 0.999998 5.5585 1 7.20161C1 11.3392 3.688 15.28 5.52641 17.488C5.73109 17.7365 5.9884 17.9365 6.27976 18.0734C6.57112 18.2104 6.88926 18.281 7.21121 18.28C7.52522 18.2809 7.83556 18.2125 8.12013 18.0798C8.4047 17.947 8.65651 17.7532 8.85761 17.512C10.744 15.256 13.5472 11.1568 13.3984 6.87521C13.3718 5.67363 12.9826 4.50813 12.282 3.53163C11.5813 2.55513 10.6018 1.81321 9.47201 1.4032C8.74373 1.14037 7.97586 1.00401 7.20161 1H7.19201Z" fill="#0075DD" stroke="#0075DD" stroke-width="0.9"/>
<path d="M7.2013 10.283C8.60366 10.283 9.74049 9.14615 9.74049 7.74379C9.74049 6.34143 8.60366 5.20459 7.2013 5.20459C5.79894 5.20459 4.66211 6.34143 4.66211 7.74379C4.66211 9.14615 5.79894 10.283 7.2013 10.283Z" stroke="#0075DD" stroke-width="1.5" stroke-linecap="round" stroke-linejoin="round"/>
</svg>
