<?xml version="1.0" encoding="UTF-8"?>
<svg width="110px" height="76px" viewBox="0 0 110 76" version="1.1" xmlns="http://www.w3.org/2000/svg" xmlns:xlink="http://www.w3.org/1999/xlink">
    <title>arrow-yellow</title>
    <g id="Page-1" stroke="none" stroke-width="1" fill="none" fill-rule="evenodd">
        <g id="Sign-Up-Page-Copy" transform="translate(-593.000000, -492.000000)">
            <g id="arrow-yellow" transform="translate(593.772639, 492.507468)">
                <path d="M15.8671936,39.6742914 L26.2735948,20.0425967 L21.4902035,17.4925321 L6.22736143,46.3011996 L35.9467953,59.4925321 L38.1409867,54.5209926 L16.8502057,45.0759732 C35.0801213,38.8475127 67.1515696,32.5991297 102.120649,47.439492 L104.227361,42.4353522 C68.1336799,27.1159473 35.028716,33.2601905 15.8671936,39.6742914" id="Fill-1" fill="#001B40" opacity="0.3" transform="translate(55.227361, 38.492532) rotate(-20.000000) translate(-55.227361, -38.492532) "></path>
                <path d="M13.8671936,37.6742914 L24.2735948,18.0425967 L19.4902035,15.4925321 L4.22736143,44.3011996 L33.9467953,57.4925321 L36.1409867,52.5209926 L14.8502057,43.0759732 C33.0801213,36.8475127 65.1515696,30.5991297 100.120649,45.439492 L102.227361,40.4353522 C66.1336799,25.1159473 33.028716,31.2601905 13.8671936,37.6742914" id="Fill-1" fill="#FFD147" transform="translate(53.227361, 36.492532) rotate(-20.000000) translate(-53.227361, -36.492532) "></path>
            </g>
        </g>
    </g>
</svg>