<svg xmlns="http://www.w3.org/2000/svg" width="8" height="12" viewBox="0 0 8 12">
    <path fill="#0D83DD" fill-rule="evenodd" d="M.987 11.386a1.51 1.51 0 0 1-.263-.402 1.18 1.18 0 0 1-.098-.484c0-.175.033-.34.098-.492.066-.154.154-.29.263-.41l3.74-3.725L.987 2.15a1.274 1.274 0 0 1-.345-.886c0-.35.123-.648.37-.894C1.256.123 1.55 0 1.888 0a1.24 1.24 0 0 1 .886.36l4.184 4.184c.164.175.295.375.393.6.099.223.148.467.148.73 0 .262-.05.505-.148.73-.098.224-.23.423-.393.598l-4.184 4.184c-.12.109-.254.197-.402.262a1.18 1.18 0 0 1-.484.099 1.24 1.24 0 0 1-.492-.099 1.47 1.47 0 0 1-.41-.262"/>
</svg>
