<svg xmlns="http://www.w3.org/2000/svg" width="8" height="12" viewBox="0 0 8 12">
    <path fill="#fff" fill-rule="evenodd" d="M7.14 11.386c.108-.12.196-.255.262-.402A1.18 1.18 0 0 0 7.5 10.5c0-.175-.033-.34-.098-.492a1.462 1.462 0 0 0-.263-.41L3.4 5.873l3.74-3.724a1.274 1.274 0 0 0 .345-.886c0-.35-.123-.648-.37-.894A1.198 1.198 0 0 0 6.237 0a1.24 1.24 0 0 0-.886.36L1.167 4.545a2.108 2.108 0 0 0-.393.6 1.793 1.793 0 0 0-.148.73c0 .262.049.505.148.73.098.224.23.423.393.598l4.184 4.184c.12.109.254.197.402.262.147.066.309.099.484.099s.339-.033.492-.099a1.47 1.47 0 0 0 .41-.262"/>
</svg>
