<?xml version="1.0" encoding="UTF-8"?>
<svg width="7px" height="12px" viewBox="0 0 7 12" version="1.1" xmlns="http://www.w3.org/2000/svg" xmlns:xlink="http://www.w3.org/1999/xlink">
    <!-- Generator: sketchtool 54.1 (76490) - https://sketchapp.com -->
    <title>5D21D003-2776-4191-AE82-EBEA74AD65DF</title>
    <desc>Created with sketchtool.</desc>
    <g id="Adjustments-to-Logos-Post-Launch" stroke="none" stroke-width="1" fill="none" fill-rule="evenodd">
        <g id="Careers-listing-" transform="translate(-1020.000000, -1996.000000)" fill="#062942">
            <g id="Group-4" transform="translate(236.000000, 1931.000000)">
                <g id="Group-5" transform="translate(682.000000, 52.000000)">
                    <path d="M108.51336,13.36096 C108.62256,13.48144 108.71016,13.61536 108.77592,13.76296 C108.84144,13.91056 108.87432,14.07208 108.87432,14.2468 C108.87432,14.422 108.84144,14.58592 108.77592,14.73904 C108.71016,14.8924 108.62256,15.02896 108.51336,15.1492 L104.77272,18.87352 L108.51336,22.5976 C108.62256,22.71808 108.70752,22.852 108.76776,22.9996 C108.82776,23.1472 108.858,23.30872 108.858,23.48368 C108.858,23.83384 108.73488,24.13168 108.48864,24.37768 C108.24264,24.62392 107.94984,24.7468 107.61096,24.7468 C107.436,24.7468 107.27184,24.71416 107.11872,24.6484 C106.9656,24.58288 106.83432,24.49528 106.72512,24.38608 L102.54144,20.2024 C102.37752,20.02744 102.24624,19.82776 102.14784,19.6036 C102.0492,19.37944 102,19.13584 102,18.87352 C102,18.61096 102.0492,18.3676 102.14784,18.14344 C102.24624,17.91928 102.37752,17.7196 102.54144,17.54464 L106.72512,13.36096 C106.84536,13.25176 106.97928,13.16416 107.12712,13.0984 C107.27472,13.03288 107.436,13 107.61096,13 C107.78592,13 107.94984,13.03288 108.1032,13.0984 C108.25632,13.16416 108.39288,13.25176 108.51336,13.36096" id="Fill-4" transform="translate(105.437160, 18.873400) rotate(180.000000) translate(-105.437160, -18.873400) "></path>
                </g>
            </g>
        </g>
    </g>
</svg>