<?xml version="1.0" encoding="UTF-8"?>
<svg xmlns="http://www.w3.org/2000/svg" height="10" viewBox="0 0 10 10" width="10"><path d="m10 8.042c0 .211-.084.413-.235.56l-1.145 1.149a.812.812 0 0 1 -1.146 0l-2.474-2.482-2.477 2.496a.779.779 0 0 1 -1.118 0l-1.145-1.149a.816.816 0 0 1 0-1.148l2.445-2.481-2.47-2.482a.782.782 0 0 1 0-1.12l1.145-1.148a.779.779 0 0 1 1.118 0l2.475 2.481 2.477-2.481a.812.812 0 0 1 1.146 0l1.144 1.148a.782.782 0 0 1 0 1.12l-2.475 2.482 2.475 2.481a.782.782 0 0 1 .26.574z" fill="#CED4D8"/></svg>