<?xml version="1.0" encoding="UTF-8"?>
<svg width="14px" height="13px" viewBox="0 0 14 13" version="1.1" xmlns="http://www.w3.org/2000/svg" xmlns:xlink="http://www.w3.org/1999/xlink">
    <title></title>
    <g id="Page-1" stroke="none" stroke-width="1" fill="none" fill-rule="evenodd">
        <g id="pricing-page-monthly" transform="translate(-743.000000, -1880.000000)" fill="#0D83DD" fill-rule="nonzero">
            <g id="Group-7" transform="translate(202.000000, 509.000000)">
                <g id="Group-23" transform="translate(324.000000, 1252.000000)">
                    <path d="M224,131.927734 C224.865885,131.927734 225.681641,131.763672 226.447266,131.435547 C227.212891,131.098307 227.880534,130.644857 228.450195,130.075195 C229.019857,129.505534 229.473307,128.837891 229.810547,128.072266 C230.138672,127.306641 230.302734,126.490885 230.302734,125.625 C230.302734,124.759115 230.134115,123.943359 229.796875,123.177734 C229.46875,122.412109 229.019857,121.744466 228.450195,121.174805 C227.880534,120.605143 227.212891,120.15625 226.447266,119.828125 C225.681641,119.490885 224.865885,119.322266 224,119.322266 C223.134115,119.322266 222.318359,119.486328 221.552734,119.814453 C220.787109,120.151693 220.119466,120.605143 219.549805,121.174805 C218.980143,121.744466 218.526693,122.412109 218.189453,123.177734 C217.861328,123.943359 217.697266,124.759115 217.697266,125.625 C217.697266,126.490885 217.861328,127.306641 218.189453,128.072266 C218.526693,128.837891 218.980143,129.505534 219.549805,130.075195 C220.119466,130.644857 220.787109,131.098307 221.552734,131.435547 C222.318359,131.763672 223.134115,131.927734 224,131.927734 Z M224,130.875 C223.270833,130.875 222.591797,130.738281 221.962891,130.464844 C221.32487,130.191406 220.766602,129.81543 220.288086,129.336914 C219.80957,128.858398 219.433594,128.30013 219.160156,127.662109 C218.886719,127.033203 218.75,126.354167 218.75,125.625 C218.75,124.895833 218.886719,124.216797 219.160156,123.587891 C219.433594,122.94987 219.80957,122.391602 220.288086,121.913086 C220.766602,121.43457 221.32487,121.058594 221.962891,120.785156 C222.591797,120.511719 223.270833,120.375 224,120.375 C224.729167,120.375 225.408203,120.511719 226.037109,120.785156 C226.67513,121.058594 227.233398,121.43457 227.711914,121.913086 C228.19043,122.391602 228.566406,122.94987 228.839844,123.587891 C229.113281,124.216797 229.25,124.895833 229.25,125.625 C229.25,126.345052 229.113281,127.024089 228.839844,127.662109 C228.566406,128.30013 228.19043,128.858398 227.711914,129.336914 C227.233398,129.81543 226.67513,130.191406 226.037109,130.464844 C225.408203,130.738281 224.729167,130.875 224,130.875 Z M224,123.957031 C224.246094,123.957031 224.453451,123.872721 224.62207,123.704102 C224.79069,123.535482 224.875,123.328125 224.875,123.082031 C224.875,122.845052 224.79069,122.639974 224.62207,122.466797 C224.453451,122.29362 224.246094,122.207031 224,122.207031 C223.753906,122.207031 223.546549,122.29362 223.37793,122.466797 C223.20931,122.639974 223.125,122.845052 223.125,123.082031 C223.125,123.328125 223.20931,123.535482 223.37793,123.704102 C223.546549,123.872721 223.753906,123.957031 224,123.957031 Z M224,128.947266 C224.191406,128.947266 224.355469,128.878906 224.492188,128.742188 C224.628906,128.605469 224.697266,128.441406 224.697266,128.25 L224.697266,125.447266 C224.697266,125.255859 224.628906,125.091797 224.492188,124.955078 C224.355469,124.818359 224.191406,124.75 224,124.75 C223.808594,124.75 223.644531,124.818359 223.507812,124.955078 C223.371094,125.091797 223.302734,125.255859 223.302734,125.447266 L223.302734,128.25 C223.302734,128.441406 223.371094,128.605469 223.507812,128.742188 C223.644531,128.878906 223.808594,128.947266 224,128.947266 Z" id=""></path>
                </g>
            </g>
        </g>
    </g>
</svg>