<?xml version="1.0" encoding="UTF-8"?>
<svg width="122px" height="119px" viewBox="0 0 122 119" version="1.1" xmlns="http://www.w3.org/2000/svg" xmlns:xlink="http://www.w3.org/1999/xlink">
    <title>120x120-app-icon</title>
    <g id="Page-1" stroke="none" stroke-width="1" fill="none" fill-rule="evenodd">
        <g id="120x120-app-icon">
            <rect id="Rectangle" fill="#0075DD" x="0" y="0" width="122" height="119" rx="20"></rect>
            <path d="M78.9598635,36.7778636 C78.9598635,42.274317 74.5040137,46.7240677 69.0135895,46.7240677 L58.3336072,46.7240677 L58.3336072,55.2594986 L72.7397762,55.2594986 L72.7397762,65.2517171 L58.4049049,65.2517171 L58.4049049,85.8211953 L46.5927565,85.8211953 L46.5927565,34.1788047 L58.3336072,34.1788047 L58.3336072,43.5435073 C58.6324505,38.3201067 62.9659314,34.1788047 68.2601605,34.1788047 L78.9598635,34.1788047 L78.9598635,36.7778636 Z M54.354592,24 C37.5910499,24 24,37.5919657 24,54.359941 L24,96 L65.6403514,96 C82.4079388,96 96,82.4080343 96,65.6456212 L96,24 L54.354592,24 Z" id="Fill-1" fill="#FFFFFF"></path>
        </g>
    </g>
</svg>