<svg version="1.1"
	 xmlns="http://www.w3.org/2000/svg" xmlns:xlink="http://www.w3.org/1999/xlink" xmlns:a="http://ns.adobe.com/AdobeSVGViewerExtensions/3.0/"
	 x="0px" y="0px" width="12.6px" height="12.6px" viewBox="0 0 12.6 12.6" style="enable-background:new 0 0 12.6 12.6;"
	 xml:space="preserve">
<style type="text/css">
	.st0{fill:#A6A6A6;}
	.st1{fill:#FFFFFF;}
</style>
<defs>
</defs>
<path class="st0" d="M6.3,12.6c0.9,0,1.7-0.2,2.4-0.5c0.8-0.3,1.4-0.8,2-1.4s1-1.2,1.4-2c0.3-0.8,0.5-1.6,0.5-2.4s-0.2-1.7-0.5-2.4
	c-0.3-0.8-0.8-1.4-1.3-2s-1.2-1-2-1.3C8,0.2,7.2,0,6.3,0S4.6,0.2,3.9,0.5c-0.8,0.3-1.4,0.8-2,1.4s-1,1.2-1.4,2C0.2,4.6,0,5.4,0,6.3
	S0.2,8,0.5,8.8c0.3,0.8,0.8,1.4,1.4,2s1.2,1,2,1.4C4.6,12.4,5.4,12.6,6.3,12.6z"/>
<path class="st1" d="M6.3,4.6c0.2,0,0.5-0.1,0.6-0.3S7.2,4,7.2,3.8c0-0.2-0.1-0.4-0.3-0.6S6.5,2.9,6.3,2.9S5.8,3,5.7,3.1
	S5.4,3.5,5.4,3.8c0,0.2,0.1,0.5,0.3,0.6S6.1,4.6,6.3,4.6z"/>
<path class="st1" d="M6.3,9.7c0.2,0,0.4-0.1,0.5-0.2S7,9.2,7,9V6.2C7,6,6.9,5.9,6.8,5.7S6.5,5.5,6.3,5.5S5.9,5.6,5.8,5.7
	S5.6,6,5.6,6.2V9c0,0.2,0.1,0.4,0.2,0.5S6.1,9.7,6.3,9.7z"/>
</svg>
