<svg width="41" height="38" viewBox="0 0 41 38" fill="none" xmlns="http://www.w3.org/2000/svg">
<path d="M40 19.7917C40 30.2851 31.3033 38 19.6078 38C7.9124 38 0 28.7017 0 18.2083C0 7.71492 7.9124 0 19.6078 0C33.7255 0.791667 40 9.29826 40 19.7917Z" fill="#FFC414"/>
<path d="M36.1462 13.7375H10.4369C8.05543 13.7375 6.12549 15.6501 6.12549 18.0112V30.423C6.12549 32.7831 8.05543 34.6957 10.4369 34.6957H36.1462C38.5277 34.6957 40.4587 32.7831 40.4587 30.423V18.0112C40.4587 15.6501 38.5277 13.7375 36.1462 13.7375ZM36.1462 15.0263C37.8067 15.0263 39.1582 16.3646 39.1582 18.0112V30.423C39.1582 32.0675 37.8067 33.4069 36.1462 33.4069H10.4369C8.77643 33.4069 7.42599 32.0675 7.42599 30.423V18.0112C7.42599 16.3646 8.77643 15.0263 10.4369 15.0263H36.1462Z" fill="#001B40"/>
<path d="M5.19273 26.9233C3.17331 26.9233 1.53052 25.2953 1.53052 23.294V10.8812C1.53052 8.88098 3.17331 7.25295 5.19273 7.25295H30.9021C32.9215 7.25295 34.5632 8.88098 34.5632 10.8812V23.294C34.5632 25.2953 32.9215 26.9233 30.9021 26.9233H5.19273Z" fill="#FFC414"/>
<path d="M30.9026 6.6087H5.19325C2.81178 6.6087 0.881836 8.52233 0.881836 10.8824V23.2952C0.881836 25.6553 2.81178 27.5679 5.19325 27.5679H30.9026C33.2841 27.5679 35.215 25.6553 35.215 23.2952V10.8824C35.215 8.52233 33.2841 6.6087 30.9026 6.6087ZM30.9026 7.89751C32.5631 7.89751 33.9145 9.23685 33.9145 10.8824V23.2952C33.9145 24.9397 32.5631 26.2791 30.9026 26.2791H5.19325C3.53278 26.2791 2.18234 24.9397 2.18234 23.2952V10.8824C2.18234 9.23685 3.53278 7.89751 5.19325 7.89751H30.9026Z" fill="#001B40"/>
<path d="M18.642 17.8431H17.5881C15.9828 17.8431 14.676 16.5481 14.676 14.9562C14.676 13.3653 15.9828 12.0703 17.5881 12.0703H19.0031C20.0445 12.0703 21.0193 12.6239 21.5489 13.5127C21.732 13.8189 21.6301 14.2128 21.32 14.3943C21.011 14.5747 20.6126 14.4747 20.4294 14.1674C20.1329 13.6684 19.5857 13.3591 19.0031 13.3591H17.5881C16.6996 13.3591 15.9765 14.0757 15.9765 14.9562C15.9765 15.8377 16.6996 16.5543 17.5881 16.5543H18.642C19.001 16.5543 19.2923 16.843 19.2923 17.1987C19.2923 17.5544 19.001 17.8431 18.642 17.8431Z" fill="#001B40"/>
<path d="M19.0489 22.3265H17.635C16.6186 22.3265 15.6864 21.8192 15.1391 20.9696C14.9466 20.6696 15.0351 20.2706 15.3378 20.0788C15.6396 19.8891 16.0422 19.9767 16.2357 20.2768C16.5426 20.7531 17.0649 21.0377 17.635 21.0377H19.0489C19.9374 21.0377 20.6605 20.3221 20.6605 19.4406C20.6605 18.5601 19.9374 17.8425 19.0489 17.8425H17.8514C17.4915 17.8425 17.2012 17.5538 17.2012 17.198C17.2012 16.8434 17.4915 16.5536 17.8514 16.5536H19.0489C20.6543 16.5536 21.961 17.8486 21.961 19.4406C21.961 21.0315 20.6543 22.3265 19.0489 22.3265Z" fill="#001B40"/>
<path d="M18.1588 24.0558C17.7999 24.0558 17.5085 23.7671 17.5085 23.4113V21.6802C17.5085 21.3255 17.7999 21.0358 18.1588 21.0358C18.5177 21.0358 18.809 21.3255 18.809 21.6802V23.4113C18.809 23.7671 18.5177 24.0558 18.1588 24.0558Z" fill="#001B40"/>
</svg>
