<svg width="40" height="37" viewBox="0 0 40 37" fill="none" xmlns="http://www.w3.org/2000/svg">
<path d="M40 17.25C40 7.30887 31.9555 0 21.1373 0C10.319 0 3 8.80887 3 18.75C3 28.6911 10.319 36 21.1373 36C34.1961 35.25 40 27.1911 40 17.25Z" fill="#FFC414"/>
<path d="M10.9982 16.4998C4.9242 16.4998 0 21.5858 0 27.8598C0 29.8308 1.12782 31.6528 2.90953 32.3578C4.53226 32.9998 7.06085 33.4998 10.9982 33.4998C14.9366 33.4998 17.4642 32.9998 19.0869 32.3578C20.8696 31.6528 21.9964 29.8308 21.9964 27.8598C21.9964 21.5858 17.0722 16.4998 10.9982 16.4998ZM10.9982 17.7498C16.3733 17.7498 20.7466 22.2848 20.7466 27.8598C20.7466 29.3538 19.8948 30.6938 18.627 31.1948C16.8583 31.8948 14.2917 32.2498 10.9982 32.2498C7.70475 32.2498 5.13816 31.8948 3.36945 31.1948C2.10166 30.6938 1.2498 29.3538 1.2498 27.8598C1.2498 22.2848 5.62308 17.7498 10.9982 17.7498Z" fill="#001B40"/>
<path d="M11.0004 21.3752C6.65913 21.3752 3.12671 17.8422 3.12671 13.5002C3.12671 9.1582 6.65913 5.62519 11.0004 5.62519C15.3417 5.62519 18.8741 9.1582 18.8741 13.5002C18.8741 17.8422 15.3417 21.3752 11.0004 21.3752Z" fill="#FFC414"/>
<path d="M11.0015 5C6.30831 5 2.50293 8.806 2.50293 13.5C2.50293 18.194 6.30831 22 11.0015 22C15.6948 22 19.5002 18.194 19.5002 13.5C19.5002 8.806 15.6948 5 11.0015 5ZM11.0015 6.25C14.9989 6.25 18.2504 9.502 18.2504 13.5C18.2504 17.498 14.9989 20.75 11.0015 20.75C7.0042 20.75 3.75273 17.498 3.75273 13.5C3.75273 9.502 7.0042 6.25 11.0015 6.25Z" fill="#001B40"/>
<path d="M24.0008 36.3752C20.3134 36.3752 17.4189 35.9822 15.4002 35.2072C13.7425 34.5702 12.6277 32.8912 12.6277 31.0282C12.6277 24.7412 17.7299 19.6252 24.0008 19.6252C30.2718 19.6252 35.374 24.7412 35.374 31.0282C35.374 32.8912 34.2592 34.5702 32.6014 35.2072C30.5828 35.9822 27.6882 36.3752 24.0008 36.3752Z" fill="#FFC414"/>
<path d="M24.0017 19C17.3758 19 12.0037 24.385 12.0037 31.028C12.0037 33.115 13.2335 35.044 15.1771 35.791C16.9479 36.47 19.7064 37 24.0017 37C28.298 37 31.0556 36.47 32.8263 35.791C34.77 35.044 35.9998 33.115 35.9998 31.028C35.9998 24.385 30.6276 19 24.0017 19ZM24.0017 20.25C29.9287 20.25 34.75 25.085 34.75 31.028C34.75 32.634 33.7961 34.079 32.3773 34.624C30.4317 35.371 27.6131 35.75 24.0017 35.75C20.3903 35.75 17.5718 35.371 15.6261 34.624C14.2073 34.079 13.2535 32.634 13.2535 31.028C13.2535 25.085 18.0747 20.25 24.0017 20.25Z" fill="#001B40"/>
<path d="M24.0015 23.875C19.1083 23.875 15.1279 19.894 15.1279 15C15.1279 10.106 19.1083 6.125 24.0015 6.125C28.8947 6.125 32.875 10.106 32.875 15C32.875 19.894 28.8947 23.875 24.0015 23.875Z" fill="#FFC414"/>
<path d="M24.0009 5.49979C18.7547 5.49979 14.5024 9.75279 14.5024 14.9998C14.5024 20.2468 18.7547 24.4998 24.0009 24.4998C29.247 24.4998 33.4993 20.2468 33.4993 14.9998C33.4993 9.75279 29.247 5.49979 24.0009 5.49979ZM24.0009 6.74979C28.5492 6.74979 32.2496 10.4508 32.2496 14.9998C32.2496 19.5488 28.5492 23.2498 24.0009 23.2498C19.4526 23.2498 15.7522 19.5488 15.7522 14.9998C15.7522 10.4508 19.4526 6.74979 24.0009 6.74979Z" fill="#001B40"/>
</svg>
