<svg width="45" height="40" viewBox="0 0 45 40" fill="none" xmlns="http://www.w3.org/2000/svg">
<path d="M45 20.8333C45 31.879 35.2162 40 22.0588 40C8.90145 40 0 30.2124 0 19.1667C0 8.12097 8.90145 0 22.0588 0C37.9412 0.833333 45 9.78764 45 20.8333Z" fill="#FFC414"/>
<path d="M22.5 5.68325C13.4013 5.68325 6 13.0341 6 22.0708C6 31.1065 13.4013 38.4583 22.5 38.4583C31.5977 38.4583 39 31.1065 39 22.0708C39 13.0341 31.5977 5.68325 22.5 5.68325ZM22.5 6.96352C30.8872 6.96352 37.7109 13.7408 37.7109 22.0708C37.7109 30.4008 30.8872 37.1781 22.5 37.1781C14.1128 37.1781 7.28906 30.4008 7.28906 22.0708C7.28906 13.7408 14.1128 6.96352 22.5 6.96352Z" fill="#001B40"/>
<path d="M22.5 6.85567C22.1442 6.85567 21.8555 6.56889 21.8555 6.21553V2.61027C21.8555 2.25692 22.1442 1.97013 22.5 1.97013C22.8558 1.97013 23.1445 2.25692 23.1445 2.61027V6.21553C23.1445 6.56889 22.8558 6.85567 22.5 6.85567Z" fill="#001B40"/>
<path d="M25.5937 2.73804H19.4062C19.0505 2.73804 18.7617 2.45126 18.7617 2.0979C18.7617 1.74454 19.0505 1.45776 19.4062 1.45776H25.5937C25.9495 1.45776 26.2383 1.74454 26.2383 2.0979C26.2383 2.45126 25.9495 2.73804 25.5937 2.73804Z" fill="#001B40"/>
<path d="M27.6562 23.2238H22.5C22.1442 23.2238 21.8555 22.937 21.8555 22.5837V13.3657C21.8555 13.0123 22.1442 12.7256 22.5 12.7256C22.8558 12.7256 23.1445 13.0123 23.1445 13.3657V21.9436H27.6562C28.012 21.9436 28.3008 22.2303 28.3008 22.5837C28.3008 22.937 28.012 23.2238 27.6562 23.2238Z" fill="#001B40"/>
</svg>
