<svg width="40" height="38" viewBox="0 0 40 38" fill="none" xmlns="http://www.w3.org/2000/svg">
<path d="M40 19.7917C40 30.2851 31.3033 38 19.6078 38C7.9124 38 0 28.7017 0 18.2083C0 7.71492 7.9124 0 19.6078 0C33.7255 0.791667 40 9.29826 40 19.7917Z" fill="#FFC414"/>
<path d="M13.5236 38C9.58963 38 6.12316 36.7817 4.69272 34.8973C4.48989 34.6286 4.53914 34.244 4.80282 34.0371C5.06747 33.8301 5.44609 33.8811 5.64988 34.1479C6.84079 35.7194 10.0049 36.7738 13.5236 36.7738C15.7489 36.7738 17.8497 36.3579 19.4404 35.6036C19.7418 35.4574 20.1011 35.5928 20.2431 35.8989C20.3841 36.2059 20.2537 36.5708 19.9514 36.714C18.2051 37.5429 15.9218 38 13.5236 38Z" fill="#001B40"/>
<path d="M5.17121 34.5227C4.80418 34.0401 4.60425 33.5162 4.60425 32.9689L5.17121 34.5227Z" fill="white"/>
<path d="M5.17159 35.1356C4.99097 35.1356 4.81229 35.0532 4.69349 34.8973C4.23277 34.292 4 33.6436 4 32.9688C4 32.6303 4.27044 32.3557 4.60366 32.3557C4.93688 32.3557 5.20733 32.6303 5.20733 32.9688C5.20733 33.3651 5.35607 33.7623 5.64872 34.1478C5.85252 34.4166 5.80423 34.8011 5.53958 35.0081C5.43044 35.0944 5.30005 35.1356 5.17159 35.1356Z" fill="#001B40"/>
<path d="M13.3876 31.7684C9.16199 31.7684 5.50718 30.3627 4.29309 28.2714C4.12406 27.9791 4.21968 27.6034 4.50751 27.4317C4.7934 27.2601 5.16333 27.3572 5.33429 27.6485C6.30691 29.3259 9.69418 30.5422 13.3876 30.5422C14.0541 30.5422 14.7224 30.504 15.3725 30.4284C15.7009 30.3843 16.0032 30.6315 16.0408 30.9679C16.0785 31.3034 15.8409 31.6085 15.5096 31.6467C14.8142 31.7272 14.1004 31.7684 13.3876 31.7684Z" fill="#001B40"/>
<path d="M13.5234 24.9084C9.03796 24.9084 5.22281 23.3202 4.24632 21.0465C4.11207 20.7365 4.25212 20.3755 4.55733 20.2392C4.86351 20.1058 5.21894 20.245 5.35223 20.556C6.11816 22.3383 9.63099 23.6822 13.5234 23.6822C13.8653 23.6822 14.2014 23.6724 14.5318 23.6538C14.8573 23.6184 15.1499 23.8921 15.1702 24.2305C15.1895 24.568 14.9345 24.8583 14.6023 24.8779C14.2478 24.8985 13.8885 24.9084 13.5234 24.9084Z" fill="#001B40"/>
<path d="M13.5599 9.2261C8.5857 9.2261 5.24382 11.1938 5.24382 13.0311C5.24382 14.8684 8.5857 16.8361 13.5599 16.8361C18.5341 16.8361 21.8759 14.8684 21.8759 13.0311C21.8759 11.1938 18.5341 9.2261 13.5599 9.2261ZM13.5599 18.0623C8.21964 18.0623 4.0365 15.8522 4.0365 13.0311C4.0365 10.21 8.21964 7.99995 13.5599 7.99995C18.9001 7.99995 23.0833 10.21 23.0833 13.0311C23.0833 15.8522 18.9001 18.0623 13.5599 18.0623Z" fill="#001B40"/>
<path d="M25.4671 15.7871C22.978 15.7871 20.6001 16.6895 18.706 18.3679C16.6304 20.2071 15.3835 22.7565 15.1961 25.5482C14.8078 31.3102 19.1069 36.3197 24.7784 36.7131C27.5195 36.9063 30.1805 35.998 32.2571 34.1588C34.3327 32.3195 35.5796 29.7691 35.768 26.9774C35.9553 24.1867 35.0629 21.4882 33.2529 19.3782C31.4428 17.2702 28.9326 16.0038 26.1857 15.8126C25.9452 15.7959 25.7056 15.7871 25.4671 15.7871ZM25.498 37.9647C25.2314 37.9647 24.9639 37.9559 24.6963 37.9373C18.3603 37.4968 13.558 31.9017 13.9917 25.4639C14.2013 22.3465 15.594 19.4979 17.9121 17.4428C20.2311 15.3898 23.1983 14.3775 26.2678 14.5884C29.3373 14.8022 32.1412 16.2167 34.1627 18.5729C36.1842 20.9281 37.182 23.9434 36.9724 27.0618C36.7618 30.1801 35.3691 33.0278 33.051 35.0828C30.9348 36.9563 28.2787 37.9647 25.498 37.9647Z" fill="#001B40"/>
<path d="M4.60366 33.2982H4.6027C4.26947 33.2973 4 33.0226 4 32.6842L4.03767 13.5022C4.03863 13.1648 4.30811 12.8901 4.64133 12.8901H4.64326C4.97552 12.8911 5.24596 13.1667 5.24499 13.5042L5.20732 32.6861C5.20732 33.0246 4.93688 33.2982 4.60366 33.2982Z" fill="#001B40"/>
<path d="M26.0175 26.879H24.8991C23.2417 26.879 21.8933 25.5096 21.8933 23.8263C21.8933 22.1431 23.2417 20.7727 24.8991 20.7727H26.4C27.475 20.7727 28.4824 21.3574 29.0301 22.2981C29.2 22.5904 29.1044 22.9661 28.8176 23.1387C28.5317 23.3084 28.1598 23.2142 27.9908 22.9229C27.6595 22.353 27.05 21.9989 26.4 21.9989H24.8991C23.9071 21.9989 23.1006 22.8179 23.1006 23.8263C23.1006 24.8337 23.9071 25.6528 24.8991 25.6528H26.0175C26.3508 25.6528 26.6212 25.9275 26.6212 26.2659C26.6212 26.6043 26.3508 26.879 26.0175 26.879Z" fill="#001B40"/>
<path d="M26.4476 31.758H24.9457C23.8958 31.758 22.9328 31.2205 22.3697 30.32C22.191 30.0345 22.2741 29.6559 22.5552 29.4744C22.8352 29.292 23.209 29.3773 23.3887 29.6628C23.7296 30.2072 24.3121 30.5319 24.9457 30.5319H26.4476C27.4385 30.5319 28.246 29.7128 28.246 28.7054C28.246 27.698 27.4385 26.8789 26.4476 26.8789H25.1755C24.8423 26.8789 24.5719 26.6042 24.5719 26.2658C24.5719 25.9284 24.8423 25.6527 25.1755 25.6527H26.4476C28.105 25.6527 29.4533 27.0221 29.4533 28.7054C29.4533 30.3886 28.105 31.758 26.4476 31.758Z" fill="#001B40"/>
<path d="M25.5034 21.9967C25.1702 21.9967 24.8998 21.722 24.8998 21.3836V19.5002C24.8998 19.1618 25.1702 18.8871 25.5034 18.8871C25.8367 18.8871 26.1071 19.1618 26.1071 19.5002V21.3836C26.1071 21.722 25.8367 21.9967 25.5034 21.9967Z" fill="#001B40"/>
<path d="M25.5034 33.639C25.1702 33.639 24.8998 33.3643 24.8998 33.0259V31.1425C24.8998 30.8041 25.1702 30.5294 25.5034 30.5294C25.8367 30.5294 26.1071 30.8041 26.1071 31.1425V33.0259C26.1071 33.3643 25.8367 33.639 25.5034 33.639Z" fill="#001B40"/>
</svg>
