<svg width="42" height="39" viewBox="0 0 42 39" fill="none" xmlns="http://www.w3.org/2000/svg">
<path d="M42 19.7917C42 30.2851 33.3033 38 21.6078 38C9.9124 38 2 28.7017 2 18.2083C2 7.71492 9.9124 0 21.6078 0C35.7255 0.791667 42 9.29826 42 19.7917Z" fill="#FFC414"/>
<path d="M26.5698 9.0736C28.2215 9.52978 32.2234 10.967 35.3283 14.7518C36.0359 13.8199 36.4188 12.6882 36.4188 11.5001C36.4188 8.55899 34.0785 6.16533 31.2021 6.16533C29.2347 6.16533 27.4507 7.30834 26.5698 9.0736ZM24.6344 35.4828L24.8028 35.9964C25.1396 37.0266 26.0797 37.7186 27.141 37.7186H30.5807C31.9398 37.7186 33.0462 36.5879 33.0462 35.1978V31.6458C33.0462 31.4469 33.1344 31.2511 33.2948 31.0922C35.6701 28.7457 36.978 25.7657 36.978 22.7016C36.978 20.4074 36.2243 18.1336 34.8001 16.1264C31.8095 12.1182 27.566 10.6738 26.1067 10.2781L26.1057 10.2802L25.5565 10.1469C24.2396 9.82502 22.9246 9.64357 21.6468 9.60564L21.4112 9.59846L21.2389 9.43444C19.506 7.78502 16.9102 5.81986 14.3866 5.81986C12.9724 5.81986 11.9842 6.69122 11.9842 7.93777V11.5144C11.9842 11.7697 11.8409 12.0096 11.5993 12.1582C9.81136 13.2458 8.34709 14.597 7.24563 16.1756C7.08928 16.3991 6.86879 16.5273 6.63928 16.5273H5.78337C3.77989 16.5273 2.15026 18.1931 2.15026 20.2433V24.8C2.15026 26.8492 3.77989 28.5161 5.78337 28.5161H6.40175C6.63727 28.5161 6.86879 28.6565 7.02213 28.8902C7.59441 29.7698 8.29096 30.5971 9.09376 31.3485C9.28017 31.5238 9.3834 31.7462 9.3834 31.9728V35.1978C9.3834 36.5879 10.4889 37.7186 11.8479 37.7186H15.2886C16.3339 37.7186 17.268 37.04 17.6148 36.0302L17.7852 35.5341L18.2933 35.6079C20.2056 35.8847 22.216 35.8703 24.1113 35.5669L24.6344 35.4828ZM30.5807 39H27.141C25.7189 39 24.442 38.1779 23.8186 36.9036C22.1048 37.1343 20.3178 37.1476 18.593 36.9405C17.9615 38.1902 16.6907 39 15.2886 39H11.8479C9.79833 39 8.13061 37.2942 8.13061 35.1978V32.184C7.36089 31.4479 6.68237 30.6463 6.10909 29.7975H5.78337C3.08935 29.7975 0.897461 27.5555 0.897461 24.8V20.2433C0.897461 17.4868 3.08935 15.2459 5.78337 15.2459H6.35765C7.49619 13.6672 8.96547 12.3079 10.7314 11.1977V7.93777C10.7314 5.96851 12.2688 4.53846 14.3866 4.53846C17.2299 4.53846 20.0222 6.5641 21.9194 8.33244C23.0359 8.38062 24.1754 8.53029 25.319 8.77837C26.3573 6.42776 28.6554 4.88393 31.2021 4.88393C34.7701 4.88393 37.6715 7.85268 37.6715 11.5001C37.6715 13.0921 37.1193 14.6011 36.1061 15.8015C37.4972 17.9235 38.2308 20.2977 38.2308 22.7016C38.2308 26.0578 36.8357 29.3105 34.299 31.8795V35.1978C34.299 37.2942 32.6313 39 30.5807 39Z" fill="#001B40"/>
<path d="M19.0311 29.1529C18.8266 29.1529 18.6352 29.0504 18.5179 28.8792L15.6545 24.6926C15.4571 24.4025 15.5253 24.0037 15.8089 23.8007C16.0935 23.5957 16.4834 23.6675 16.6818 23.9586L19.0311 27.3938L26.3003 16.7612C26.4988 16.4721 26.8896 16.3993 27.1733 16.6044C27.4569 16.8063 27.526 17.2061 27.3276 17.4962L19.5442 28.8792C19.427 29.0504 19.2355 29.1529 19.0311 29.1529Z" fill="#001B40"/>
</svg>
