<svg class="mr-1" width="18" height="14" viewBox="0 0 18 14" fill="none" xmlns="http://www.w3.org/2000/svg">
	<path d="M8.89126 14C7.08176 14 5.38049 13.3053 4.10128 12.0431C2.7829 10.7422 2.07857 9.01272 2.11882 7.17327C2.12317 6.98819 2.28906 6.85301 2.46636 6.8455C2.65346 6.84926 2.80248 7.00268 2.79868 7.18775C2.76224 8.84267 3.39586 10.3989 4.58207 11.5689C5.73293 12.704 7.26341 13.3295 8.89126 13.3295C10.5191 13.3295 12.0496 12.704 13.2004 11.5689C13.3332 11.438 13.5485 11.438 13.6812 11.5689C13.8139 11.6997 13.8139 11.9122 13.6812 12.0431C12.402 13.3053 10.7008 14 8.89126 14Z" fill="white" />
	<path d="M0.339545 10.2139C0.282437 10.2139 0.224785 10.2 0.171485 10.1699C0.00831997 10.0782 -0.0482439 9.87326 0.0447601 9.71233L2.15775 6.05864C2.2154 5.95886 2.32091 5.89502 2.43676 5.88966C2.55369 5.88 2.6641 5.9374 2.731 6.03181L5.18826 9.46986C5.2965 9.62113 5.25951 9.83034 5.10614 9.93709C4.95276 10.0433 4.74065 10.0074 4.63296 9.85609L2.48353 6.84881L0.634873 10.0449C0.572327 10.1533 0.457567 10.2139 0.339545 10.2139Z" fill="white" />
	<path d="M15.5413 7.1543H15.5337C15.3461 7.15001 15.197 6.99712 15.2014 6.81151C15.2373 5.15713 14.6042 3.60092 13.4174 2.43094C12.2666 1.29584 10.7361 0.67035 9.10826 0.67035C7.48042 0.67035 5.94993 1.29584 4.79907 2.43094C4.66637 2.56184 4.45099 2.56184 4.31828 2.43094C4.18557 2.30005 4.18557 2.08762 4.31828 1.95673C5.59749 0.69449 7.29876 -0.000199795 9.10826 -0.000199795C10.9178 -0.000199795 12.619 0.69449 13.8982 1.95673C15.2172 3.2576 15.9215 4.98708 15.8812 6.82653C15.8769 7.00892 15.7257 7.1543 15.5413 7.1543Z" fill="white" />
	<path d="M15.5473 8.11053C15.4369 8.11053 15.333 8.05796 15.2693 7.96838L12.8121 4.5298C12.7038 4.37852 12.7408 4.16931 12.8942 4.0631C13.047 3.95635 13.2592 3.99229 13.3679 4.14356L15.5168 7.15084L17.3649 3.95474C17.4579 3.7938 17.6652 3.73801 17.8289 3.82975C17.992 3.92148 18.0486 4.1264 17.9556 4.28733L15.8426 7.94156C15.7849 8.04133 15.68 8.10463 15.5636 8.11053C15.5581 8.11053 15.5527 8.11053 15.5473 8.11053Z" fill="white" />
</svg>