<svg width="33" height="39" viewBox="0 0 33 39" fill="none" xmlns="http://www.w3.org/2000/svg">
<path d="M94.737 41.2083C97.6321 64.5 76.2781 86 47.7793 86C19.2805 86 0 64.9566 0 41.2083C0 17.4601 19.2805 0 47.7793 0C82.1804 1.79167 91.0933 11.8936 94.737 41.2083Z" fill="#FFC414"></path>
<path d="M16.5 4.68325C7.40128 4.68325 0 12.0341 0 21.0708C0 30.1065 7.40128 37.4583 16.5 37.4583C25.5977 37.4583 33 30.1065 33 21.0708C33 12.0341 25.5977 4.68325 16.5 4.68325ZM16.5 5.96352C24.8872 5.96352 31.7109 12.7408 31.7109 21.0708C31.7109 29.4008 24.8872 36.1781 16.5 36.1781C8.11284 36.1781 1.28906 29.4008 1.28906 21.0708C1.28906 12.7408 8.11284 5.96352 16.5 5.96352Z" fill="#001B40"/>
<path d="M16.5 5.85567C16.1442 5.85567 15.8555 5.56889 15.8555 5.21553V1.61027C15.8555 1.25692 16.1442 0.970135 16.5 0.970135C16.8558 0.970135 17.1445 1.25692 17.1445 1.61027V5.21553C17.1445 5.56889 16.8558 5.85567 16.5 5.85567Z" fill="#001B40"/>
<path d="M19.5937 1.73804H13.4062C13.0505 1.73804 12.7617 1.45126 12.7617 1.0979C12.7617 0.744542 13.0505 0.45776 13.4062 0.45776H19.5937C19.9495 0.45776 20.2383 0.744542 20.2383 1.0979C20.2383 1.45126 19.9495 1.73804 19.5937 1.73804Z" fill="#001B40"/>
<path d="M21.6562 22.2238H16.5C16.1442 22.2238 15.8555 21.937 15.8555 21.5837V12.3657C15.8555 12.0123 16.1442 11.7256 16.5 11.7256C16.8558 11.7256 17.1445 12.0123 17.1445 12.3657V20.9436H21.6562C22.012 20.9436 22.3008 21.2303 22.3008 21.5837C22.3008 21.937 22.012 22.2238 21.6562 22.2238Z" fill="#001B40"/>
</svg>
