<?xml version="1.0" encoding="UTF-8"?>
<svg width="12px" height="19px" viewBox="0 0 12 19" version="1.1" xmlns="http://www.w3.org/2000/svg" xmlns:xlink="http://www.w3.org/1999/xlink">
    <title>arrow-right</title>
    <g id="Page-1" stroke="none" stroke-width="1" fill="none" fill-rule="evenodd">
        <g id="Home-Page-Mobile-Copy-2" transform="translate(-351.000000, -1060.000000)" fill="#80BAEE" fill-rule="nonzero">
            <g id="Group-7" transform="translate(338.000000, 1031.000000)">
                <path d="M15.9179688,47.9648438 C16.1888021,47.9648438 16.4427083,47.9140625 16.6796875,47.8125 C16.9166667,47.7109375 17.1197917,47.5755208 17.2890625,47.40625 L23.7890625,40.9316406 C24.0429688,40.6608073 24.2460938,40.351888 24.3984375,40.0048828 C24.5507812,39.6578776 24.6269531,39.28125 24.6269531,38.875 C24.6269531,38.46875 24.5507812,38.0921224 24.3984375,37.7451172 C24.2460938,37.398112 24.0429688,37.0891927 23.7890625,36.8183594 L17.3144531,30.34375 C17.1282552,30.1744792 16.9208984,30.0390625 16.6923828,29.9375 C16.4638672,29.8359375 16.2141927,29.7851562 15.9433594,29.7851562 C15.4016927,29.7851562 14.9404297,29.9755859 14.5595703,30.3564453 C14.1787109,30.7373047 13.9882812,31.1985677 13.9882812,31.7402344 C13.9882812,32.0110677 14.0390625,32.2607422 14.140625,32.4892578 C14.2421875,32.7177734 14.3776042,32.9251302 14.546875,33.1113281 L20.3105469,38.875 L14.546875,44.6386719 C14.3606771,44.8248698 14.2167969,45.0364583 14.1152344,45.2734375 C14.0136719,45.5104167 13.9628906,45.7643229 13.9628906,46.0351562 C13.9628906,46.3059896 14.0136719,46.5556641 14.1152344,46.7841797 C14.2167969,47.0126953 14.3606771,47.2200521 14.546875,47.40625 C14.7161458,47.5755208 14.9192708,47.7109375 15.15625,47.8125 C15.3932292,47.9140625 15.6471354,47.9648438 15.9179688,47.9648438 Z" id="arrow-right"></path>
            </g>
        </g>
    </g>
</svg>