<?xml version="1.0" encoding="UTF-8"?>
<svg width="12px" height="13px" viewBox="0 0 12 13" version="1.1" xmlns="http://www.w3.org/2000/svg" xmlns:xlink="http://www.w3.org/1999/xlink">
    <g stroke="none" stroke-width="1" fill="none" fill-rule="evenodd">
        <path d="M3.92578125,12.421875 C4.1484375,12.421875 4.35644531,12.3720703 4.54980469,12.2724609 C4.74316406,12.1728516 4.8984375,12.0351562 5.015625,11.859375 L5.03320312,11.859375 L11.6074219,2.4375 C11.6777344,2.33203125 11.7363281,2.21484375 11.7832031,2.0859375 C11.8300781,1.95703125 11.8535156,1.81640625 11.8535156,1.6640625 C11.8535156,1.30078125 11.7216797,0.987304688 11.4580078,0.723632812 C11.1943359,0.459960938 10.875,0.328125 10.5,0.328125 C10.2773438,0.328125 10.0693359,0.377929688 9.87597656,0.477539062 C9.68261719,0.577148438 9.52148438,0.71484375 9.39257812,0.890625 L3.92578125,8.73046875 L2.60742188,6.84960937 C2.47851562,6.66210938 2.31738281,6.515625 2.12402344,6.41015625 C1.93066406,6.3046875 1.71679688,6.25195312 1.48242188,6.25195312 C1.11914062,6.25195312 0.805664062,6.38378906 0.541992188,6.64746094 C0.278320312,6.91113281 0.146484375,7.23046875 0.146484375,7.60546875 C0.146484375,7.7578125 0.166992188,7.8984375 0.208007812,8.02734375 C0.249023438,8.15625 0.310546875,8.27929688 0.392578125,8.39648438 L2.81835938,11.859375 C2.93554688,12.0351562 3.09082031,12.1728516 3.28417969,12.2724609 C3.47753906,12.3720703 3.69140625,12.421875 3.92578125,12.421875 Z" id="" fill="#fff" fill-rule="nonzero"></path>
    </g>
</svg>
