<?xml version="1.0" encoding="UTF-8"?> <svg xmlns="http://www.w3.org/2000/svg" xmlns:xlink="http://www.w3.org/1999/xlink" width="19px" height="19px" viewBox="0 0 19 19" version="1.1"><title></title><g id="Page-1" stroke="none" stroke-width="1" fill="none" fill-rule="evenodd"><g id="UK" transform="translate(-175.000000, -202.000000)" fill="#001B40" fill-rule="nonzero"><g id="Group-7" transform="translate(175.376093, 202.746094)"><path d="M9.00390625,18.0078125 C10.2408854,18.0078125 11.40625,17.7701823 12.5,17.2949219 C13.59375,16.8196615 14.547526,16.1751302 15.3613281,15.3613281 C16.1751302,14.547526 16.8196615,13.59375 17.2949219,12.5 C17.7701823,11.40625 18.0078125,10.2408854 18.0078125,9.00390625 C18.0078125,7.76692708 17.7701823,6.6015625 17.2949219,5.5078125 C16.8196615,4.4140625 16.1751302,3.46028646 15.3613281,2.64648438 C14.547526,1.83268229 13.59375,1.18815104 12.5,0.712890625 C11.40625,0.237630208 10.2408854,0 9.00390625,0 C7.76692708,0 6.6015625,0.237630208 5.5078125,0.712890625 C4.4140625,1.18815104 3.46028646,1.83268229 2.64648438,2.64648438 C1.83268229,3.46028646 1.18815104,4.4140625 0.712890625,5.5078125 C0.237630208,6.6015625 0,7.76692708 0,9.00390625 C0,10.2408854 0.237630208,11.40625 0.712890625,12.5 C1.18815104,13.59375 1.83268229,14.547526 2.64648438,15.3613281 C3.46028646,16.1751302 4.4140625,16.8196615 5.5078125,17.2949219 C6.6015625,17.7701823 7.76692708,18.0078125 9.00390625,18.0078125 Z M9.00390625,16.5039062 C7.96223958,16.5039062 6.98893229,16.3085938 6.08398438,15.9179688 C5.17903646,15.5273438 4.38476562,14.9902344 3.70117188,14.3066406 C3.01757812,13.6230469 2.48046875,12.828776 2.08984375,11.9238281 C1.69921875,11.0188802 1.50390625,10.0455729 1.50390625,9.00390625 C1.50390625,7.96223958 1.69921875,6.98893229 2.08984375,6.08398438 C2.48046875,5.17903646 3.01757812,4.38476562 3.70117188,3.70117188 C4.38476562,3.01757812 5.17903646,2.48046875 6.08398438,2.08984375 C6.98893229,1.69921875 7.96223958,1.50390625 9.00390625,1.50390625 C10.0455729,1.50390625 11.0188802,1.69921875 11.9238281,2.08984375 C12.828776,2.48046875 13.6230469,3.01757812 14.3066406,3.70117188 C14.9902344,4.38476562 15.5273438,5.17903646 15.9179688,6.08398438 C16.3085938,6.98893229 16.5039062,7.96223958 16.5039062,9.00390625 C16.5039062,10.0325521 16.3085938,11.0026042 15.9179688,11.9140625 C15.5273438,12.8255208 14.9902344,13.6230469 14.3066406,14.3066406 C13.6230469,14.9902344 12.828776,15.5273438 11.9238281,15.9179688 C11.0188802,16.3085938 10.0455729,16.5039062 9.00390625,16.5039062 Z M8.2421875,12.5 C8.359375,12.5 8.47330729,12.4707031 8.58398438,12.4121094 C8.69466146,12.3535156 8.78255208,12.2786458 8.84765625,12.1875 L12.8710938,6.4453125 C12.9101562,6.38020833 12.9427083,6.31184896 12.96875,6.24023438 C12.9947917,6.16861979 13.0078125,6.08723958 13.0078125,5.99609375 C13.0078125,5.78776042 12.9329427,5.61197917 12.7832031,5.46875 C12.6334635,5.32552083 12.4544271,5.25390625 12.2460938,5.25390625 C12.1289062,5.25390625 12.014974,5.28320312 11.9042969,5.34179688 C11.7936198,5.40039062 11.7057292,5.47526042 11.640625,5.56640625 L8.2421875,10.4492188 L7.36328125,9.19921875 C7.29817708,9.10807292 7.21354167,9.03320312 7.109375,8.97460938 C7.00520833,8.91601562 6.88802083,8.88671875 6.7578125,8.88671875 C6.54947917,8.88671875 6.37044271,8.96158854 6.22070312,9.11132812 C6.07096354,9.26106771 5.99609375,9.44010417 5.99609375,9.6484375 C5.99609375,9.7265625 6.00911458,9.80143229 6.03515625,9.87304688 C6.06119792,9.94466146 6.09375,10.0130208 6.1328125,10.078125 L7.6171875,12.1875 C7.68229167,12.2786458 7.77018229,12.3535156 7.88085938,12.4121094 C7.99153646,12.4707031 8.11197917,12.5 8.2421875,12.5 Z" id=""></path></g></g></g></svg> 