<?xml version="1.0" encoding="UTF-8"?>
<svg width="38px" height="38px" viewBox="0 0 38 38" version="1.1" xmlns="http://www.w3.org/2000/svg" xmlns:xlink="http://www.w3.org/1999/xlink">
    <title>icon-check</title>
    <g id="Page-1" stroke="none" stroke-width="1" fill="none" fill-rule="evenodd">
        <g id="pricing-page-monthly" transform="translate(-773.000000, -2218.000000)" fill="#85C525" fill-rule="nonzero" stroke="#85C525" stroke-width="0.5">
            <g id="Group-9" transform="translate(304.000000, 2219.000000)">
                <path d="M488,-0.25 C493.030449,-0.25 497.329796,1.53393448 500.897931,5.10206946 C504.466066,8.67020444 506.25,12.9695513 506.25,18 C506.25,23.0304487 504.466066,27.3297956 500.897931,30.8979305 C497.329796,34.4660655 493.030449,36.25 488,36.25 C482.969551,36.25 478.670204,34.4660655 475.102069,30.8979305 C471.533934,27.3297956 469.75,23.0304487 469.75,18 C469.75,12.9695513 471.533934,8.67020444 475.102069,5.10206946 C478.670204,1.53393448 482.969551,-0.25 488,-0.25 Z M488,1.72115385 C483.511243,1.72115385 479.675967,3.31220155 476.494084,6.49408439 C473.312202,9.67596722 471.721154,13.5112431 471.721154,18 C471.721154,22.4887569 473.312202,26.3240328 476.494084,29.5059156 C479.675967,32.6877984 483.511243,34.2788462 488,34.2788462 C492.488757,34.2788462 496.324033,32.6877984 499.505916,29.5059156 C502.687798,26.3240328 504.278846,22.4887569 504.278846,18 C504.278846,13.5112431 502.687798,9.67596722 499.505916,6.49408439 C496.324033,3.31220155 492.488757,1.72115385 488,1.72115385 Z M495.268525,10.8092025 L497.179821,12.7204979 L485.401171,24.5870475 C485.027914,24.9084504 484.750474,25 484.451923,25 C484.149725,25 483.871517,24.8999129 483.619888,24.693008 L483.4963,24.5806228 L478.47337,19.5576923 L480.384615,17.6464466 L484.451217,21.7130486 L495.268525,10.8092025 Z" id="icon-check"></path>
            </g>
        </g>
    </g>
</svg>