<?xml version="1.0" encoding="UTF-8"?>
<svg width="155px" height="38px" viewBox="0 0 155 38" version="1.1" xmlns="http://www.w3.org/2000/svg" xmlns:xlink="http://www.w3.org/1999/xlink">
    <title>freshbooks-logo</title>
    <defs>
        <polygon id="path-1" points="0 0.0654992614 35.5763241 0.0654992614 35.5763241 35.6418817 0 35.6418817"></polygon>
    </defs>
    <g id="Final" stroke="none" stroke-width="1" fill="none" fill-rule="evenodd">
        <g id="Solutions" transform="translate(-119.000000, -60.000000)">
            <g id="freshbooks-logo" transform="translate(119.000000, 60.000000)">
                <g id="Group-3" transform="translate(0.000000, 0.518969)">
                    <mask id="mask-2" fill="white">
                        <use xlink:href="#path-1"></use>
                    </mask>
                    <g id="Clip-2"></g>
                    <path d="M-0.000116858629,35.6419402 L18.5500219,35.6419402 C29.694245,35.6419402 35.5763241,30.9798652 35.5763241,17.9764213 L35.5763241,0.0654992614 L17.0267696,0.0654992614 C5.88254651,0.0654992614 -0.000116858629,5.56661921 -0.000116858629,18.5700631 L-0.000116858629,35.6419402 Z" id="Fill-1" fill="#3E94F7" mask="url(#mask-2)"></path>
                </g>
                <polygon id="Fill-4" fill="#062942" points="46.9056512 19.3895927 51.8072864 19.3895927 51.8072864 16.3021877 46.9056512 16.3021877 46.9056512 13.0505964 52.4435817 13.0505964 52.4435817 9.75284586 43.3268557 9.75284586 43.3268557 26.3134664 46.9056512 26.3134664"></polygon>
                <path d="M54.1282741,13.7286686 L54.1282741,26.0227806 L57.3383806,26.0227806 L57.3383806,19.2917236 C57.3383806,18.9101802 57.3383806,17.749774 57.8104895,17.1987855 C58.6033753,16.3042327 59.6638673,16.3649992 59.7813102,16.3743479 L59.916282,16.3854495 L59.916282,13.3371922 L59.8035134,13.3266749 C58.8563742,13.2396152 57.9553942,13.6012927 57.5878738,13.9875104 C57.5206801,14.0547041 57.4575764,14.1148863 57.3985628,14.1715628 C57.2828728,14.2814099 57.1765314,14.3824926 57.0766173,14.5011041 L57.0766173,13.7286686 L54.1282741,13.7286686 Z" id="Fill-6" fill="#062942"></path>
                <path d="M86.4646927,26.0224884 L86.4646927,19.2715655 C86.4646927,17.436885 87.3154235,16.3740558 88.7995281,16.3547741 C89.3896641,16.3401668 89.9131908,16.5458379 90.308173,16.9343929 C90.8194295,17.4380536 91.0899572,18.232108 91.0899572,19.2312492 L91.0899572,26.0224884 L94.2398815,26.0224884 L94.2398815,18.3653268 C94.2398815,15.6734883 92.4127969,13.5712016 89.895662,13.366699 C88.4974485,13.239323 87.3475596,13.5963262 86.4740414,14.4301125 L86.4448267,14.4587428 L86.4448267,9.65994325 L83.2949024,9.65994325 L83.3153526,26.0224884 L86.4646927,26.0224884 Z" id="Fill-8" fill="#062942"></path>
                <path d="M99.1599219,22.87309 L99.1599219,18.9729332 L100.888261,18.9729332 C101.980305,18.9729332 103.283279,19.4432892 103.362158,20.7708032 C103.40189,21.3369833 103.271593,21.7722817 102.964255,22.101823 C102.486887,22.6136638 101.578896,22.87309 100.264236,22.87309 L99.1599219,22.87309 Z M99.140056,15.8639094 L99.140056,12.8092249 L100.545865,12.8092249 C101.089842,12.8092249 102.36068,12.943028 102.415603,14.1793923 C102.428458,14.6257922 102.301666,14.9903912 102.03815,15.2615032 C101.554355,15.7593209 100.718816,15.8639094 100.102387,15.8639094 L99.140056,15.8639094 Z M100.506133,26.02243 C103.902629,26.02243 106.006669,24.5745516 106.589794,21.8353853 C106.950887,20.1350923 105.955835,17.6880726 104.131672,17.0786549 L104.034095,17.0447659 L104.1381,16.9799093 C105.41887,16.1607303 105.838393,14.4943263 105.582472,13.3444374 C105.084654,10.9681172 103.19505,9.65988482 100.264236,9.65988482 L95.9094992,9.65988482 L95.9299494,26.02243 L100.506133,26.02243 Z" id="Fill-10" fill="#062942"></path>
                <path d="M113.821473,23.3766338 C112.932763,23.4052642 112.080864,23.0652056 111.417107,22.4218988 C110.735821,21.7610633 110.344344,20.8472288 110.344344,19.9158655 C110.344344,18.0443746 111.795144,16.5333925 113.646769,16.4749632 C113.670141,16.4749632 113.693513,16.4743789 113.717469,16.4743789 C115.553318,16.4743789 117.066053,17.9596521 117.104616,19.8194571 C117.16363,21.6897795 115.659659,23.3193731 113.821473,23.3766338 M118.224706,24.5773562 C119.488532,23.3415762 120.21364,21.6424517 120.21364,19.9158655 C120.21364,18.1851892 119.492622,16.4837276 118.235808,15.2479476 C116.984836,14.0180105 115.352905,13.3583436 113.642095,13.3863896 C110.14101,13.4272902 107.276221,16.3382386 107.255661,19.874965 C107.235321,23.3964998 110.062715,26.3436744 113.560878,26.4453414 C113.609375,26.44651 113.657871,26.4470943 113.706951,26.4470943 C115.388547,26.4470943 116.987757,25.786843 118.224706,24.5773562" id="Fill-12" fill="#062942"></path>
                <path d="M129.943757,22.2765267 C129.318563,22.9583968 128.479518,23.3487046 127.582044,23.3767507 C126.693334,23.405381 125.841435,23.0653224 125.177678,22.4220157 C124.495808,21.7611801 124.104915,20.8473456 124.104915,19.9159824 C124.104915,18.0444914 125.555715,16.5329251 127.406756,16.47508 C127.430712,16.47508 127.454084,16.4744958 127.47804,16.4744958 C129.313889,16.4744958 130.826624,17.9597689 130.865187,19.8189897 C130.893817,20.7252284 130.566029,21.5981623 129.943757,22.2765267 M131.985277,24.5774731 C133.249103,23.3416931 133.974211,21.6425686 133.974211,19.9159824 C133.974211,18.1853061 133.253777,16.4838444 131.996963,15.2480644 C130.745407,14.0181274 129.117566,13.3584604 127.402666,13.3865065 C123.901581,13.427407 121.036792,16.3377712 121.016232,19.8750818 C120.995892,23.3966166 123.823286,26.3437912 127.321449,26.4454582 C127.369945,26.4466268 127.418442,26.4472111 127.467522,26.4472111 C129.149118,26.4472111 130.748328,25.7863756 131.985277,24.5774731" id="Fill-14" fill="#062942"></path>
                <polygon id="Fill-16" fill="#062942" points="137.893299 20.4514286 138.170254 20.2112841 138.416825 20.2112841 141.981598 26.0834302 145.403218 26.0834302 140.540731 18.042388 145.346542 13.7063486 141.044976 13.7063486 137.925435 16.5109556 137.893299 16.5109556 137.893299 9.59935205 134.87484 9.59935205 134.87484 26.0834302 137.893299 26.0834302"></polygon>
                <path d="M154.417284,22.3506735 C154.417284,19.7336245 152.28812,19.0599345 150.57731,18.518879 L150.53933,18.6374905 L150.57731,18.518879 C149.498704,18.1776518 148.567341,17.8831681 148.567341,17.1919493 C148.567341,16.7163347 148.96466,16.4206824 149.604461,16.4206824 C150.003534,16.4206824 150.420719,16.5696771 150.643335,16.7917085 L150.774216,16.9220059 L152.875919,14.8506867 L152.73861,14.7180521 C151.923521,13.9310093 150.92438,13.5488816 149.683925,13.5488816 C147.164453,13.5488816 145.536028,15.0101987 145.536028,17.2719975 C145.536028,19.9690946 147.613775,20.515993 149.284853,20.9553814 C150.458698,21.2644725 151.386556,21.5081228 151.386556,22.3506735 C151.386556,23.0705226 150.708191,23.573599 149.737096,23.573599 C148.784114,23.573599 148.168853,23.0728598 148.168853,22.2975028 L148.168853,22.1111133 L145.057492,22.1111133 L145.057492,22.2975028 C145.057492,24.7007005 147.025976,26.4453998 149.737096,26.4453998 C152.449385,26.4453998 154.417284,24.7234879 154.417284,22.3506735" id="Fill-18" fill="#062942"></path>
                <path d="M63.8501524,17.8252646 L63.9383807,17.6599097 C64.4940435,16.7092647 65.5095449,16.1851538 66.7984956,16.1851538 C68.1598986,16.1851538 69.2051991,16.8091789 69.569798,17.8252646 L63.8501524,17.8252646 Z M71.9075549,24.2425562 L71.997536,24.1490693 L69.7538503,22.1706528 L69.671465,22.2682297 C68.9405143,23.1399951 67.965329,23.6004181 66.8522506,23.6004181 C65.178835,23.6004181 63.9442236,22.5229815 63.628121,20.7870466 L63.5796247,20.5299576 L72.8056134,20.5299576 L72.8056134,19.946833 C72.8056134,15.9251433 70.5555005,13.4267059 66.932883,13.4267059 C63.2331388,13.4267059 60.5483119,16.0554407 60.5483119,19.6768896 C60.5483119,23.5016725 63.2582635,26.3857435 66.8522506,26.3857435 C68.7862609,26.3857435 70.5817937,25.6249938 71.9075549,24.2425562 L71.9075549,24.2425562 Z" id="Fill-20" fill="#062942"></path>
                <path d="M82.5448452,22.3507319 C82.5448452,19.7330986 80.4150967,19.0599929 78.7042864,18.5189375 C77.6262656,18.1777103 76.6949023,17.8832265 76.6949023,17.1920077 C76.6949023,16.7163931 77.0922216,16.4207408 77.7314383,16.4207408 C78.1310948,16.4207408 78.5482801,16.5697355 78.7703115,16.7917669 L78.9006089,16.9220643 L81.0028956,14.8507451 L80.866171,14.7181106 C80.0510821,13.9310677 79.0519408,13.54894 77.8114865,13.54894 C75.2920145,13.54894 73.6635895,15.0102571 73.6635895,17.2720559 C73.6635895,19.969153 75.7419202,20.5160514 77.4124143,20.9554399 C78.5856749,21.2645309 79.5129481,21.5081812 79.5129481,22.3507319 C79.5129481,23.0705811 78.8351681,23.5736574 77.8646572,23.5736574 C76.9116751,23.5736574 76.2958301,23.0729182 76.2958301,22.2975612 L76.2958301,22.1111717 L73.1850534,22.1111717 L73.1850534,22.2975612 C73.1850534,24.7007589 75.1529527,26.4454582 77.8646572,26.4454582 C80.5769459,26.4454582 82.5448452,24.7235464 82.5448452,22.3507319 L82.5448452,22.3507319 Z" id="Fill-22" fill="#062942"></path>
                <polygon id="Fill-24" fill="#FFFFFF" points="16.9660616 5.61388852 16.9660616 16.0294981 24.0827521 16.0294981 24.0827521 20.9673595 17.0022878 20.9673595 17.0022878 31.1311387 11.1634464 31.1311387 11.1634464 5.61388852"></polygon>
                <path d="M16.955778,11.8131803 L22.2412938,11.8131803 C24.9553354,11.8131803 27.1563677,9.61273237 27.1563677,6.89810642 L27.1563677,5.61383009 L21.8708519,5.61383009 C19.1568103,5.61383009 16.955778,7.81427807 16.955778,10.528904 L16.955778,11.8131803 Z" id="Fill-26" fill="#FFFFFF"></path>
            </g>
        </g>
    </g>
</svg>