<?xml version="1.0" encoding="UTF-8"?>
<svg width="211px" height="50px" viewBox="0 0 211 50" version="1.1" xmlns="http://www.w3.org/2000/svg" xmlns:xlink="http://www.w3.org/1999/xlink">
    <title>Group 9</title>
    <defs>
        <polygon id="path-1" points="0 0 211 0 211 41 0 41"></polygon>
    </defs>
    <g id="Page-1" stroke="none" stroke-width="1" fill="none" fill-rule="evenodd">
        <g id="Group-9" transform="translate(0.000000, -0.000000)">
            <g id="Group-3" transform="translate(0.000000, 5.000000)">
                <mask id="mask-2" fill="white">
                    <use xlink:href="#path-1"></use>
                </mask>
                <g id="Clip-2"></g>
                <path d="M8.68624944,0.448289616 C15.6497713,0.430589022 155.872355,1.21907001 166.786822,0.470817644 C177.701289,-0.277434719 199.530223,0.0379576747 205.48343,0.255192232 C211.435106,0.470817644 211.020264,13.2007627 210.978933,18.4433567 C210.939133,23.6843415 211.435106,41.6568805 192.089098,40.1603758 C172.740029,38.6622619 79.9685885,38.8376587 57.6436812,40.2472696 C35.3203047,41.6568805 14.9685739,40.7638051 6.49264054,40.1668123 C0.377171218,39.7339524 -0.235141104,19.3959704 0.0587688106,14.6988766 C0.401663711,9.26640348 3.22901586,0.462771919 8.68624944,0.448289616" id="Fill-1" fill="#001B40" mask="url(#mask-2)"></path>
            </g>
        </g>
    </g>
</svg>
