<svg xmlns="http://www.w3.org/2000/svg" xmlns:xlink="http://www.w3.org/1999/xlink" width="140" height="140" viewBox="0 0 140 140">
    <defs>
        <path id="a" d="M0 .851h139.149V140H0z"/>
        <path id="c" d="M0 141.894h139.149V2.745H0z"/>
    </defs>
    <g fill="none" fill-rule="evenodd" transform="translate(0 -2)">
        <g transform="translate(0 1.894)">
            <mask id="b" fill="#fff">
                <use xlink:href="#a"/>
            </mask>
            <path fill="#9ACDF1" d="M139.149 70.426c0 38.423-31.151 69.575-69.574 69.575C31.149 140 0 108.849 0 70.426 0 32 31.149.85 69.575.85c38.423 0 69.574 31.151 69.574 69.577" mask="url(#b)"/>
        </g>
        <path fill="#359CE4" d="M105.658 96.46H32.092c-1.2 0-2.174-.97-2.174-2.173V46.003a2.28 2.28 0 0 1 2.279-2.281h73.357a2.279 2.279 0 0 1 2.278 2.281v48.284a2.174 2.174 0 0 1-2.174 2.174"/>
        <mask id="d" fill="#fff">
            <use xlink:href="#c"/>
        </mask>
        <path fill="#FFF" d="M32.897 92.554h71.958V47.101H32.897z" mask="url(#d)"/>
        <path fill="#062942" d="M26.037 105.15a1.42 1.42 0 0 0 1.422 1.421h82.806c.785 0 1.422-.637 1.422-1.422h-85.65z" mask="url(#d)"/>
        <path fill="#359CE4" d="M111.285 105.47H26.467a.385.385 0 0 1-.354-.54l3.39-7.727c.253-.574.821-.942 1.444-.942h75.855c.63 0 1.195.368 1.447.942l3.39 7.727a.385.385 0 0 1-.354.54" mask="url(#d)"/>
        <path fill="#0D83DD" d="M104.84 102.533H32.623l1.807-4.489h68.608zM69.546 45.376a.669.669 0 1 1-1.338.002.669.669 0 0 1 1.338-.002" mask="url(#d)"/>
        <path fill="#359CE4" d="M38.832 96.889h60.09V95.1h-60.09zM68.717 51.258c-2.451 0-4.831.48-7.068 1.43a18.14 18.14 0 0 0-5.773 3.887 18.149 18.149 0 0 0-3.89 5.773 18.05 18.05 0 0 0-1.428 7.069c0 2.454.48 4.831 1.428 7.068a18.088 18.088 0 0 0 3.89 5.773 18.202 18.202 0 0 0 5.773 3.893 18.037 18.037 0 0 0 7.068 1.424c2.454 0 4.832-.477 7.069-1.424a18.202 18.202 0 0 0 5.773-3.893 18.096 18.096 0 0 0 5.317-12.841c0-2.449-.48-4.832-1.425-7.069a18.157 18.157 0 0 0-3.892-5.773 18.14 18.14 0 0 0-5.773-3.887 17.983 17.983 0 0 0-7.069-1.43m0 36.982c-2.542 0-5.004-.5-7.326-1.48a18.802 18.802 0 0 1-5.985-4.032 18.764 18.764 0 0 1-4.03-5.985 18.687 18.687 0 0 1-1.48-7.326c0-2.542.498-5.005 1.48-7.327a18.752 18.752 0 0 1 4.03-5.982 18.802 18.802 0 0 1 5.985-4.032 18.687 18.687 0 0 1 7.326-1.48c2.542 0 5.005.497 7.327 1.48a18.802 18.802 0 0 1 5.984 4.032 18.707 18.707 0 0 1 4.03 5.982 18.687 18.687 0 0 1 1.48 7.327c0 2.542-.497 5.004-1.48 7.326a18.719 18.719 0 0 1-4.03 5.985 18.802 18.802 0 0 1-5.984 4.032 18.736 18.736 0 0 1-7.327 1.48" mask="url(#d)"/>
        <path fill="#359CE4" d="M68.717 51.944c-2.36 0-4.65.461-6.802 1.375a17.384 17.384 0 0 0-5.553 3.742 17.365 17.365 0 0 0-3.742 5.556 17.28 17.28 0 0 0-1.375 6.8c0 2.363.46 4.653 1.375 6.802a17.354 17.354 0 0 0 3.742 5.553c1.6 1.6 3.47 2.86 5.553 3.745 4.307 1.825 9.298 1.825 13.605 0a17.466 17.466 0 0 0 5.553-3.745 17.377 17.377 0 0 0 3.744-5.553 17.35 17.35 0 0 0 1.373-6.802c0-2.358-.461-4.648-1.373-6.8a17.389 17.389 0 0 0-3.744-5.556 17.384 17.384 0 0 0-5.553-3.742 17.303 17.303 0 0 0-6.803-1.375m0 36.982a19.459 19.459 0 0 1-13.794-5.712 19.54 19.54 0 0 1-4.18-6.202 19.456 19.456 0 0 1-1.532-7.595 19.443 19.443 0 0 1 5.712-13.794 19.514 19.514 0 0 1 6.199-4.181 19.696 19.696 0 0 1 15.19 0 19.514 19.514 0 0 1 6.2 4.18 19.45 19.45 0 0 1 5.712 13.795c0 2.63-.516 5.185-1.532 7.595a19.481 19.481 0 0 1-4.18 6.202 19.461 19.461 0 0 1-13.795 5.712" mask="url(#d)"/>
        <path fill="#359CE4" d="M68.717 51.258c-1.002 0-1.987.458-2.918 1.361-.933.9-1.773 2.2-2.5 3.855-1.508 3.453-2.34 8.048-2.34 12.943 0 4.894.832 9.49 2.34 12.943.727 1.658 1.567 2.954 2.5 3.857.93.9 1.916 1.358 2.918 1.358 1.002 0 1.988-.458 2.918-1.358.934-.903 1.774-2.2 2.501-3.857 1.507-3.454 2.342-8.049 2.342-12.943 0-4.895-.835-9.49-2.342-12.943-.727-1.656-1.567-2.954-2.5-3.855-.931-.903-1.917-1.361-2.919-1.361m0 36.982c-2.3 0-4.439-1.996-6.023-5.614-1.548-3.533-2.399-8.224-2.399-13.21 0-4.982.851-9.673 2.4-13.206 1.583-3.62 3.722-5.614 6.022-5.614 2.3 0 4.442 1.993 6.026 5.614 1.545 3.533 2.396 8.224 2.396 13.207 0 4.985-.85 9.676-2.396 13.21-1.584 3.617-3.725 5.613-6.026 5.613" mask="url(#d)"/>
        <path fill="#359CE4" d="M68.717 51.944c-.82 0-1.641.395-2.443 1.17-.865.834-1.652 2.058-2.347 3.637-1.471 3.368-2.281 7.864-2.281 12.666 0 4.8.81 9.3 2.284 12.666.689 1.578 1.48 2.802 2.344 3.642 1.603 1.549 3.283 1.549 4.886 0 .865-.84 1.656-2.064 2.347-3.642 1.472-3.369 2.284-7.87 2.284-12.666s-.812-9.295-2.286-12.666c-.692-1.579-1.48-2.803-2.345-3.637-.801-.775-1.622-1.17-2.443-1.17m0 36.982c-2.588 0-4.952-2.141-6.654-6.025-1.584-3.618-2.454-8.409-2.454-13.484 0-5.073.87-9.866 2.454-13.484 1.702-3.885 4.066-6.023 6.654-6.023 2.589 0 4.955 2.138 6.657 6.023 1.581 3.62 2.451 8.41 2.451 13.484 0 5.075-.87 9.863-2.45 13.484-1.703 3.884-4.07 6.025-6.658 6.025" mask="url(#d)"/>
        <path fill="#359CE4" d="M53.409 59.41h30.613v-.662H53.409z" mask="url(#d)"/>
        <path fill="#359CE4" d="M52.722 60.096h31.986v-2.034H52.722zM50.224 69.75h36.98v-.664h-36.98z" mask="url(#d)"/>
        <path fill="#359CE4" d="M49.538 70.437H87.89V68.4H49.538zM53.538 80.086H84.12v-.662H53.538z" mask="url(#d)"/>
        <path fill="#359CE4" d="M52.851 80.772h31.956v-2.034H52.851z" mask="url(#d)"/>
    </g>
</svg>
