<svg xmlns="http://www.w3.org/2000/svg" xmlns:xlink="http://www.w3.org/1999/xlink" width="140" height="140" viewBox="0 0 140 140">
    <defs>
        <path id="a" d="M0 .851h139.148V140H0z"/>
    </defs>
    <g fill="none" fill-rule="evenodd">
        <g transform="translate(0 -.106)">
            <mask id="b" fill="#fff">
                <use xlink:href="#a"/>
            </mask>
            <path fill="#FCB3CD" d="M139.148 70.426c0 38.423-31.148 69.575-69.574 69.575C31.151 140-.001 108.849-.001 70.426 0 32 31.151.85 69.574.85 108 .85 139.148 32 139.148 70.426" mask="url(#b)"/>
        </g>
        <path fill="#F9679C" d="M29.86 64.93c2.437-2.185 6.222-2.147 8.619.076a6.437 6.437 0 0 1 1.888 3.262c.003.01.003.024.009.035.425 1.829 2.723 2.443 4.049 1.12l8.9-8.9 10.804 10.808-.2.2c-1.142 1.143-2.603 1.881-4.176 2.24a6.377 6.377 0 0 0-3.09 1.716 6.4 6.4 0 0 0 .26 9.3c2.44 2.186 6.223 2.15 8.623-.079a6.39 6.39 0 0 0 1.885-3.253c.363-1.578 1.098-3.041 2.24-4.183l.2-.198L80.68 87.879l-8.938 8.938c-1.317 1.32-.675 3.574 1.14 3.997l.043.008c1.2.28 2.345.906 3.256 1.888 2.23 2.4 2.265 6.182.08 8.62a6.403 6.403 0 0 1-11.016-2.83l-.009-.039c-.425-1.817-2.679-2.46-3.997-1.142l-8.94 8.941-10.808-10.807.203-.203c1.142-1.142 2.603-1.875 4.176-2.238a6.387 6.387 0 0 0 3.09-1.715 6.403 6.403 0 0 0-.26-9.303c-2.44-2.186-6.226-2.147-8.62.085a6.36 6.36 0 0 0-1.886 3.253c-.365 1.573-1.1 3.038-2.242 4.18l-.2.2-10.808-10.81 8.902-8.9c1.326-1.325.706-3.617-1.117-4.045-.011-.006-.028-.006-.041-.011A6.403 6.403 0 0 1 29.86 64.93"/>
        <path fill="#F9679C" d="M56.463 84.234c-2.103-2.353-1.998-6.072.23-8.466a6.604 6.604 0 0 1 3.234-1.91c.014-.006.025-.006.039-.012 1.8-.453 2.448-2.717 1.17-3.997l-8.582-8.58L63.362 50.46l.194.195c1.101 1.1 1.798 2.522 2.125 4.06a6.004 6.004 0 0 0 1.628 3.006c2.493 2.492 6.665 2.327 9.141-.426 2.19-2.432 2.22-6.149.077-8.463a5.993 5.993 0 0 0-3.165-1.795c-1.54-.33-2.965-1.027-4.066-2.125l-.194-.195 10.81-10.807 8.617 8.622c1.273 1.268 3.497.598 3.947-1.194l.008-.041a6.608 6.608 0 0 1 1.91-3.231c2.397-2.232 6.114-2.336 8.47-.234 2.668 2.383 2.676 6.547.093 9.133a6.62 6.62 0 0 1-3.07 1.74l-.038.009c-1.79.45-2.462 2.67-1.191 3.945l8.62 8.622L96.47 72.087l-.195-.195c-1.1-1.101-1.795-2.523-2.124-4.06a5.993 5.993 0 0 0-1.628-3.006c-2.493-2.495-6.663-2.333-9.141.423-2.191 2.434-2.219 6.151-.075 8.463a5.993 5.993 0 0 0 3.166 1.795c1.54.33 2.961 1.027 4.065 2.13l.192.192-10.807 10.808-8.584-8.584c-1.277-1.28-3.541-.631-3.994 1.167-.006.013-.009.027-.014.04a6.559 6.559 0 0 1-1.738 3.067c-2.583 2.586-6.75 2.578-9.13-.093"/>
        <path fill="#FFF" d="M72.95 94.008a2.051 2.051 0 0 1-1.524-1.452 2.048 2.048 0 0 1 .527-2.04l9.153-9.152-11.233-11.233-.412.415c-1.128 1.125-1.93 2.621-2.322 4.323a6.094 6.094 0 0 1-1.799 3.105c-2.283 2.122-5.893 2.155-8.216.077a6.065 6.065 0 0 1-2.034-4.384 6.038 6.038 0 0 1 1.787-4.483 6.122 6.122 0 0 1 2.946-1.636c1.699-.387 3.192-1.191 4.318-2.317l.414-.417L53.322 53.58l-9.11 9.114c-.555.554-1.34.749-2.092.538-.739-.209-1.28-.775-1.46-1.549a6.732 6.732 0 0 0-1.977-3.412c-2.51-2.333-6.476-2.366-9.026-.082a6.663 6.663 0 0 0-2.235 4.815 6.641 6.641 0 0 0 1.96 4.924 6.734 6.734 0 0 0 3.278 1.804 2.053 2.053 0 0 1 1.513 1.455 2.103 2.103 0 0 1-.541 2.086l-9.114 9.117 11.233 11.23.412-.412c1.123-1.123 1.927-2.619 2.322-4.323a6.068 6.068 0 0 1 1.801-3.105c2.281-2.122 5.89-2.155 8.21-.077a6.053 6.053 0 0 1 2.037 4.384 6.042 6.042 0 0 1-1.787 4.483 6.126 6.126 0 0 1-2.948 1.633c-1.7.393-3.192 1.194-4.318 2.322l-.412.415 11.23 11.23 9.155-9.152a2.034 2.034 0 0 1 2.035-.53c.735.211 1.279.782 1.46 1.565a6.729 6.729 0 0 0 1.795 3.236 6.623 6.623 0 0 0 4.925 1.96 6.654 6.654 0 0 0 4.818-2.234c2.283-2.553 2.245-6.514-.086-9.026a6.718 6.718 0 0 0-3.45-1.982"/>
        <path fill="#FDD9E6" d="M98.87 45.931a1.959 1.959 0 0 1-.491-1.93c.208-.757.785-1.32 1.581-1.52a6.865 6.865 0 0 0 3.206-1.818c1.332-1.328 2.065-3.148 2.012-4.99-.052-1.782-.801-3.407-2.113-4.576-2.468-2.202-6.366-2.1-8.875.236a6.944 6.944 0 0 0-2.007 3.42 2.116 2.116 0 0 1-1.507 1.54 1.947 1.947 0 0 1-1.932-.489l-8.834-8.833-11.233 11.235.406.404c1.087 1.087 2.545 1.85 4.217 2.207a5.698 5.698 0 0 1 3.005 1.705c2.04 2.201 2.007 5.742-.076 8.06-1.153 1.278-2.778 2.042-4.464 2.083a5.74 5.74 0 0 1-4.241-1.67 5.703 5.703 0 0 1-1.548-2.857c-.352-1.663-1.118-3.118-2.207-4.208l-.407-.41L52.13 54.755l8.793 8.792c.516.514.703 1.258.502 1.988-.208.755-.782 1.317-1.57 1.515a6.9 6.9 0 0 0-3.38 2.001c-2.335 2.507-2.44 6.402-.235 8.87 1.17 1.315 2.794 2.064 4.573 2.116a6.893 6.893 0 0 0 6.824-5.257 2.105 2.105 0 0 1 1.508-1.531c.73-.204 1.468-.014 1.981.502l6.358 6.355 2.44 2.44 11.23-11.233-.403-.403c-1.087-1.09-2.545-1.85-4.216-2.21a5.7 5.7 0 0 1-3.003-1.708c-2.046-2.198-2.01-5.737.071-8.056 1.156-1.28 2.783-2.04 4.466-2.084 1.636-.038 3.121.552 4.241 1.672a5.703 5.703 0 0 1 1.549 2.857c.357 1.667 1.12 3.124 2.207 4.209l.406.409 11.233-11.233-8.834-8.834z"/>
        <path fill="#F9679C" d="M79.534 82.934l-8.798-8.796c-.374-.379-.909-.513-1.444-.362-.566.16-.986.582-1.126 1.136a7.5 7.5 0 0 1-1.97 3.503c-1.428 1.422-3.421 2.183-5.398 2.172-1.932-.058-3.697-.873-4.97-2.3-2.39-2.677-2.282-6.9.243-9.611a7.414 7.414 0 0 1 3.651-2.158 1.583 1.583 0 0 0 1.173-1.131c.148-.535.013-1.079-.36-1.452l-8.795-8.793.776-.777 8.796 8.793c.656.656.895 1.6.642 2.52-.26.95-.996 1.66-1.965 1.905a6.336 6.336 0 0 0-3.113 1.842c-2.144 2.3-2.243 5.872-.228 8.131a5.75 5.75 0 0 0 4.18 1.93c1.689.088 3.377-.634 4.59-1.85a6.383 6.383 0 0 0 1.683-2.99 2.66 2.66 0 0 1 1.897-1.927 2.529 2.529 0 0 1 2.517.642l8.796 8.796-.777.777z"/>
    </g>
</svg>
