<svg xmlns="http://www.w3.org/2000/svg" xmlns:xlink="http://www.w3.org/1999/xlink" width="140" height="138" viewBox="0 0 140 138">
    <defs>
        <path id="a" d="M.001.835H139.15v136.473H.001z"/>
    </defs>
    <g fill="none" fill-rule="evenodd">
        <g transform="translate(0 -.142)">
            <mask id="b" fill="#fff">
                <use xlink:href="#a"/>
            </mask>
            <path fill="#94D79F" d="M139.15 69.072c0 37.684-31.151 68.237-69.577 68.237C31.15 137.309 0 106.756 0 69.072.001 31.385 31.15.832 69.573.832c38.426 0 69.577 30.553 69.577 68.24" mask="url(#b)"/>
        </g>
        <path fill="#49AD57" d="M77.128 42.709c-18.041 0-32.673 14.325-32.673 32.022 0 11.205 5.861 21.062 14.744 26.767a21.731 21.731 0 0 1-.87 2.156c-1.123 2.2-2.586 4.421-4.485 6.4-.917 1.031-2.018 1.885-3.072 2.849-1.098.899-2.265 1.706-3.453 2.581 1.416-.266 2.882-.49 4.35-.807 1.417-.45 2.952-.762 4.37-1.346 2.908-1.056 5.702-2.604 8.404-4.583a31.632 31.632 0 0 0 3.549-3.255 32.949 32.949 0 0 0 9.136 1.282c18.04 0 32.67-14.35 32.67-32.044 0-17.696-14.63-32.022-32.67-32.022"/>
        <path fill="#FFF" d="M70.252 38.216c-18.041 0-32.67 14.325-32.67 32.022 0 11.203 5.858 21.062 14.744 26.764a21.471 21.471 0 0 1-.87 2.157c-1.123 2.2-2.589 4.423-4.485 6.4-.917 1.03-2.018 1.887-3.072 2.85-1.098.897-2.265 1.707-3.454 2.582 1.417-.266 2.883-.492 4.349-.81 1.419-.447 2.953-.762 4.373-1.346 2.907-1.053 5.701-2.604 8.402-4.58a31.66 31.66 0 0 0 3.55-3.258 32.93 32.93 0 0 0 9.133 1.282c18.043 0 32.672-14.347 32.672-32.041 0-17.697-14.629-32.022-32.672-32.022"/>
        <path fill="#49AD57" d="M57.153 79.796c-1.773 2.251-3.12 5.38-3.12 5.38-1.878.376-2.049-.878-2.049-.878s.39.075.959-.743c1.66-2.383 2.978-3.92 3.922-4.887l-.239 1.09.527.038z"/>
        <path fill="#49AD57" d="M69.842 71.241c-6.311.617-12.076 7.358-12.178 7.474.09-.13 5.828-8.564 12.6-9.227 6.918-.678 11.154-4.011 11.187-4.035-.033.037-4.253 5.061-11.61 5.788M86.48 59.839s-3.723 4.41-15.296 4.05c-13.967-.44-15.205 16.465-15.205 16.465 30.621 3.5 30.5-20.515 30.5-20.515"/>
    </g>
</svg>
