<svg width="142" height="142" viewBox="0 0 142 142" fill="none" xmlns="http://www.w3.org/2000/svg">
<path fill-rule="evenodd" clip-rule="evenodd" d="M71.403 141.906C110.341 141.906 141.906 110.341 141.906 71.403C141.906 32.4649 110.341 0.899414 71.403 0.899414C32.4649 0.899414 0.899414 32.4649 0.899414 71.403C0.899414 110.341 32.4649 141.906 71.403 141.906ZM71.403 131.134C104.392 131.134 131.134 104.392 131.134 71.403C131.134 38.4144 104.392 11.6719 71.403 11.6719C38.4144 11.6719 11.6719 38.4144 11.6719 71.403C11.6719 104.392 38.4144 131.134 71.403 131.134Z" fill="#002057"/>
<path fill-rule="evenodd" clip-rule="evenodd" d="M71.4771 131.133C71.4522 131.133 71.4272 131.133 71.4022 131.133C46.4235 131.133 25.0259 115.801 16.1075 94.0337L6.23047 98.3456C16.8135 123.916 42.0072 141.906 71.4025 141.906C71.4274 141.906 71.4523 141.906 71.4771 141.906V131.133Z" fill="#0075DD"/>
</svg>
