<svg width="768" height="424" viewBox="0 0 768 424" fill="none" xmlns="http://www.w3.org/2000/svg">
<path d="M0 0H738V407H150C67.1573 407 0 339.843 0 257V0Z" fill="#0041B2"/>
<mask id="mask0_622_81" style="mask-type:alpha" maskUnits="userSpaceOnUse" x="0" y="0" width="768" height="407">
<path d="M768 407H140C62.6802 407 0 344.32 0 267V0H768V407Z" fill="white"/>
</mask>
<g mask="url(#mask0_622_81)">
<path d="M565 0H768V355H565V0Z" fill="#FFEFC3"/>
<path d="M30 0H567.57C661.696 0 738 76.3041 738 170.43V377H230C119.543 377 30 287.457 30 177V0Z" fill="#0075DD"/>
</g>
<path d="M768 376H738V207H768V376Z" fill="#002669"/>
<path d="M654 424H725.678C749.052 424 768 405.052 768 381.678V310H696.32C672.947 310 654 328.947 654 352.32V424Z" fill="#FFC414"/>
<path d="M0 0H68.0965C96.2125 0 119.005 22.7925 119.005 50.9085V119H50.9085C22.7925 119 0 96.2075 0 68.0915V0Z" fill="#2F9EFF"/>
<path d="M588 309.993H625.18C641.102 309.993 654.009 322.901 654.009 338.823V376H616.83C600.907 376 588 363.093 588 347.17V309.993Z" fill="#2F9EFF"/>
</svg>
