<svg width="1024" height="454" viewBox="0 0 1024 454" fill="none" xmlns="http://www.w3.org/2000/svg">
<path d="M0 0H1024V407H150C67.1573 407 0 339.843 0 257V0Z" fill="#0041B2"/>
<mask id="mask0_586_4090" style="mask-type:alpha" maskUnits="userSpaceOnUse" x="0" y="0" width="1024" height="407">
<path d="M1024 407H140C62.6801 407 0 344.32 0 267V0H1024V407Z" fill="white"/>
</mask>
<g mask="url(#mask0_586_4090)">
<path d="M785 0H1024V355H785V0Z" fill="#FFEFC3"/>
<path d="M64 0H797.57C891.696 0 968 76.3041 968 170.43V377H264C153.543 377 64 287.457 64 177V0Z" fill="#0075DD"/>
</g>
<path d="M1024 406C993.072 406 968 380.928 968 350V160H1024V406Z" fill="#002669"/>
<path d="M879 454H970.17C999.899 454 1024 429.899 1024 400.17V309H932.828C903.1 309 879 333.1 879 362.828V454Z" fill="#FFC414"/>
<path d="M0 0H108.149C152.802 0 189 36.1984 189 80.8513V188.992H80.8513C36.1984 188.992 0 152.794 0 108.141V0Z" fill="#2F9EFF"/>
<path d="M782.005 280H836.08C859.237 280 878.009 298.773 878.009 321.93V376H823.935C800.778 376 782.005 357.227 782.005 334.07V280Z" fill="#2F9EFF"/>
</svg>
