<svg width="142" height="142" viewBox="0 0 142 142" fill="none" xmlns="http://www.w3.org/2000/svg">
<path fill-rule="evenodd" clip-rule="evenodd" d="M71.403 141.906C110.341 141.906 141.906 110.341 141.906 71.403C141.906 32.4649 110.341 0.899414 71.403 0.899414C32.4649 0.899414 0.899414 32.4649 0.899414 71.403C0.899414 110.341 32.4649 141.906 71.403 141.906ZM71.4025 131.134C104.391 131.134 131.134 104.392 131.134 71.403C131.134 38.4144 104.391 11.6719 71.4025 11.6719C38.4139 11.6719 11.6714 38.4144 11.6714 71.403C11.6714 104.392 38.4139 131.134 71.4025 131.134Z" fill="#002057"/>
<path fill-rule="evenodd" clip-rule="evenodd" d="M0.899414 71.4036C0.899414 52.4416 8.38515 35.2279 20.5627 22.5566L29.2569 29.0773C18.3945 39.8936 11.6715 54.8637 11.6715 71.404C11.6715 104.393 38.4141 131.135 71.4026 131.135C71.4027 131.135 71.4028 131.135 71.4028 131.135V141.907C32.4649 141.907 0.899414 110.342 0.899414 71.4036Z" fill="#0075DD"/>
</svg>
