<svg width="724" height="762" viewBox="0 0 724 762" fill="none" xmlns="http://www.w3.org/2000/svg">
<circle cx="521" cy="241" r="521" fill="#002D79"/>
<path fill-rule="evenodd" clip-rule="evenodd" d="M964.259 293.19C962.238 292.574 960.088 292.217 958.219 291.292C952.485 288.451 947.773 284.416 945.004 278.502C942.15 272.409 937.721 271.541 931.7 274.033C928.917 275.185 926.324 277.219 924.185 279.386C921.817 281.784 922.785 284.072 926.042 285.127C927.694 285.662 929.353 286.229 930.91 286.983C934.583 288.766 935.093 292.461 936.297 295.843C937.728 299.867 939.452 303.817 941.392 307.625C945.69 316.059 947.589 324.696 944.133 333.868C942.676 337.734 939.51 339.798 935.563 340.418C930.119 341.275 924.591 341.634 919.174 342.616C911.503 344.006 906.574 348.814 904.296 356.155C903.07 360.108 904.4 363.621 907.503 366.356C911.579 369.949 914.819 374.112 916.472 379.35C918.969 387.268 917.429 394.026 910.476 398.064C907.529 399.776 905.373 399.524 903.069 397.092C899.34 393.153 895.729 389.101 891.996 385.167C890.995 384.113 889.783 383.224 888.555 382.436C888.058 382.117 887.034 381.983 886.653 382.28C886.21 382.628 885.895 383.634 886.064 384.19C887.125 387.68 886.302 390.767 884.924 394.049C884.185 395.81 884.372 398.326 884.997 400.219C886.499 404.761 889.306 408.498 893.462 411.089C896.065 412.71 897.566 415.096 898.725 417.93C900.096 421.285 901.959 424.441 903.704 427.871C903.219 427.823 902.617 427.895 902.122 427.695C896.729 425.521 892.894 421.936 891.096 416.195C890.256 413.515 889.03 410.83 887.413 408.548C884.198 404.012 882.872 398.962 882.441 393.587C881.954 387.531 881.597 381.466 881.183 375.405C880.829 370.231 877.989 367.323 872.851 367.571C865.06 367.947 860.517 363.861 857.568 357.255C856.784 355.495 856.108 353.683 855.277 351.948C852.638 346.447 847.903 344.51 842.491 347.349C833.746 351.936 825.739 357.702 818.824 364.771C814.348 369.347 812.66 375.077 813.696 381.54C814.66 387.545 814.764 393.433 811.159 398.837C808.63 402.628 807.271 403.015 805.11 399.161C800.946 391.735 796.986 384.151 793.597 376.345C789.655 367.268 786.363 357.906 782.896 348.626C781.193 344.065 778.013 341.828 773.22 342.043C767.635 342.296 762.818 340.711 758.459 337.117C752.969 332.588 746.091 331.917 739.367 330.775C731.678 329.468 723.998 328.014 716.42 326.183C711.536 325 707.945 321.509 704.748 317.739C703.142 315.845 701.72 313.788 700.026 311.979C698.282 310.118 696.319 310.414 695.503 312.759C692.796 320.526 698.051 333.591 705.758 335.157C707.861 335.583 710.219 334.924 712.428 334.566C713.389 334.409 714.256 333.728 715.185 333.327C718.464 331.916 720.535 332.667 723.029 335.101C725.893 337.895 729.024 340.475 732.304 342.769C735.832 345.238 736.548 347.233 733.905 350.675C732.068 353.069 729.956 355.312 727.686 357.303C718.645 365.239 709.645 373.232 700.292 380.787C697.645 382.925 693.933 383.914 690.559 384.931C687.759 385.775 685.436 384.326 684.296 381.666C682.061 376.447 680.171 371.078 677.853 365.899C676.109 362.002 674.567 357.732 671.813 354.621C662.311 343.88 655.062 331.862 649.523 318.715C648.942 317.338 647.983 316.12 647.198 314.828C646.882 314.844 646.565 314.86 646.248 314.876C645.785 316.576 645.323 318.276 644.632 320.81C642.697 317.527 641.085 314.792 639.436 311.995C648.127 308.436 653.191 297.652 650.57 289.063C649.665 286.099 647.445 285.02 644.407 285.87C638.539 287.512 632.637 288.74 626.471 287.502C621.733 286.551 617.954 282.923 617.1 278.165C616.459 274.586 617.636 272.435 621.066 271.374C625.803 269.909 630.51 268.12 635.369 267.366C638.467 266.885 641.96 267.568 645.018 268.542C649.721 270.041 654.321 270.635 659.096 269.361C663.567 268.17 664.154 267.228 663.273 262.07C666.228 262.691 669.049 262.933 671.602 263.893C677.171 265.985 682.585 268.491 688.111 270.71C689.18 271.14 690.465 271.033 691.652 271.173C691.789 269.988 692.249 268.734 692.008 267.632C690.782 262.028 689.917 256.562 691.494 250.758C692.936 245.455 691.644 240.206 689.218 235.242C688.64 234.057 688.142 232.073 688.725 231.284C689.36 230.426 691.302 230.268 692.669 230.285C694.676 230.309 696.671 230.908 698.682 231C704.893 231.282 708.038 228.319 707.974 222.161C707.887 213.65 704.769 205.991 700.777 198.688C698.845 195.156 696.367 191.922 694.113 188.567C693.14 187.118 692.039 185.751 691.115 184.272C688.568 180.196 689.086 178.2 693.538 176.383C697.597 174.725 700.648 172.316 702.028 167.991C702.437 166.709 703.216 165.469 704.086 164.429C706.182 161.92 706.316 159.401 704.872 156.519C703.126 153.037 703.74 152.097 707.721 152.196C711.305 152.286 714.882 152.674 718.463 152.9C726.392 153.401 733.667 151.884 740.423 147.257C748.105 141.993 756.945 139.229 766.124 138.019C772.567 137.171 779.106 136.843 785.607 136.747C792.45 136.645 798.777 138.844 804.746 142.174C816.932 148.972 830.267 151.215 843.985 151.942C865.59 153.087 887.207 154.082 908.791 155.549C921.543 156.417 934.217 158.367 946.967 159.293C958.807 160.152 970.697 160.414 982.571 160.721C991.499 160.952 1000.44 160.779 1009.37 160.908C1012.48 160.953 1015.63 161.144 1018.7 161.648C1025.99 162.845 1030.24 169.108 1029.06 176.589C1027.84 184.301 1023.31 188.381 1014.41 189.952C1011.25 190.51 1008.1 191.196 1005.01 192.049C999.992 193.434 999.098 196.63 1002.84 200.207C1006.78 203.973 1010.99 207.535 1012.67 212.93C1013.59 215.87 1014.1 218.989 1014.36 222.064C1014.54 224.311 1013 225.184 1010.87 224.386C1009.85 224.005 1008.83 223.475 1007.99 222.79C1002.94 218.666 997.722 214.71 992.985 210.247C988.254 205.791 987.781 201.417 990.444 195.436C993.339 188.934 991.544 185.886 984.294 185.673C970.569 185.268 957.71 188.628 945.761 195.341C943.878 196.399 942.148 197.91 940.702 199.527C937.907 202.654 938.106 204.938 941.049 207.922C947.253 214.209 953.473 220.479 959.664 226.779C960.629 227.76 961.449 228.882 962.372 229.908C966.752 234.776 967.072 240.057 963.957 245.664C959.903 252.962 957.744 260.691 957.778 269.122C957.807 276.318 959.414 282.944 963.171 289.072C963.807 290.111 964.269 291.258 964.811 292.357C964.627 292.634 964.444 292.913 964.259 293.19Z" fill="#0075DD"/>
<path fill-rule="evenodd" clip-rule="evenodd" d="M240.462 324.703C240.211 324.059 239.958 323.415 239.71 322.769C236.061 313.276 228.299 309.281 218.98 308.189C193.985 305.259 178.865 324.132 178.384 344.111C178.094 356.192 185.336 359.937 196.013 358.477C202.066 357.649 207.487 355.304 212.328 351.585C212.909 351.14 213.55 350.768 214.182 350.393C214.312 350.316 214.528 350.382 215.2 350.382C214.929 351.421 214.79 352.423 214.415 353.326C212.378 358.233 210.053 363.034 208.282 368.032C206.889 371.967 209.015 374.007 213.191 373.208C215.175 372.828 217.117 372.189 219.112 371.915C222.852 371.399 224.521 372.709 224.713 376.487C224.897 380.16 224.895 383.855 224.747 387.531C224.447 394.943 227.69 398.957 235.208 399.93C237.565 400.238 239.985 400.051 242.369 400.202C243.013 400.243 243.934 400.538 244.176 401.004C244.431 401.498 244.251 402.543 243.854 402.96C243.474 403.359 242.435 403.563 241.922 403.331C239.777 402.355 238.059 402.443 236.135 404.095C235.454 404.68 233.489 404.213 232.328 403.719C225.792 400.938 221.41 395.472 216.367 390.794C212.347 387.066 208.191 383.388 203.665 380.322C193.38 373.358 182.102 368.732 169.832 366.238C162.173 364.682 155.749 360.729 151.882 353.327C143.097 336.511 132.422 320.881 121.436 305.449C113.556 294.381 110.937 281.841 112.389 268.525C113.143 261.622 116.166 255.498 121.365 250.654C123.922 248.273 126.649 246.058 129.074 243.55C135.78 236.61 137.484 228.017 136.622 218.787C134.989 201.311 121.543 193.172 107.508 190.823C91.3985 188.128 78.1997 194.224 65.7227 203.273C62.1583 205.858 58.5883 208.471 54.8106 210.717C50.7135 213.153 48.0267 211.777 46.9446 207.11C45.2149 199.653 48.5307 191.558 55.329 188.13C65.1369 183.183 73.6472 176.816 81.0722 168.63C88.0319 160.956 97.4033 156.883 107.347 154.353C115.321 152.323 123.488 151.107 131.684 152.133C137.48 152.859 143.155 154.562 148.879 155.851C162.182 158.849 175.511 161.394 189.288 160.072C200.436 159.004 211.537 159.894 222.6 161.434C231.977 162.738 241.354 164.062 250.755 165.171C258.899 166.131 265.728 163.294 271.379 157.4C272.967 155.743 274.683 154.186 276.475 152.753C280.286 149.708 282.991 150.262 286.1 153.971C288.185 156.458 290.5 158.98 293.225 160.649C296.992 162.958 301.394 163.205 305.792 162.384C307.208 162.12 308.662 162.065 310.098 161.914C310.262 162.16 310.428 162.405 310.593 162.651C309.461 163.808 308.497 165.223 307.172 166.079C300.315 170.518 293.57 175.19 286.398 179.061C277.695 183.761 268.603 187.74 259.684 192.039C256.59 193.53 253.585 195.103 252.474 198.76C251.448 202.133 252.513 205.2 254.067 208.019C258.736 216.487 265.425 222.561 275.047 224.982C279.43 226.085 282.908 224.794 285.317 221.047C289.144 215.097 292.785 209.026 296.575 203.051C299.527 198.394 302.426 193.69 305.638 189.215C309.418 183.947 312.103 184.044 315.726 189.35C318.929 194.04 322.784 197.44 328.943 196.463C330.64 196.195 332.294 195.539 333.914 194.919C337.609 193.502 341.183 193.522 344.33 196.09C351.818 202.204 355.447 210.152 354.715 219.816C354.303 225.256 350.229 228.276 344.011 229.001C337.913 229.71 331.719 230.32 325.832 231.941C317 234.37 310.634 240.358 306.278 248.329C302.725 254.831 298.507 260.608 291.666 263.977C289.772 264.909 287.899 265.979 285.894 266.569C277.271 269.108 271.928 274.765 269.649 283.352C267.502 291.442 262.238 296.508 254.493 299.111C246.913 301.658 243.156 307.16 242.014 314.747C241.633 317.287 241.535 319.869 241.29 322.429C241.217 323.185 241.08 323.934 240.973 324.687C240.803 324.692 240.632 324.698 240.462 324.703Z" fill="#0075DD"/>
<circle cx="140.603" cy="224.618" r="1.65786" fill="#FFC414"/>
<circle cx="145.025" cy="224.618" r="1.65786" fill="#FFC414"/>
<circle cx="140.603" cy="230.144" r="1.65786" fill="#FFC414"/>
<circle cx="145.025" cy="232.354" r="1.65786" fill="#FFC414"/>
<circle cx="141.708" cy="236.775" r="1.65786" fill="#FFC414"/>
<circle cx="135.077" cy="235.671" r="1.65786" fill="#FFC414"/>
<circle cx="237.864" cy="231.249" r="1.65786" fill="#FFC414"/>
<circle cx="278.758" cy="245.617" r="1.65786" fill="#FFC414"/>
<circle cx="191.444" cy="213.566" r="1.65786" fill="#FFC414"/>
<circle cx="213.549" cy="213.566" r="1.65786" fill="#FFC414"/>
<circle cx="348.388" cy="225.798" r="1.65786" fill="#FFC414"/>
<circle cx="194.76" cy="206.934" r="1.65786" fill="#FFC414"/>
<circle cx="156.077" cy="216.881" r="1.65786" fill="#FFC414"/>
<path fill-rule="evenodd" clip-rule="evenodd" d="M584.606 271.055C583.519 272.804 582.496 274.016 581.969 275.415C581.395 276.942 580.565 277.144 579.536 276.235C578.243 275.091 576.981 273.825 576.044 272.389C574.374 269.83 572.08 268.296 569.469 266.77C566.896 265.266 564.542 262.978 562.811 260.526C559.773 256.225 558.702 255.735 553.734 257.106C549.961 258.148 546.055 258.78 542.169 259.314C539.337 259.703 537.239 260.824 535.528 263.17C533.051 266.564 530.219 269.696 527.661 273.034C526.051 275.132 524.217 277.228 523.281 279.635C521.802 283.428 519.255 285.793 515.546 286.86C508.032 289.02 498.819 286.938 497.609 277.318C497.267 274.584 496.616 271.886 496.352 269.147C495.661 261.924 502.449 257.183 509.181 259.836C511.47 260.738 514.254 261.277 516.637 260.897C524.991 259.56 525.252 250.652 521.009 244.819C520.264 243.794 519.236 242.954 518.258 242.127C516.929 241.004 516.986 240.226 518.654 239.593C521.738 238.421 525.064 237.631 527.829 235.931C533.05 232.721 537.992 229.047 542.952 225.429C545.474 223.59 547.812 221.495 550.173 219.445C553.753 216.334 557.803 216.029 562.077 217.46C574.078 221.473 587.748 217.027 595.028 206.549C596.214 204.84 597.101 202.871 597.837 200.914C599.069 197.637 598.194 194.999 595.285 192.98C593.94 192.047 592.389 191.413 590.944 190.622C588.222 189.129 588.003 187.967 590.239 185.826C593.126 183.06 595.06 179.819 595.676 175.847C596.1 173.097 594.823 171.612 592.077 171.592C585.174 171.543 575.805 178.956 574.387 185.688C574.149 186.817 574.23 188.058 574.389 189.215C575.128 194.618 574.571 199.873 572.61 204.943C572.251 205.87 571.391 207.106 570.614 207.223C569.892 207.332 568.791 206.276 568.182 205.483C566.897 203.812 565.946 201.878 564.635 200.23C561.435 196.209 557.889 195.635 553.514 198.319C552.187 199.134 550.966 200.119 549.666 200.986C547.11 202.689 545.917 202.301 544.942 199.496C543.148 194.332 546.148 186.84 551.145 184.741C556.999 182.284 561.194 178.288 564.334 172.785C570.376 162.196 583.551 155.906 595.537 157.631C599.843 158.251 603.692 160.144 606.718 163.193C618.452 175.019 632.002 174.339 646.053 168.831C652.546 166.287 659.045 164.514 666.015 163.974C671.114 163.577 676.126 162.157 681.213 161.465C685.297 160.909 689.432 160.537 693.548 160.501C696.936 160.471 698.173 162.202 696.884 165.347C696.113 167.23 694.348 168.816 692.755 170.222C690.635 172.092 688.082 173.481 686.008 175.394C682.836 178.321 682.505 180.757 684.811 184.482C687.759 189.245 691.348 193.643 693.97 198.565C696.758 203.793 698.736 209.451 701.063 214.922C701.135 215.09 701.158 215.278 701.196 215.458C702.895 223.332 699.889 226.478 691.927 225.218C690.297 224.961 688.63 224.726 686.991 224.784C682.942 224.927 680.824 227.723 682.14 231.503C684.391 237.961 685.148 244.468 684.524 251.31C684.232 254.513 685.32 257.838 685.74 261.113C685.827 261.801 685.725 262.512 685.711 263.212C684.935 263.192 684.105 263.345 683.393 263.122C677.713 261.35 672.103 259.333 666.369 257.764C663.942 257.101 661.235 257.539 658.719 257.107C655.779 256.603 652.823 255.926 650.04 254.884C648.131 254.168 647.826 252.292 648.733 250.442C649.657 248.558 652.048 246.803 650.089 244.552C648.118 242.289 645.153 242.638 642.554 243.177C639.183 243.878 637.609 246.413 639.298 249.251C639.81 250.114 639.955 252.151 639.496 252.445C638.481 253.095 636.834 253.416 635.711 253.05C634.695 252.719 633.491 251.385 633.326 250.341C632.927 247.826 631.5 246.294 629.426 245.387C627.296 244.456 625.452 245.472 624.024 247.097C619.618 252.114 617.545 257.96 618.394 264.625C618.719 267.169 618.211 268.821 615.537 269.279C612.189 269.851 608.826 270.333 605.473 270.872C602.594 271.334 601.922 272.828 603.525 275.268C604.332 276.495 605.311 277.611 606.092 278.853C607.722 281.445 607.442 282.936 605.163 284.48C603.116 285.866 600.9 285.638 599.466 283.354C597.178 279.709 594.867 275.996 593.247 272.033C591.034 266.621 587.646 262.861 582.3 260.301C579.478 258.95 577.315 256.116 575.033 253.778C573.265 251.964 571.693 250.13 568.789 250.417C565.267 250.764 563.614 253.413 565.813 256.108C568.388 259.261 571.475 262.065 574.648 264.638C576.978 266.527 579.823 267.771 582.401 269.364C583.315 269.929 584.118 270.676 584.606 271.055Z" fill="#0075DD"/>
<circle cx="582.699" cy="249.007" r="1.65786" fill="#FFC414"/>
<circle cx="586.015" cy="251.218" r="1.65786" fill="#FFC414"/>
<circle cx="586.015" cy="246.797" r="1.65786" fill="#FFC414"/>
<circle cx="578.278" cy="249.007" r="1.65786" fill="#FFC414"/>
<path fill-rule="evenodd" clip-rule="evenodd" d="M711.429 388.782C710.777 390.483 710.393 392.358 709.429 393.859C702.271 404.982 695.068 416.078 687.738 427.09C681.119 437.034 674.168 446.761 667.706 456.804C666.039 459.397 665.224 462.757 664.778 465.873C663.721 473.234 664.908 480.534 666.033 487.832C666.603 491.529 666.933 495.359 666.63 499.069C666.255 503.659 663.317 506.922 659.475 509.322C657.763 510.391 655.986 511.356 654.285 512.443C649.465 515.521 647.187 520.104 647.968 525.615C649.245 534.629 646.866 542.353 641.08 549.174C635.255 556.039 629.768 563.249 623.433 569.608C616.435 576.637 607.324 579.405 597.471 578.957C590.163 578.627 586.897 575.529 585.639 568.268C583.348 555.046 581.571 541.724 578.883 528.586C577.612 522.375 575.229 516.255 572.464 510.52C568.713 502.742 568.979 495.561 573.202 488.206C574.65 485.683 576.079 482.992 576.72 480.195C577.752 475.694 575.964 471.758 573.051 468.258C567.383 461.445 563.569 453.685 561.306 445.116C560.262 441.161 561.15 437.416 562.272 433.731C563.961 428.185 562.83 423.774 558.16 420.301C550.492 414.598 541.757 412.291 532.266 412.513C525.378 412.673 518.789 413.945 512.557 417.023C503.746 421.375 495.328 419.694 487.447 414.68C476.36 407.624 469.236 397.516 465.537 384.944C463.869 379.274 464.88 373.603 465.658 367.982C466.831 359.515 468.272 351.086 469.661 342.651C470.796 335.761 473.741 329.999 479.72 325.923C488.04 320.25 493.783 312.287 498.826 303.738C500.078 301.614 501.305 299.241 503.164 297.768C505.368 296.023 508.173 294.234 510.839 294.023C519.707 293.324 528.192 291.071 536.779 289.035C543.729 287.389 550.837 286.266 557.937 285.447C562.442 284.927 563.991 287.268 563.204 291.833C562.862 293.822 562.615 295.85 562.589 297.864C562.547 300.93 563.894 302.753 566.85 303.503C574.282 305.387 581.301 308.227 588.046 311.879C593.055 314.59 596.013 313.5 597.793 308.03C600.024 301.167 603.908 301.259 608.785 304.024C615.611 307.892 622.621 310.781 630.572 311.138C633.431 311.266 635.335 313.249 636.238 315.779C638.101 321.003 641.184 325.327 644.907 329.369C651.127 336.124 654.288 344.668 657.974 352.862C660.08 357.545 661.508 362.549 663.817 367.117C665.647 370.737 667.878 374.411 670.776 377.176C675.734 381.908 679.908 386.914 682.08 393.523C683.189 396.895 686.921 398.694 690.495 397.284C696.019 395.105 701.32 392.364 706.72 389.866C707.949 389.299 709.19 388.756 710.424 388.201C710.76 388.394 711.094 388.588 711.429 388.782Z" fill="#0075DD"/>
<path fill-rule="evenodd" clip-rule="evenodd" d="M323.194 661.082C317.887 660.695 313.516 658.423 309.339 655.803C299.055 649.351 293.097 639.607 288.788 628.585C283.559 615.209 283.29 601.105 282.305 587.073C281.061 569.36 279.786 551.643 278.091 533.968C277.402 526.786 276.212 519.518 274.104 512.639C271.486 504.092 265.148 497.789 258.757 491.76C254.609 487.847 250.286 484.11 246.284 480.056C241.04 474.744 237.891 468.28 236.702 460.88C236.308 458.432 235.822 455.998 235.383 453.557C234.063 446.218 235.817 439.738 240.643 434.019C242.704 431.574 244.817 429.078 246.336 426.293C248.225 422.828 247.236 419.079 246.037 415.562C244.67 411.551 244.871 408.033 248.245 405.021C252.762 400.987 257.007 396.618 261.763 392.897C263.495 391.541 266.461 390.888 268.688 391.195C277.136 392.361 285.6 393.684 293.872 395.703C298.029 396.718 301.956 399.076 305.692 401.319C312.622 405.477 319.34 409.987 326.139 414.364C332.935 418.74 338.651 424.316 343.818 430.475C352.559 440.893 363.685 447.433 376.708 450.999C381.396 452.284 386.082 453.625 390.655 455.263C394.689 456.709 398.286 459.004 398.354 463.922C398.379 465.834 397.76 467.964 396.816 469.646C390.511 480.885 387.234 493.064 385.377 505.686C384.443 512.025 382.048 517.845 377.162 521.793C365.588 531.145 357.744 543.147 350.474 555.852C345.144 565.164 339.184 574.206 332.629 582.692C328.423 588.136 322.974 592.808 317.451 596.993C311.272 601.673 308.278 606.984 309.248 614.9C310.231 622.922 310.696 631.046 310.744 639.13C310.793 647.678 314.629 653.839 321.165 658.756C321.819 659.248 322.445 659.779 323.075 660.304C323.125 660.345 323.104 660.469 323.194 661.082Z" fill="#0075DD"/>
<path fill-rule="evenodd" clip-rule="evenodd" d="M360.576 131.34C363.765 130.362 366.893 129.031 370.155 128.47C382.202 126.4 394.304 124.642 406.367 122.657C420.564 120.322 434.856 118.913 449.23 119.081C459.24 119.197 469.245 120.003 479.239 120.705C481.373 120.855 483.553 121.658 485.519 122.576C488.09 123.778 488.231 125.323 486.037 127.188C483.026 129.748 479.843 132.103 476.786 134.608C470.428 139.817 464.738 145.641 459.894 152.33C454.73 159.46 447.436 163.676 438.884 164.806C424.686 166.68 414.14 173.944 405.885 185.179C405.504 185.698 405.102 186.201 404.712 186.714C399.704 193.304 394.396 191.724 389.848 186.99C384.203 181.117 383.713 174.609 387.866 166.4C389.191 163.78 390.686 161.218 391.71 158.483C394.365 151.399 392.686 145.873 385.911 142.416C380.415 139.612 374.316 137.989 368.491 135.824C365.828 134.834 362.722 134.797 360.632 132.55C360.613 132.147 360.594 131.744 360.576 131.34Z" fill="#0075DD"/>
<path fill-rule="evenodd" clip-rule="evenodd" d="M702.936 488.865C705.45 493.75 705.433 498.191 704.139 502.417C701.454 511.18 698.393 519.832 695.344 528.48C694.234 531.634 692.915 534.753 691.312 537.679C690.57 539.038 689.018 540.044 687.664 540.957C685.375 542.5 683.617 542.079 681.985 539.863C679.031 535.846 678.646 527.456 681.52 523.335C684.454 519.128 685.529 514.585 685.218 509.527C684.89 504.174 685.488 503.269 690.498 501.23C694.857 499.455 698.087 496.499 700.473 492.51C701.108 491.448 701.858 490.453 702.936 488.865Z" fill="#0075DD"/>
<path fill-rule="evenodd" clip-rule="evenodd" d="M515.192 231.089C516.413 229.189 518.114 227.687 518.058 226.253C518.017 225.216 515.645 224.269 514.26 223.244C514.267 223.19 514.219 222.931 514.319 222.849C519.125 218.885 519.111 218.897 515.377 213.706C514.252 212.143 513.189 210.53 512.177 208.892C511.748 208.198 511.429 207.404 511.219 206.612C510.73 204.769 512.683 200.601 513.66 201.111C515.032 201.83 516.736 203.605 516.737 204.93C516.739 208.847 518.375 211.455 521.335 213.737C522.41 214.565 522.795 216.242 523.644 217.425C525.098 219.45 526.51 221.551 528.255 223.303C529.198 224.25 529.948 224.958 528.816 225.92C524.948 229.205 520.435 230.853 515.192 231.089Z" fill="#0075DD"/>
<circle cx="517.49" cy="223.587" r="1.65786" fill="#FFC414"/>
<circle cx="117.393" cy="289.902" r="1.65786" fill="#FFC414"/>
<circle cx="126.235" cy="307.585" r="1.65786" fill="#FFC414"/>
<circle cx="161.603" cy="271.112" r="1.65786" fill="#FFC414"/>
<circle cx="188.129" cy="304.269" r="1.65786" fill="#FFC414"/>
<path fill-rule="evenodd" clip-rule="evenodd" d="M260.51 353.902C257.571 357.047 251.118 355.738 248.763 351.418C247.24 348.627 245.296 346.805 242.102 346.284C240.026 345.946 238.013 345.225 235.938 344.861C233.033 344.352 230.074 343.889 227.642 346.452L227.085 345.655C227.814 344.982 228.431 344.028 229.29 343.682C234.171 341.715 239.065 342.29 243.749 344.291C246.427 345.434 248.889 347.094 251.425 348.559C254.415 350.287 257.379 352.059 260.51 353.902Z" fill="#0075DD"/>
<path fill-rule="evenodd" clip-rule="evenodd" d="M461.349 177.565C462.895 176.224 465.191 175.09 462.168 173.087C463.61 171.302 465.019 171.424 466.261 172.765C468.082 174.728 470 174.942 472.478 174.041C477.037 172.383 481.697 171.435 486.562 174.28C486.112 174.804 485.82 175.362 485.358 175.648C482.642 177.331 479.949 179.075 477.112 180.531C475.934 181.135 474.402 181.343 473.058 181.264C470.738 181.128 468.447 180.425 466.13 180.34C464.048 180.264 462.314 180.014 461.349 177.565Z" fill="#0075DD"/>
<path fill-rule="evenodd" clip-rule="evenodd" d="M498.177 226.49C498.329 223.848 498.548 221.603 498.565 219.355C498.585 216.619 502.735 213.023 505.24 213.977C506.226 214.352 507.641 216.182 507.407 216.771C505.808 220.776 504.516 225.222 499.44 226.383C498.861 226.516 498.246 226.485 498.177 226.49Z" fill="white"/>
<path fill-rule="evenodd" clip-rule="evenodd" d="M266.296 362.028C266.895 360.15 267.38 358.625 268.057 356.504C271.43 357.242 275.046 358.035 278.661 358.827C278.665 359.197 278.668 359.568 278.67 359.939C274.715 361.159 270.927 363.19 266.296 362.028Z" fill="#0075DD"/>
<g filter="url(#filter0_d_788_170)">
<path fill-rule="evenodd" clip-rule="evenodd" d="M211.669 202.034C208.739 202.034 206.364 204.409 206.364 207.339V224.684C206.364 227.614 208.739 229.989 211.669 229.989H266.256L266.256 229.989L273.784 237.402L281.311 229.989L281.311 229.989H335.898C338.828 229.989 341.204 227.614 341.204 224.684V207.339C341.204 204.409 338.828 202.034 335.898 202.034H211.669Z" fill="#FFC414"/>
</g>
<path fill-rule="evenodd" clip-rule="evenodd" d="M235.545 216.281C235.545 218.683 233.862 220.329 231.597 220.329C229.319 220.329 227.635 218.683 227.635 216.281C227.635 213.88 229.319 212.233 231.597 212.233C233.862 212.233 235.545 213.88 235.545 216.281ZM224.726 213.67V220.181H223.178V213.67H220.418V212.382H227.523V213.67H224.726ZM231.596 218.968C230.16 218.968 229.244 217.916 229.244 216.282C229.244 214.648 230.16 213.596 231.596 213.596C233.032 213.596 233.948 214.648 233.948 216.282C233.948 217.916 233.032 218.968 231.596 218.968ZM238.07 217.297V220.181H236.547V212.382H240.075C242.068 212.382 243.046 213.311 243.046 214.759C243.046 215.935 242.279 216.616 241.326 216.74C242.217 216.913 242.675 217.433 242.762 218.349C242.861 219.5 242.898 219.896 243.158 220.181H241.573C241.412 219.97 241.313 219.438 241.251 218.572C241.189 217.693 240.793 217.297 239.902 217.297H238.07ZM239.865 216.083H238.07V213.632H239.865C240.992 213.632 241.512 214.09 241.512 214.87C241.512 215.711 240.992 216.083 239.865 216.083ZM251.687 216.281C251.687 218.683 250.003 220.329 247.738 220.329C245.46 220.329 243.777 218.683 243.777 216.281C243.777 213.88 245.46 212.233 247.738 212.233C250.003 212.233 251.687 213.88 251.687 216.281ZM247.737 218.968C246.301 218.968 245.385 217.916 245.385 216.282C245.385 214.648 246.301 213.596 247.737 213.596C249.173 213.596 250.089 214.648 250.089 216.282C250.089 217.916 249.173 218.968 247.737 218.968ZM254.125 214.685V220.181H252.689V212.382H254.224L257.913 217.581V212.382H259.349V220.181H258.111L254.125 214.685ZM264.622 220.181V213.67H267.42V212.382H260.315V213.67H263.075V220.181H264.622ZM275.441 216.281C275.441 218.683 273.758 220.329 271.492 220.329C269.215 220.329 267.531 218.683 267.531 216.281C267.531 213.88 269.215 212.233 271.492 212.233C273.758 212.233 275.441 213.88 275.441 216.281ZM271.492 218.968C270.056 218.968 269.14 217.916 269.14 216.282C269.14 214.648 270.056 213.596 271.492 213.596C272.928 213.596 273.844 214.648 273.844 216.282C273.844 217.916 272.928 218.968 271.492 218.968ZM277.434 220.106C277.434 221.146 276.951 221.69 275.775 221.715V220.935C276.295 220.911 276.518 220.7 276.518 220.18H275.775V218.521H277.434V220.106ZM284.317 220.329C286.619 220.329 287.894 218.893 288.031 216.913L286.545 216.851C286.434 218.014 285.74 218.967 284.317 218.967C282.931 218.967 282.014 217.928 282.014 216.281C282.014 214.635 282.931 213.595 284.317 213.595C285.74 213.595 286.434 214.548 286.545 215.712L288.031 215.65C287.894 213.682 286.619 212.233 284.317 212.233C282.101 212.233 280.405 213.88 280.405 216.281C280.405 218.683 282.101 220.329 284.317 220.329ZM290.408 218.25L289.652 220.181H288.093L291.249 212.382H292.97L296.151 220.181H294.505L293.725 218.25H290.408ZM293.255 217.061H290.878L292.029 214.139H292.079L293.255 217.061ZM298.341 214.685V220.181H296.905V212.382H298.44L302.129 217.581V212.382H303.565V220.181H302.327L298.341 214.685ZM305.88 220.181L306.635 218.25H309.953L310.732 220.181H312.379L309.198 212.382H307.477L304.32 220.181H305.88ZM307.106 217.061H309.483L308.307 214.139H308.257L307.106 217.061ZM316.081 220.181C318.594 220.181 320.153 218.72 320.153 216.282C320.153 213.843 318.594 212.382 316.081 212.382H313.135V220.181H316.081ZM314.682 218.942H315.981C317.628 218.942 318.556 217.952 318.556 216.269C318.556 214.61 317.628 213.62 315.981 213.62H314.682V218.942ZM321.75 220.181L322.505 218.25H325.823L326.603 220.181H328.249L325.068 212.382H323.347L320.19 220.181H321.75ZM322.976 217.061H325.352L324.176 214.139H324.127L322.976 217.061Z" fill="#001B40"/>
<g filter="url(#filter1_d_788_170)">
<path fill-rule="evenodd" clip-rule="evenodd" d="M212.776 253.982C209.846 253.982 207.471 256.357 207.471 259.287V276.632C207.471 279.562 209.846 281.937 212.776 281.937H251.89L251.89 281.937L259.417 289.35L266.944 281.937L266.944 281.937H306.058C308.988 281.937 311.363 279.562 311.363 276.632V259.287C311.363 256.357 308.988 253.982 306.058 253.982H212.776Z" fill="#FFC414"/>
</g>
<path fill-rule="evenodd" clip-rule="evenodd" d="M260.262 270.976C259.878 271.843 258.9 272.276 257.786 272.276C255.607 272.276 253.986 270.642 253.986 268.228C253.986 265.827 255.706 264.18 257.898 264.18C260.15 264.18 261.45 265.418 261.611 267.386L260.101 267.448C260.002 266.297 259.234 265.542 257.935 265.542C256.511 265.542 255.595 266.594 255.595 268.228C255.595 269.899 256.536 270.964 258.058 270.964C259.16 270.964 259.965 270.332 260.188 269.342H258.12V268.191H261.636V272.127H260.262V270.976ZM223.522 269.243V272.128H222V264.329H225.527C227.52 264.329 228.498 265.257 228.498 266.706C228.498 267.882 227.731 268.563 226.778 268.686C227.669 268.86 228.127 269.38 228.214 270.296C228.313 271.447 228.35 271.843 228.61 272.128H227.025C226.864 271.917 226.765 271.385 226.703 270.518C226.642 269.639 226.245 269.243 225.354 269.243H223.522ZM223.522 268.03H225.317C226.443 268.03 226.963 267.658 226.963 266.816C226.963 266.037 226.443 265.579 225.317 265.579H223.522V268.03ZM230.591 272.128L231.346 270.197H234.664L235.443 272.128H237.09L233.909 264.329H232.188L229.031 272.128H230.591ZM231.816 269.007H234.193L233.017 266.086H232.967L231.816 269.007ZM243.514 272.128V270.84H239.392V264.329H237.844V272.128H243.514ZM250.334 270.84V272.128H244.504V264.329H250.223V265.616H246.026V267.51H249.319V268.785H246.026V270.84H250.334ZM252.971 272.128V264.329H251.424V272.128H252.971ZM264.483 272.128V268.785H268.333V272.128H269.88V264.329H268.333V267.51H264.483V264.329H262.936V272.128H264.483ZM272.653 272.053C272.653 273.093 272.17 273.637 270.994 273.662V272.882C271.514 272.857 271.737 272.647 271.737 272.127H270.994V270.468H272.653V272.053ZM279.239 272.276C281.108 272.276 282.593 271.372 282.593 269.095V264.329H281.046V268.946C281.046 270.283 280.476 270.976 279.239 270.976C278.013 270.976 277.444 270.283 277.444 268.934V264.329H275.909V269.095C275.909 271.372 277.369 272.276 279.239 272.276ZM289.983 269.912C289.983 271.446 288.659 272.276 286.901 272.276C284.895 272.276 283.447 271.236 283.447 269.354L284.871 269.293C284.933 270.506 285.812 271.05 286.901 271.05C287.866 271.05 288.485 270.667 288.485 270.011C288.485 269.416 288.015 269.194 287.198 269.033L285.712 268.76C284.499 268.537 283.658 267.869 283.658 266.582C283.658 265.121 284.809 264.18 286.629 264.18C288.671 264.18 289.822 265.232 289.847 266.965L288.423 267.015C288.374 265.95 287.681 265.393 286.616 265.393C285.7 265.393 285.18 265.802 285.18 266.47C285.18 267.04 285.589 267.238 286.294 267.374L287.73 267.634C289.265 267.919 289.983 268.649 289.983 269.912ZM291.828 272.128L292.583 270.197H295.9L296.68 272.128H298.327L295.145 264.329H293.425L290.268 272.128H291.828ZM293.053 269.007H295.43L294.254 266.086H294.204L293.053 269.007Z" fill="#001B40"/>
<g filter="url(#filter2_d_788_170)">
<path fill-rule="evenodd" clip-rule="evenodd" d="M458.139 175.51C455.209 175.51 452.833 177.885 452.833 180.815V198.16C452.833 201.09 455.209 203.465 458.139 203.465H535.936L535.936 203.465L543.463 210.877L550.99 203.465L550.99 203.465H628.788C631.718 203.465 634.093 201.09 634.093 198.16V180.815C634.093 177.885 631.718 175.51 628.788 175.51H458.139Z" fill="#FFC414"/>
</g>
<path fill-rule="evenodd" clip-rule="evenodd" d="M488.178 191.44C488.178 192.975 486.854 193.805 485.096 193.805C483.09 193.805 481.642 192.765 481.642 190.883L483.066 190.821C483.128 192.034 484.006 192.579 485.096 192.579C486.061 192.579 486.68 192.195 486.68 191.539C486.68 190.945 486.21 190.722 485.393 190.561L483.907 190.289C482.694 190.066 481.853 189.398 481.853 188.11C481.853 186.65 483.004 185.709 484.823 185.709C486.866 185.709 488.017 186.761 488.042 188.494L486.618 188.544C486.569 187.479 485.876 186.922 484.811 186.922C483.895 186.922 483.375 187.331 483.375 187.999C483.375 188.568 483.784 188.767 484.489 188.903L485.925 189.163C487.46 189.447 488.178 190.178 488.178 191.44ZM466.007 191.725L465.252 193.656H463.692L466.849 185.858H468.57L471.751 193.656H470.105L469.325 191.725H466.007ZM466.478 190.536H468.855L467.679 187.615H467.629L466.478 190.536ZM473.942 193.656V187.517H473.992L475.898 193.656H477.223L479.092 187.517H479.141V193.656H480.701V185.858H478.312L476.69 191.527H476.653L474.945 185.858H472.506V193.656H473.942ZM492.782 193.656V187.145H495.58V185.858H488.475V187.145H491.235V193.656H492.782ZM502.376 192.369V193.656H496.545V185.858H502.264V187.145H498.068V189.039H501.361V190.314H498.068V192.369H502.376ZM504.988 193.656V190.772H506.82C507.711 190.772 508.107 191.168 508.169 192.047C508.231 192.914 508.33 193.446 508.491 193.656H510.076C509.816 193.372 509.779 192.976 509.679 191.824C509.593 190.908 509.135 190.388 508.244 190.215C509.197 190.091 509.964 189.411 509.964 188.235C509.964 186.786 508.986 185.858 506.993 185.858H503.465V193.656H504.988ZM504.988 189.558H506.783C507.909 189.558 508.429 189.187 508.429 188.345C508.429 187.565 507.909 187.107 506.783 187.107H504.988V189.558ZM514.049 193.656C516.562 193.656 518.121 192.196 518.121 189.757C518.121 187.319 516.562 185.858 514.049 185.858H511.103V193.656H514.049ZM512.65 192.418H513.95C515.597 192.418 516.525 191.428 516.525 189.744C516.525 188.086 515.597 187.095 513.95 187.095H512.65V192.418ZM519.719 193.656L520.474 191.725H523.791L524.571 193.656H526.217L523.036 185.858H521.315L518.159 193.656H519.719ZM520.944 190.536H523.321L522.145 187.615H522.095L520.944 190.536ZM528.408 193.656V187.517H528.458L530.364 193.656H531.688L533.558 187.517H533.607V193.656H535.167V185.858H532.778L531.156 191.527H531.119L529.411 185.858H526.972V193.656H528.408ZM537.927 193.582C537.927 194.621 537.445 195.166 536.269 195.191V194.411C536.789 194.386 537.011 194.176 537.011 193.656H536.269V191.997H537.927V193.582ZM542.693 193.656V188.16L546.679 193.656H547.917V185.858H546.481V191.057L542.792 185.858H541.257V193.656H542.693ZM555.109 192.369V193.656H549.279V185.858H554.998V187.145H550.801V189.039H554.094V190.314H550.801V192.369H555.109ZM560.111 193.656V187.145H562.908V185.858H555.803V187.145H558.563V193.656H560.111ZM565.42 190.314V193.656H563.873V185.858H565.42V189.039H569.27V185.858H570.817V193.656H569.27V190.314H565.42ZM578.022 193.656V192.369H573.714V190.314H577.007V189.039H573.714V187.145H577.91V185.858H572.191V193.656H578.022ZM580.634 190.772V193.656H579.111V185.858H582.639C584.632 185.858 585.61 186.786 585.61 188.235C585.61 189.411 584.843 190.091 583.889 190.215C584.781 190.388 585.239 190.908 585.325 191.824C585.424 192.976 585.462 193.372 585.721 193.656H584.137C583.976 193.446 583.877 192.914 583.815 192.047C583.753 191.168 583.357 190.772 582.466 190.772H580.634ZM582.43 189.558H580.635V187.107H582.43C583.556 187.107 584.076 187.565 584.076 188.345C584.076 189.187 583.556 189.558 582.43 189.558ZM592.418 192.369V193.656H586.749V185.858H588.296V192.369H592.418ZM594.362 193.656L595.117 191.725H598.435L599.214 193.656H600.861L597.679 185.858H595.959L592.802 193.656H594.362ZM595.587 190.536H597.964L596.788 187.615H596.739L595.587 190.536ZM603.052 193.656V188.16L607.038 193.656H608.276V185.858H606.84V191.057L603.151 185.858H601.616V193.656H603.052ZM616.655 189.757C616.655 192.196 615.096 193.656 612.583 193.656H609.637V185.858H612.583C615.096 185.858 616.655 187.319 616.655 189.757ZM612.484 192.418H611.185V187.095H612.484C614.131 187.095 615.059 188.086 615.059 189.744C615.059 191.428 614.131 192.418 612.484 192.418ZM623.786 191.44C623.786 192.975 622.461 193.805 620.704 193.805C618.698 193.805 617.25 192.765 617.25 190.883L618.674 190.821C618.735 192.034 619.614 192.579 620.704 192.579C621.669 192.579 622.288 192.195 622.288 191.539C622.288 190.945 621.818 190.722 621.001 190.561L619.515 190.289C618.302 190.066 617.46 189.398 617.46 188.11C617.46 186.65 618.612 185.709 620.431 185.709C622.474 185.709 623.625 186.761 623.65 188.494L622.226 188.544C622.177 187.479 621.484 186.922 620.419 186.922C619.503 186.922 618.983 187.331 618.983 187.999C618.983 188.568 619.392 188.767 620.097 188.903L621.533 189.163C623.068 189.447 623.786 190.178 623.786 191.44Z" fill="#001B40"/>
<g filter="url(#filter3_d_788_170)">
<path fill-rule="evenodd" clip-rule="evenodd" d="M489.085 207.56C486.155 207.56 483.78 209.935 483.78 212.865V230.21C483.78 233.14 486.155 235.515 489.085 235.515H550.304L550.304 235.515L557.832 242.928L565.359 235.515L565.359 235.515H626.577C629.507 235.515 631.882 233.14 631.882 230.21V212.865C631.882 209.935 629.507 207.56 626.577 207.56H489.085Z" fill="#FFC414"/>
</g>
<path fill-rule="evenodd" clip-rule="evenodd" d="M571.416 224.114C571.039 224.965 570.079 225.391 568.985 225.391C566.845 225.391 565.252 223.786 565.252 221.415C565.252 219.056 566.942 217.439 569.094 217.439C571.307 217.439 572.583 218.655 572.741 220.588L571.258 220.649C571.161 219.518 570.407 218.777 569.131 218.777C567.732 218.777 566.833 219.81 566.833 221.415C566.833 223.056 567.757 224.102 569.252 224.102C570.334 224.102 571.124 223.482 571.343 222.509H569.313V221.379H572.766V225.245H571.416V224.114ZM503.907 222.412V225.245H502.412V217.585H505.877C507.834 217.585 508.795 218.497 508.795 219.92C508.795 221.075 508.041 221.743 507.105 221.865C507.98 222.035 508.43 222.546 508.515 223.445C508.613 224.576 508.649 224.965 508.904 225.245H507.348C507.19 225.038 507.093 224.515 507.032 223.664C506.971 222.801 506.582 222.412 505.707 222.412H503.907ZM497.507 222.132V225.245H495.988V217.586H501.471V218.85H497.507V220.892H500.571V222.132H497.507ZM505.671 221.221H503.908V218.814H505.671C506.777 218.814 507.288 219.264 507.288 220.03C507.288 220.856 506.777 221.221 505.671 221.221ZM511.561 223.348L510.819 225.245H509.288L512.388 217.585H514.078L517.202 225.245H515.585L514.819 223.348H511.561ZM514.357 222.182H512.023L513.154 219.313H513.202L514.357 222.182ZM519.323 219.847V225.245H517.913V217.585H519.421L523.044 222.692V217.585H524.454V225.245H523.238L519.323 219.847ZM527.28 225.245V222.704L528.071 221.889L530.758 225.245H532.581L529.189 220.904L532.326 217.585H530.551L527.28 221.05V217.585H525.761V225.245H527.28ZM534.678 222.132V225.245H533.158V217.585H538.641V218.85H534.678V220.892H537.742V222.132H534.678ZM542.781 225.391C544.617 225.391 546.075 224.503 546.075 222.266V217.586H544.556V222.12C544.556 223.433 543.996 224.114 542.781 224.114C541.577 224.114 541.018 223.433 541.018 222.108V217.586H539.51V222.266C539.51 224.503 540.945 225.391 542.781 225.391ZM548.792 222.412V225.245H547.297V217.586H550.762C552.719 217.586 553.68 218.497 553.68 219.92C553.68 221.075 552.926 221.743 551.99 221.865C552.865 222.035 553.315 222.546 553.4 223.446C553.497 224.576 553.534 224.965 553.789 225.245H552.233C552.075 225.038 551.978 224.515 551.917 223.664C551.856 222.801 551.467 222.412 550.592 222.412H548.792ZM550.555 221.221H548.792V218.814H550.555C551.661 218.814 552.172 219.264 552.172 220.03C552.172 220.856 551.661 221.221 550.555 221.221ZM558.415 218.85V225.245H556.895V218.85H554.184V217.585H561.163V218.85H558.415ZM560.767 226.752C561.922 226.728 562.396 226.193 562.396 225.171V223.615H560.767V225.244H561.497C561.497 225.755 561.278 225.962 560.767 225.986V226.752ZM579.738 225.245V223.98H575.507V221.962H578.741V220.71H575.507V218.85H579.629V217.585H574.012V225.245H579.738ZM582.273 222.412V225.245H580.777V217.585H584.242C586.2 217.585 587.16 218.497 587.16 219.92C587.16 221.075 586.406 221.743 585.47 221.865C586.346 222.035 586.795 222.546 586.88 223.445C586.978 224.576 587.014 224.965 587.27 225.245H585.713C585.555 225.038 585.458 224.515 585.397 223.664C585.336 222.801 584.947 222.412 584.072 222.412H582.273ZM584.035 221.221H582.273V218.814H584.035C585.142 218.814 585.652 219.264 585.652 220.03C585.652 220.856 585.142 221.221 584.035 221.221ZM589.658 219.215V225.245H588.248V217.585H590.643L592.32 223.154H592.357L593.949 217.585H596.296V225.245H594.764V219.215H594.715L592.88 225.245H591.579L589.706 219.215H589.658ZM598.539 225.245L599.281 223.348H602.539L603.305 225.245H604.922L601.797 217.586H600.107L597.007 225.245H598.539ZM599.743 222.182H602.077L600.922 219.313H600.873L599.743 222.182ZM607.043 225.245V219.847L610.958 225.245H612.174V217.585H610.763V222.692L607.14 217.585H605.633V225.245H607.043ZM617.333 222.29V225.245H615.85V222.29L612.884 217.585H614.574L616.653 220.832L618.659 217.585H620.3L617.333 222.29Z" fill="#001B40"/>
<g filter="url(#filter4_d_788_170)">
<path fill-rule="evenodd" clip-rule="evenodd" d="M521.137 288.242C518.207 288.242 515.832 285.867 515.832 282.937V265.592C515.832 262.662 518.207 260.287 521.137 260.287H571.303L571.303 260.287L578.831 252.874L586.358 260.287L586.358 260.287H636.524C639.454 260.287 641.829 262.662 641.829 265.592V282.937C641.829 285.867 639.454 288.242 636.524 288.242H521.137Z" fill="#FFC414"/>
</g>
<path fill-rule="evenodd" clip-rule="evenodd" d="M550.661 277.607C550.278 278.474 549.3 278.907 548.186 278.907C546.007 278.907 544.385 277.273 544.385 274.859C544.385 272.458 546.106 270.812 548.297 270.812C550.55 270.812 551.85 272.049 552.011 274.018L550.5 274.079C550.401 272.928 549.634 272.173 548.334 272.173C546.911 272.173 545.994 273.225 545.994 274.859C545.994 276.53 546.935 277.595 548.458 277.595C549.56 277.595 550.364 276.964 550.587 275.973H548.52V274.822H552.035V278.759H550.661V277.607ZM535.856 277.472V278.759H529.469V277.608L533.777 272.248H529.518V270.96H535.745V272.149L531.425 277.472H535.856ZM538.618 276.828L537.862 278.759H536.303L539.459 270.96H541.18L544.361 278.759H542.715L541.935 276.828H538.618ZM541.464 275.639H539.087L540.239 272.717H540.288L541.464 275.639ZM554.858 278.759V275.875H556.69C557.581 275.875 557.977 276.271 558.039 277.15C558.101 278.016 558.2 278.549 558.361 278.759H559.945C559.685 278.474 559.648 278.078 559.549 276.927C559.462 276.011 559.004 275.491 558.113 275.318C559.066 275.194 559.834 274.513 559.834 273.337C559.834 271.889 558.856 270.96 556.863 270.96H553.335V278.759H554.858ZM554.857 274.661H556.652C557.779 274.661 558.299 274.29 558.299 273.448C558.299 272.668 557.779 272.21 556.652 272.21H554.857V274.661ZM566.803 278.759V277.472H562.495V275.417H565.787V274.142H562.495V272.248H566.691V270.96H560.972V278.759H566.803ZM574.403 276.617C574.403 277.967 573.376 278.759 571.556 278.759H567.892V270.96H571.358C573.326 270.96 574.168 271.802 574.168 273.077C574.168 273.956 573.574 274.575 572.732 274.711C573.673 274.884 574.403 275.503 574.403 276.617ZM571.259 274.203H569.402V272.21H571.259C572.188 272.21 572.584 272.631 572.584 273.213C572.584 273.794 572.188 274.203 571.259 274.203ZM569.402 277.509H571.383C572.348 277.509 572.819 277.1 572.819 276.456C572.819 275.8 572.348 275.379 571.383 275.379H569.402V277.509ZM575.109 280.293C576.285 280.269 576.768 279.724 576.768 278.684V277.1H575.109V278.758H575.852C575.852 279.278 575.629 279.489 575.109 279.513V280.293ZM587.365 275.491C587.228 277.471 585.953 278.907 583.651 278.907C581.435 278.907 579.739 277.261 579.739 274.859C579.739 272.458 581.435 270.812 583.651 270.812C585.953 270.812 587.228 272.26 587.365 274.228L585.879 274.29C585.768 273.126 585.074 272.173 583.651 272.173C582.265 272.173 581.348 273.213 581.348 274.859C581.348 276.506 582.265 277.546 583.651 277.546C585.074 277.546 585.768 276.592 585.879 275.429L587.365 275.491ZM589.877 278.759V275.875H591.709C592.6 275.875 592.996 276.271 593.058 277.15C593.12 278.016 593.219 278.548 593.38 278.759H594.964C594.704 278.474 594.667 278.078 594.568 276.927C594.481 276.011 594.023 275.491 593.132 275.318C594.085 275.194 594.853 274.513 594.853 273.337C594.853 271.889 593.875 270.96 591.882 270.96H588.354V278.759H589.877ZM589.876 274.661H591.671C592.798 274.661 593.318 274.29 593.318 273.448C593.318 272.668 592.798 272.21 591.671 272.21H589.876V274.661ZM599.545 278.907C601.81 278.907 603.494 277.261 603.494 274.859C603.494 272.458 601.81 270.812 599.545 270.812C597.267 270.812 595.584 272.458 595.584 274.859C595.584 277.261 597.267 278.907 599.545 278.907ZM597.193 274.86C597.193 276.494 598.109 277.546 599.545 277.546C600.981 277.546 601.897 276.494 601.897 274.86C601.897 273.226 600.981 272.174 599.545 272.174C598.109 272.174 597.193 273.226 597.193 274.86ZM605.078 278.759L605.833 276.828H609.15L609.93 278.759H611.577L608.395 270.96H606.675L603.518 278.759H605.078ZM606.304 275.639H608.68L607.504 272.717H607.455L606.304 275.639ZM615.241 278.759V272.248H618.039V270.96H610.933V272.248H613.694V278.759H615.241ZM620.551 270.96V278.759H619.004V270.96H620.551ZM622.878 278.759L623.633 276.828H626.951L627.731 278.759H629.377L626.196 270.96H624.475L621.318 278.759H622.878ZM624.104 275.639H626.48L625.304 272.717H625.255L624.104 275.639Z" fill="#001B40"/>
<g filter="url(#filter5_d_788_170)">
<path fill-rule="evenodd" clip-rule="evenodd" d="M92.3047 371.137C89.3747 371.137 86.9995 368.762 86.9995 365.832V348.487C86.9995 345.557 89.3747 343.182 92.3047 343.182H161.26L161.26 343.182L168.787 335.769L176.314 343.182L176.314 343.182H245.27C248.2 343.182 250.575 345.557 250.575 348.487V365.832C250.575 368.762 248.2 371.137 245.27 371.137H92.3047Z" fill="#FFC414"/>
</g>
<path fill-rule="evenodd" clip-rule="evenodd" d="M101.965 361.802C103.723 361.802 105.047 360.972 105.047 359.437C105.047 358.175 104.329 357.444 102.794 357.16L101.358 356.9C100.653 356.764 100.244 356.566 100.244 355.996C100.244 355.328 100.764 354.919 101.68 354.919C102.745 354.919 103.438 355.476 103.487 356.541L104.911 356.491C104.886 354.758 103.735 353.706 101.693 353.706C99.8729 353.706 98.7217 354.647 98.7217 356.108C98.7217 357.395 99.5634 358.063 100.777 358.286L102.262 358.558C103.079 358.719 103.549 358.942 103.549 359.536C103.549 360.192 102.93 360.576 101.965 360.576C100.876 360.576 99.9967 360.032 99.9348 358.818L98.5112 358.88C98.5112 360.762 99.9595 361.802 101.965 361.802ZM106.892 361.654L107.647 359.722H110.964L111.744 361.654H113.391L110.209 353.855H108.489L105.332 361.654H106.892ZM108.117 358.533H110.494L109.318 355.612H109.268L108.117 358.533ZM115.581 361.653V356.157L119.567 361.653H120.805V353.855H119.369V359.054L115.68 353.855H114.145V361.653H115.581ZM130.064 360.366V361.654H124.395V353.855H125.942V360.366H130.064ZM134.001 361.802C135.87 361.802 137.355 360.898 137.355 358.621V353.855H135.808V358.472C135.808 359.809 135.239 360.502 134.001 360.502C132.775 360.502 132.206 359.809 132.206 358.46V353.855H130.671V358.621C130.671 360.898 132.132 361.802 134.001 361.802ZM140.178 353.855V361.654H138.631V353.855H140.178ZM144.584 361.802C146.342 361.802 147.666 360.972 147.666 359.437C147.666 358.175 146.948 357.444 145.413 357.16L143.977 356.9C143.272 356.764 142.863 356.566 142.863 355.996C142.863 355.328 143.383 354.919 144.299 354.919C145.364 354.919 146.057 355.476 146.107 356.541L147.53 356.491C147.505 354.758 146.354 353.706 144.312 353.706C142.492 353.706 141.341 354.647 141.341 356.108C141.341 357.395 142.183 358.063 143.396 358.286L144.881 358.558C145.698 358.719 146.168 358.942 146.168 359.536C146.168 360.192 145.55 360.576 144.584 360.576C143.495 360.576 142.616 360.032 142.554 358.818L141.13 358.88C141.13 360.762 142.579 361.802 144.584 361.802ZM152.519 358.967V361.653H150.984V353.855H154.091C156.084 353.855 157.223 354.783 157.223 356.405C157.223 358.027 156.084 358.967 154.091 358.967H152.519ZM154.042 357.704H152.52V355.104H154.042C155.206 355.104 155.713 355.575 155.713 356.417C155.713 357.258 155.206 357.704 154.042 357.704ZM165.665 357.754C165.665 360.155 163.982 361.802 161.717 361.802C159.439 361.802 157.755 360.155 157.755 357.754C157.755 355.352 159.439 353.706 161.717 353.706C163.982 353.706 165.665 355.352 165.665 357.754ZM161.716 360.441C160.28 360.441 159.364 359.389 159.364 357.755C159.364 356.121 160.28 355.068 161.716 355.068C163.152 355.068 164.068 356.121 164.068 357.755C164.068 359.389 163.152 360.441 161.716 360.441ZM170.085 355.142V361.654H168.537V355.142H165.777V353.855H172.882V355.142H170.085ZM176.955 361.802C179.221 361.802 180.904 360.155 180.904 357.754C180.904 355.352 179.221 353.706 176.955 353.706C174.678 353.706 172.994 355.352 172.994 357.754C172.994 360.155 174.678 361.802 176.955 361.802ZM174.603 357.755C174.603 359.389 175.519 360.441 176.954 360.441C178.39 360.441 179.306 359.389 179.306 357.755C179.306 356.121 178.39 355.068 176.954 355.068C175.519 355.068 174.603 356.121 174.603 357.755ZM184.939 361.802C186.697 361.802 188.021 360.972 188.021 359.437C188.021 358.175 187.303 357.444 185.768 357.16L184.332 356.9C183.627 356.764 183.218 356.566 183.218 355.996C183.218 355.328 183.738 354.919 184.654 354.919C185.719 354.919 186.412 355.476 186.462 356.541L187.885 356.491C187.86 354.758 186.709 353.706 184.667 353.706C182.847 353.706 181.696 354.647 181.696 356.108C181.696 357.395 182.538 358.063 183.751 358.286L185.236 358.558C186.053 358.719 186.523 358.942 186.523 359.536C186.523 360.192 185.905 360.576 184.939 360.576C183.85 360.576 182.971 360.032 182.909 358.818L181.485 358.88C181.485 360.762 182.934 361.802 184.939 361.802ZM190.658 353.855V361.654H189.11V353.855H190.658ZM191.772 363.188C192.948 363.163 193.431 362.618 193.431 361.579V359.994H191.772V361.653H192.515C192.515 362.173 192.292 362.383 191.772 362.408V363.188ZM198.197 355.514V361.654H196.761V353.855H199.2L200.908 359.524H200.945L202.567 353.855H204.956V361.654H203.396V355.514H203.347L201.478 361.654H200.153L198.247 355.514H198.197ZM212.148 361.654V360.366H207.84V358.311H211.133V357.036H207.84V355.142H212.036V353.855H206.317V361.654H212.148ZM216.455 358.769L214.351 361.654H212.63L215.638 357.655L212.878 353.855H214.698L216.567 356.455L218.424 353.855H220.144L217.384 357.556L220.392 361.654H218.572L216.455 358.769ZM222.707 361.654V353.855H221.159V361.654H222.707ZM231.347 358.385C231.211 360.366 229.936 361.802 227.633 361.802C225.418 361.802 223.722 360.155 223.722 357.754C223.722 355.352 225.418 353.706 227.633 353.706C229.936 353.706 231.211 355.154 231.347 357.123L229.862 357.184C229.75 356.021 229.057 355.068 227.633 355.068C226.247 355.068 225.331 356.108 225.331 357.754C225.331 359.4 226.247 360.44 227.633 360.44C229.057 360.44 229.75 359.487 229.862 358.323L231.347 358.385ZM235.94 361.802C238.205 361.802 239.888 360.155 239.888 357.754C239.888 355.352 238.205 353.706 235.94 353.706C233.662 353.706 231.979 355.352 231.979 357.754C231.979 360.155 233.662 361.802 235.94 361.802ZM233.587 357.755C233.587 359.389 234.503 360.441 235.939 360.441C237.375 360.441 238.291 359.389 238.291 357.755C238.291 356.121 237.375 355.068 235.939 355.068C234.503 355.068 233.587 356.121 233.587 357.755Z" fill="#001B40"/>
<defs>
<filter id="filter0_d_788_170" x="205.259" y="200.929" width="143.681" height="44.2096" filterUnits="userSpaceOnUse" color-interpolation-filters="sRGB">
<feFlood flood-opacity="0" result="BackgroundImageFix"/>
<feColorMatrix in="SourceAlpha" type="matrix" values="0 0 0 0 0 0 0 0 0 0 0 0 0 0 0 0 0 0 127 0" result="hardAlpha"/>
<feOffset dx="3.31572" dy="3.31572"/>
<feGaussianBlur stdDeviation="2.21048"/>
<feColorMatrix type="matrix" values="0 0 0 0 0 0 0 0 0 0.105882 0 0 0 0 0.25098 0 0 0 0.22 0"/>
<feBlend mode="normal" in2="BackgroundImageFix" result="effect1_dropShadow_788_170"/>
<feBlend mode="normal" in="SourceGraphic" in2="effect1_dropShadow_788_170" result="shape"/>
</filter>
<filter id="filter1_d_788_170" x="206.365" y="252.877" width="112.734" height="44.2096" filterUnits="userSpaceOnUse" color-interpolation-filters="sRGB">
<feFlood flood-opacity="0" result="BackgroundImageFix"/>
<feColorMatrix in="SourceAlpha" type="matrix" values="0 0 0 0 0 0 0 0 0 0 0 0 0 0 0 0 0 0 127 0" result="hardAlpha"/>
<feOffset dx="3.31572" dy="3.31572"/>
<feGaussianBlur stdDeviation="2.21048"/>
<feColorMatrix type="matrix" values="0 0 0 0 0 0 0 0 0 0.105882 0 0 0 0 0.25098 0 0 0 0.22 0"/>
<feBlend mode="normal" in2="BackgroundImageFix" result="effect1_dropShadow_788_170"/>
<feBlend mode="normal" in="SourceGraphic" in2="effect1_dropShadow_788_170" result="shape"/>
</filter>
<filter id="filter2_d_788_170" x="451.728" y="174.405" width="190.101" height="44.2096" filterUnits="userSpaceOnUse" color-interpolation-filters="sRGB">
<feFlood flood-opacity="0" result="BackgroundImageFix"/>
<feColorMatrix in="SourceAlpha" type="matrix" values="0 0 0 0 0 0 0 0 0 0 0 0 0 0 0 0 0 0 127 0" result="hardAlpha"/>
<feOffset dx="3.31572" dy="3.31572"/>
<feGaussianBlur stdDeviation="2.21048"/>
<feColorMatrix type="matrix" values="0 0 0 0 0 0 0 0 0 0.105882 0 0 0 0 0.25098 0 0 0 0.22 0"/>
<feBlend mode="normal" in2="BackgroundImageFix" result="effect1_dropShadow_788_170"/>
<feBlend mode="normal" in="SourceGraphic" in2="effect1_dropShadow_788_170" result="shape"/>
</filter>
<filter id="filter3_d_788_170" x="482.675" y="206.455" width="156.944" height="44.2096" filterUnits="userSpaceOnUse" color-interpolation-filters="sRGB">
<feFlood flood-opacity="0" result="BackgroundImageFix"/>
<feColorMatrix in="SourceAlpha" type="matrix" values="0 0 0 0 0 0 0 0 0 0 0 0 0 0 0 0 0 0 127 0" result="hardAlpha"/>
<feOffset dx="3.31572" dy="3.31572"/>
<feGaussianBlur stdDeviation="2.21048"/>
<feColorMatrix type="matrix" values="0 0 0 0 0 0 0 0 0 0.105882 0 0 0 0 0.25098 0 0 0 0.22 0"/>
<feBlend mode="normal" in2="BackgroundImageFix" result="effect1_dropShadow_788_170"/>
<feBlend mode="normal" in="SourceGraphic" in2="effect1_dropShadow_788_170" result="shape"/>
</filter>
<filter id="filter4_d_788_170" x="514.727" y="251.769" width="134.839" height="44.2096" filterUnits="userSpaceOnUse" color-interpolation-filters="sRGB">
<feFlood flood-opacity="0" result="BackgroundImageFix"/>
<feColorMatrix in="SourceAlpha" type="matrix" values="0 0 0 0 0 0 0 0 0 0 0 0 0 0 0 0 0 0 127 0" result="hardAlpha"/>
<feOffset dx="3.31572" dy="3.31572"/>
<feGaussianBlur stdDeviation="2.21048"/>
<feColorMatrix type="matrix" values="0 0 0 0 0 0 0 0 0 0.105882 0 0 0 0 0.25098 0 0 0 0.22 0"/>
<feBlend mode="normal" in2="BackgroundImageFix" result="effect1_dropShadow_788_170"/>
<feBlend mode="normal" in="SourceGraphic" in2="effect1_dropShadow_788_170" result="shape"/>
</filter>
<filter id="filter5_d_788_170" x="85.8943" y="334.664" width="172.418" height="44.2096" filterUnits="userSpaceOnUse" color-interpolation-filters="sRGB">
<feFlood flood-opacity="0" result="BackgroundImageFix"/>
<feColorMatrix in="SourceAlpha" type="matrix" values="0 0 0 0 0 0 0 0 0 0 0 0 0 0 0 0 0 0 127 0" result="hardAlpha"/>
<feOffset dx="3.31572" dy="3.31572"/>
<feGaussianBlur stdDeviation="2.21048"/>
<feColorMatrix type="matrix" values="0 0 0 0 0 0 0 0 0 0.105882 0 0 0 0 0.25098 0 0 0 0.22 0"/>
<feBlend mode="normal" in2="BackgroundImageFix" result="effect1_dropShadow_788_170"/>
<feBlend mode="normal" in="SourceGraphic" in2="effect1_dropShadow_788_170" result="shape"/>
</filter>
</defs>
</svg>
