<svg
	id="currency-icon-85574"
	width="18px"
	height="17px"
	viewBox="0 0 18 17"
	version="1.1"
>
	<defs>
		<path
			d="M12,4.27148438 C13.1132868,4.27148438 14.1621045,4.48534942 15.1464844,4.91308594 C16.1308643,5.34082245 16.9892542,5.92089478 17.7216797,6.65332031 C18.4541052,7.38574585 19.0341775,8.2441357 19.4619141,9.22851562 C19.8896506,10.2128955 20.1035156,11.2617132 20.1035156,12.375 C20.1035156,13.4882868 19.8896506,14.5371045 19.4619141,15.5214844 C19.0341775,16.5058643 18.4541052,17.3642542 17.7216797,18.0966797 C16.9892542,18.8291052 16.1308643,19.4091775 15.1464844,19.8369141 C14.1621045,20.2646506 13.1132868,20.4785156 12,20.4785156 C10.8867132,20.4785156 9.83789555,20.2646506 8.85351562,19.8369141 C7.8691357,19.4091775 7.01074585,18.8291052 6.27832031,18.0966797 C5.54589478,17.3642542 4.96582245,16.5058643 4.53808594,15.5214844 C4.11034942,14.5371045 3.89648438,13.4882868 3.89648438,12.375 C3.89648438,11.2617132 4.11034942,10.2128955 4.53808594,9.22851562 C4.96582245,8.2441357 5.54589478,7.38574585 6.27832031,6.65332031 C7.01074585,5.92089478 7.8691357,5.34082245 8.85351562,4.91308594 C9.83789555,4.48534942 10.8867132,4.27148438 12,4.27148438 Z M12,19.125 C12.9375047,19.125 13.8134725,18.9492205 14.6279297,18.5976562 C15.4423869,18.246092 16.1572235,17.7626984 16.7724609,17.1474609 C17.3876984,16.5322235 17.871092,15.8144572 18.2226562,14.9941406 C18.5742205,14.173824 18.75,13.3007859 18.75,12.375 C18.75,11.4374953 18.5742205,10.5615275 18.2226562,9.74707031 C17.871092,8.93261312 17.3876984,8.21777651 16.7724609,7.60253906 C16.1572235,6.98730161 15.4423869,6.50390801 14.6279297,6.15234375 C13.8134725,5.80077949 12.9375047,5.625 12,5.625 C11.0624953,5.625 10.1865275,5.80077949 9.37207031,6.15234375 C8.55761312,6.50390801 7.84277651,6.98730161 7.22753906,7.60253906 C6.61230161,8.21777651 6.12890801,8.93261312 5.77734375,9.74707031 C5.42577949,10.5615275 5.25,11.4374953 5.25,12.375 C5.25,13.3125047 5.42577949,14.1884725 5.77734375,15.0029297 C6.12890801,15.8173869 6.61230161,16.5322235 7.22753906,17.1474609 C7.84277651,17.7626984 8.55761312,18.246092 9.37207031,18.5976562 C10.1865275,18.9492205 11.0624953,19.125 12,19.125 Z M12.4746094,11.7246094 C13.0605498,11.7246094 13.5585917,11.9296854 13.96875,12.3398438 C14.3789083,12.7500021 14.5839844,13.2480439 14.5839844,13.8339844 C14.5839844,14.3964872 14.3906269,14.8798808 14.0039062,15.2841797 C13.6171856,15.6884786 13.1425809,15.9082029 12.5800781,15.9433594 L12.5800781,16.3828125 C12.5800781,16.5703134 12.5156256,16.728515 12.3867188,16.8574219 C12.2578119,16.9863288 12.0996103,17.0507812 11.9121094,17.0507812 C11.7246084,17.0507812 11.5634772,16.9863288 11.4287109,16.8574219 C11.2939446,16.728515 11.2265625,16.5703134 11.2265625,16.3828125 L11.2265625,15.9082031 C10.9218735,15.8613279 10.6435559,15.7529305 10.3916016,15.5830078 C10.1396472,15.4130851 9.93164145,15.2050794 9.76757812,14.9589844 C9.7324217,14.9003903 9.70605478,14.8417972 9.68847656,14.7832031 C9.67089835,14.7246091 9.66210938,14.6601566 9.66210938,14.5898438 C9.66210938,14.4023428 9.72656186,14.2441413 9.85546875,14.1152344 C9.98437564,13.9863275 10.1425772,13.921875 10.3300781,13.921875 C10.4472662,13.921875 10.5556636,13.9482419 10.6552734,14.0009766 C10.7548833,14.0537112 10.8398434,14.1269527 10.9101562,14.2207031 L10.9101562,14.2382812 C10.9804691,14.3437505 11.0742182,14.4287106 11.1914062,14.4931641 C11.3085943,14.5576175 11.4374993,14.5898438 11.578125,14.5898438 L12.4746094,14.5898438 C12.6855479,14.5898438 12.8642571,14.5166023 13.0107422,14.3701172 C13.1572273,14.2236321 13.2304688,14.0449229 13.2304688,13.8339844 C13.2304688,13.6230458 13.1572273,13.441407 13.0107422,13.2890625 C12.8642571,13.136718 12.6855479,13.0605469 12.4746094,13.0605469 L11.5429688,13.0605469 C10.9570283,13.0605469 10.4589864,12.8554708 10.0488281,12.4453125 C9.63866982,12.0351542 9.43359375,11.5371123 9.43359375,10.9511719 C9.43359375,10.4238255 9.60644358,9.96386915 9.95214844,9.57128906 C10.2978533,9.17870897 10.7226537,8.94726598 11.2265625,8.87695312 L11.2265625,8.40234375 C11.2265625,8.21484281 11.2939446,8.05664127 11.4287109,7.92773438 C11.5634772,7.79882748 11.7246084,7.734375 11.9121094,7.734375 C12.0996103,7.734375 12.2578119,7.79882748 12.3867188,7.92773438 C12.5156256,8.05664127 12.5800781,8.21484281 12.5800781,8.40234375 L12.5800781,8.859375 C12.9433612,8.88281262 13.2744126,8.98828031 13.5732422,9.17578125 C13.8720718,9.36328219 14.1093741,9.60351416 14.2851562,9.89648438 C14.3203127,9.94335961 14.3466796,9.99609346 14.3642578,10.0546875 C14.381836,10.1132815 14.390625,10.1718747 14.390625,10.2304688 C14.390625,10.4179697 14.3232429,10.5791009 14.1884766,10.7138672 C14.0537103,10.8486335 13.8925791,10.9160156 13.7050781,10.9160156 C13.58789,10.9160156 13.476563,10.886719 13.3710938,10.828125 C13.2656245,10.769531 13.183594,10.6875005 13.125,10.5820312 C13.0546871,10.4648432 12.9609381,10.3710941 12.84375,10.3007812 C12.7265619,10.2304684 12.5917976,10.1953125 12.4394531,10.1953125 L11.5429688,10.1953125 C11.3320302,10.1953125 11.1503914,10.268554 10.9980469,10.4150391 C10.8457024,10.5615242 10.7695312,10.7402333 10.7695312,10.9511719 C10.7695312,11.1621104 10.8457024,11.3437492 10.9980469,11.4960938 C11.1503914,11.6484383 11.3320302,11.7246094 11.5429688,11.7246094 L12.4746094,11.7246094 Z"
			id="currency-85574"
		></path>
	</defs>
	<g
		stroke="none"
		stroke-width="1"
		fill="none"
	 	fill-rule="evenodd"
	>
		<g
			transform="translate(-3.000000, -4.000000)"
		>
			<mask fill="white">
				<use href="#currency-85574"></use>
			</mask>
			<use fill="currentColor" href="#currency-85574"></use>
		</g>
	</g>
</svg>
