<svg
		id="percent-icon-57234"
		width="17px" height="15px" viewBox="0 0 17 15" version="1.1"
>
	<defs>
		<path
				d="M15.5684843,5 C16.4285439,5 17.1371,5.66292027 17.2093024,6.50496088 L17.2153609,6.64687655 L17.2153609,7.37479598 C17.2153609,7.71569943 16.9386856,7.99237469 16.5977822,7.99237469 C16.2874956,7.99237469 16.0309708,7.76371745 15.9868943,7.4660176 L15.9802034,7.37479598 L15.9802034,6.64687655 C15.9802034,6.44837646 15.8386686,6.28202906 15.6513082,6.24354378 L15.5684843,6.23515741 L7.33945392,6.23515741 C7.14095383,6.23515741 6.97460643,6.3766923 6.93612115,6.56405265 L6.92773478,6.64687655 L6.92773478,15.7298124 L11.1202708,15.7298124 C12.0054669,15.7298124 12.7255637,16.4659662 12.7255637,17.3709249 C12.7255637,18.0552021 13.2529759,18.6118464 13.9010218,18.6118464 L13.9674115,18.6156548 L14.0319485,18.6262566 L14.9509056,18.6262566 C15.4804313,18.6262566 15.9181418,18.2242064 15.9741498,17.7089893 L15.9802034,17.5969587 L15.9802034,16.9649698 C15.9802034,16.6240664 16.256467,16.3473911 16.5977822,16.3473911 C16.9076944,16.3473911 17.1645255,16.5760484 17.2086608,16.8737482 L17.2153609,16.9649698 L17.2153609,17.5969587 C17.2153609,18.7932773 16.2821508,19.7763339 15.105681,19.8561784 L14.9509056,19.861414 L7.95703263,19.861414 L7.89064291,19.8576056 L7.82610594,19.8470038 L6.41061555,19.8470038 C5.1343521,19.8470038 4.08689118,18.8236532 4.00513633,17.5335256 L4,17.3709249 L4,17.2004732 C4,16.437485 4.57258877,15.8079792 5.30243029,15.7365598 L5.44101698,15.7298124 L5.69257737,15.7298124 L5.69257737,6.64687655 C5.69257737,5.78642689 6.35549765,5.07821979 7.19753825,5.00605519 L7.33945392,5 L15.5684843,5 Z M11.1202708,16.9649698 L5.44101698,16.9649698 C5.34632158,16.9649698 5.26649381,17.0384503 5.24251498,17.1379967 L5.23515741,17.2004732 L5.23515741,17.3709249 C5.23515741,18.0124348 5.6987033,18.5417673 6.29061992,18.605428 L6.41061555,18.6118464 L11.8152527,18.6118464 C11.6085697,18.2466515 11.4904063,17.8229925 11.4904063,17.3709249 C11.4904063,17.1469497 11.3244834,16.9649698 11.1202708,16.9649698 Z M18.5133054,12.480772 C19.4487313,12.480772 20.21,13.241629 20.21,14.1774666 C20.21,15.1124808 19.4487313,15.8737494 18.5133054,15.8737494 C17.5778796,15.8737494 16.8166109,15.1124808 16.8166109,14.1774666 C16.8166109,13.241629 17.5778796,12.480772 18.5133054,12.480772 Z M19.7608556,8.57384562 C19.9753155,8.78830555 19.9991444,9.12085262 19.8323422,9.36155413 L19.7608556,9.44710191 L14.0165502,15.1914073 C13.8959165,15.312041 13.7378163,15.372152 13.5801279,15.372152 C13.4220278,15.372152 13.2639276,15.312041 13.1432939,15.1914073 C12.928834,14.9769474 12.9050051,14.6444003 13.0718073,14.4036988 L13.1432939,14.318151 L18.8875993,8.57384562 C19.1288667,8.33257821 19.5195882,8.33257821 19.7608556,8.57384562 Z M18.5,13.7159294 C18.2243533,13.7159294 18,13.9403828 18,14.2161526 C18,14.4914761 18.2243533,14.7159294 18.5,14.7159294 C18.7756467,14.7159294 19,14.4914761 19,14.2161526 C19,13.9403828 18.7756467,13.7159294 18.5,13.7159294 Z M14.0239611,7.99122187 C14.959387,7.99122187 15.720244,8.75249056 15.720244,9.68791644 C15.720244,10.6229306 14.959387,11.3841993 14.0239611,11.3841993 C13.0885353,11.3841993 12.3272666,10.6229306 12.3272666,9.68791644 C12.3272666,8.75249056 13.0885353,7.99122187 14.0239611,7.99122187 Z M14.0002231,9.22637928 C13.7244534,9.22637928 13.5,9.45083265 13.5,9.7266024 C13.5,10.0019259 13.7244534,10.2263793 14.0002231,10.2263793 C14.2755466,10.2263793 14.5,10.0019259 14.5,9.7266024 C14.5,9.45083265 14.2755466,9.22637928 14.0002231,9.22637928 Z"
				id="percent-57234"></path>
	</defs>
	<g
			stroke="none"
			stroke-width="1"
			fill="none"
			fill-rule="evenodd"
	>
		<g transform="translate(-4.000000, -5.000000)">
			<mask fill="white">
				<use href="#percent"></use>
			</mask>
			<use
					fill="currentColor"
					href="#percent-57234"
			></use>
		</g>
	</g>
</svg>
