<svg xmlns="http://www.w3.org/2000/svg" viewBox="0 0 125 79" width="140" height="77"><defs><style>.a{fill:#648c0f;}.b{fill:#86c620;}.c{fill:#fff;}</style></defs><title>fb-classic-white</title><path class="a" d="M96.1,18.5s-2.1,1.2-5.9,6.8c-.6.9-1,.8-1,.8s.2,1.3,2.1.9c0,0,2.8-6.6,5.7-7.9Z"/><path class="b" d="M93.4,21.8s1.3-18,15.9-17.5c12.1.4,16-4.3,16-4.3S125.4,25.6,93.4,21.8Z"/><path class="a" d="M95.1,20.1s6-9.1,13.2-9.8A23.81,23.81,0,0,0,120,6a19.24,19.24,0,0,1-12.1,6.2C101.2,12.8,95.1,20.1,95.1,20.1Z"/><path class="c" d="M94,27.1a6,6,0,0,0-5.2,2.7,13,13,0,0,0-1.9,7.4c0,3.4.6,6,1.9,7.9.1.2.3.4.4.6,3.4.2,6.6.4,9.3.6a4,4,0,0,0,1-1.2,13.88,13.88,0,0,0,1.9-7.7c0-3.3-.6-5.8-1.9-7.6A6.47,6.47,0,0,0,94,27.1Zm1.9,15A2.06,2.06,0,0,1,94,43.3a1.92,1.92,0,0,1-1.8-1.2,12.75,12.75,0,0,1-.6-4.9q0-5.7,2.4-5.7c1.7,0,2.6,1.9,2.6,5.7A12.19,12.19,0,0,1,95.9,42.1ZM.2,47.3H5.5V38h4.9V33.1H5.6V28.8h5.5v-5H.2ZM115.1,27.7h-4.7l-4.2,9.2h-.1V27.7h-4.5V46.6c1.3.1,2.3.3,3,.4s1,.2,1.5.3h0V39.1h.1l3.8,8.2h4.9l-4.4-9.6Zm8.8,10.4a13,13,0,0,0-2.7-2.6c-1.5-1-2.2-2-2.2-2.8a1.43,1.43,0,0,1,.5-1.1,1.84,1.84,0,0,1,1.3-.4,7.56,7.56,0,0,1,3.2,1.1V27.9a9.86,9.86,0,0,0-3.7-.8,5.28,5.28,0,0,0-4.1,1.6,5.42,5.42,0,0,0-1.6,4.1,5.89,5.89,0,0,0,1,3.4,17,17,0,0,0,3.3,3.3,8.14,8.14,0,0,1,1.3,1.2,1.5,1.5,0,0,1,.4,1.1,1.66,1.66,0,0,1-.5,1.2,1.9,1.9,0,0,1-1.3.5,7.94,7.94,0,0,1-3.6-1.2v4.6a8.39,8.39,0,0,0,3.7.9,6.44,6.44,0,0,0,4.5-1.7,5.45,5.45,0,0,0,1.8-4.2A5.85,5.85,0,0,0,123.9,38.1ZM22.8,36.4a5.55,5.55,0,0,0,.7-2.8,5.58,5.58,0,0,0-1.8-4.4,7.16,7.16,0,0,0-5-1.6H11.5V47.2H16V38.3h0l3.6,8.9a5,5,0,0,1,1.2-.2c.7-.2,1.9-.3,3.2-.5l-3.3-8.1A4.1,4.1,0,0,0,22.8,36.4ZM16,36.1V31.4a3.52,3.52,0,0,1,2.3.6,2.32,2.32,0,0,1,.7,2Q18.85,36.1,16,36.1Zm35.7-1.2h-4V27.6H43.2v14l-4.1-5.9c-4.5-6.4,5.1-10.6,5.1-10.6l-.7-.7S36,25.9,33.6,30V27.6h-9V46.4c2.4-.2,5.5-.5,9-.7V43H29V39.4h4V35.3H29V31.7h4c-.3,1.5.1,3.2,1.5,5.2l4.4,6.7a2.38,2.38,0,0,1,.5,1.7l8.2-.3V39h4v6c1.5,0,3-.1,4.5-.1V27.7H51.6v7.2Zm27.6-7.8a6,6,0,0,0-5.2,2.7,13,13,0,0,0-1.9,7.4c0,3.4.6,6,1.9,7.9,3.4.1,7,.2,10.4.4a1.38,1.38,0,0,0,.3-.4,13.88,13.88,0,0,0,1.9-7.7c0-3.3-.6-5.8-1.9-7.6A6.35,6.35,0,0,0,79.3,27.1Zm1.9,15a2.06,2.06,0,0,1-1.9,1.2,1.92,1.92,0,0,1-1.8-1.2,12.75,12.75,0,0,1-.6-4.9q0-5.7,2.4-5.7c1.7,0,2.6,1.9,2.6,5.7A12.19,12.19,0,0,1,81.2,42.1ZM68.5,35.4a5.72,5.72,0,0,0,3-5,5.94,5.94,0,0,0-2.1-4.7c-1.4-1.2-3.7-1.9-6.9-1.9H57V44.9h5.6c2.2,0,4.8,0,7.5.1a6.37,6.37,0,0,0,1.7-4.4A5,5,0,0,0,68.5,35.4Zm-6.1-7.1a5.46,5.46,0,0,1,2.9.6,2.15,2.15,0,0,1,.9,2c0,1.6-1.3,2.4-3.8,2.5Zm3.1,13.8a6.29,6.29,0,0,1-3.1.6V37.6h.5c2.5,0,3.7.8,3.7,2.5A2.09,2.09,0,0,1,65.5,42.1Z"/><polygon class="c" points="51.3 57.8 53.1 57.8 52.1 54.9 51.3 57.8"/><path class="c" d="M28.6,75c-.1-.1-.7-.6-2.9-.8-.4,0-.8-.1-1.2-.1a29.88,29.88,0,0,1-3.7-.4c-4.6-.7-4.6-2.1-4.6-2.5V57.1c-4.6.4-9.4.7-15.7.7a.33.33,0,0,0-.2.6c3.1,2.5,6.1,7.9,9.2,9.7-3,1.8-6.1,7.1-9.1,9.5a.33.33,0,0,0,.2.6,154.18,154.18,0,0,0,16.5-.8c2.8-.3,5.7-.5,8.5-.9a9.59,9.59,0,0,0,3.1-.9C29.1,75.6,28.9,75.2,28.6,75Z"/><path class="c" d="M124.9,57.8c-6.2,0-11.1-.3-15.7-.7V71.3c0,.4,0,1.8-4.6,2.5a29.88,29.88,0,0,1-3.7.4c-.4,0-.8.1-1.2.1-2.2.2-2.8.7-2.9.8-.3.2-.4.6-.2.7a10.44,10.44,0,0,0,3.1.9c2.8.4,5.7.6,8.5.9a155.57,155.57,0,0,0,16.5.8.33.33,0,0,0,.2-.6c-3-2.4-6.1-7.8-9.1-9.5,3.1-1.8,6.1-7.3,9.2-9.7C125.3,58.2,125.2,57.8,124.9,57.8Z"/><path class="c" d="M108.3,71.3V49.8a.37.37,0,0,0-.1-.3c-.4-.6-2-1.1-3.8-1.4C99.4,47,75.8,46,62.7,46S26,47.1,21,48.2c-2.1.3-3.9.9-3.9,1.6V71.3c0-.7,1.8-1.3,3.9-1.6,5-1.1,28.6-2.1,41.7-2.1s36.7,1,41.7,2.1C106.5,70,108.3,70.6,108.3,71.3ZM31.2,62.4c-2.3.2-4-1.5-4.1-4.2-.2-3,1.2-4.8,3.6-5a3.29,3.29,0,0,1,3.7,2.9l-2.1.5c-.2-1.1-.6-1.7-1.5-1.7s-1.5,1-1.4,3.1c.1,1.9.7,2.8,1.8,2.8.9-.1,1.3-.7,1.4-1.9l2,.2A3.35,3.35,0,0,1,31.2,62.4Zm7.9-.6L38.7,53l2.2-.1.3,7.2,3.7-.2.1,1.7Zm15.3-.5-.7-2-2.8.1-.5,2H48.5l2.7-9,2.3-.1,3.2,8.8Zm9.4,0c-2.4,0-3.4-1-3.9-2.4l1.7-.7a2,2,0,0,0,2.1,1.4c.9,0,1.4-.4,1.4-.9,0-.8-1-1-2-1.3-1.4-.3-2.9-.8-2.9-2.8,0-1.5,1.3-2.6,3.4-2.6a3.3,3.3,0,0,1,3.5,2.2l-1.9.6a1.62,1.62,0,0,0-1.6-1.1c-.7,0-1.2.3-1.2.8,0,.8.9.9,2.1,1.2,1.5.4,2.9.9,2.9,2.8C67.4,60.2,66.2,61.4,63.8,61.3Zm11,.2c-2.4-.1-3.4-1.1-3.8-2.5l1.7-.6a1.93,1.93,0,0,0,2.1,1.4q1.35,0,1.5-.9c0-.8-.9-1-2-1.3-1.4-.4-2.9-.9-2.9-2.8,0-1.5,1.4-2.5,3.5-2.5a3.35,3.35,0,0,1,3.4,2.3l-1.9.5A1.54,1.54,0,0,0,74.8,54c-.7,0-1.2.3-1.2.8,0,.8.8,1,2.1,1.3,1.5.4,2.8,1,2.8,2.8C78.4,60.5,77.2,61.6,74.8,61.5Zm10.1.3-2.2-.1.4-8.9,2.2.1Zm8.5-1.1c.9.1,1.4-.5,1.7-1.7l2,.5a3.6,3.6,0,0,1-3.9,2.9c-2.3-.1-3.7-2-3.6-4.6.2-3,1.8-4.6,4.2-4.5a3.33,3.33,0,0,1,3.3,3.3l-2.1.1c-.1-1.1-.4-1.8-1.3-1.8s-1.6.8-1.7,2.9C91.9,59.6,92.3,60.6,93.4,60.7Z"/></svg>
